<ttFont>
    <TTGlyph name="A" xMin="40" yMin="-9" xMax="674" yMax="740">
      <contour>
        <pt x="377" y="738" on="1"/>
        <pt x="381" y="731" on="0"/>
        <pt x="385" y="729" on="1"/>
        <pt x="384" y="718" on="0"/>
        <pt x="379" y="715" on="0"/>
        <pt x="378" y="711" on="1"/>
        <pt x="370" y="711" on="0"/>
        <pt x="367" y="711" on="1"/>
        <pt x="359" y="716" on="0"/>
        <pt x="356" y="715" on="0"/>
        <pt x="355" y="717" on="1"/>
        <pt x="354" y="726" on="0"/>
        <pt x="357" y="729" on="0"/>
        <pt x="357" y="734" on="1"/>
        <pt x="359" y="738" on="0"/>
        <pt x="371" y="740" on="0"/>
      </contour>
      <contour>
        <pt x="427" y="620" on="1"/>
        <pt x="421" y="620" on="0"/>
        <pt x="413" y="626" on="0"/>
        <pt x="409" y="628" on="1"/>
        <pt x="411" y="640" on="0"/>
        <pt x="416" y="647" on="0"/>
        <pt x="421" y="648" on="1"/>
        <pt x="432" y="647" on="1"/>
        <pt x="434" y="646" on="0"/>
        <pt x="440" y="639" on="0"/>
        <pt x="441" y="636" on="1"/>
        <pt x="436" y="626" on="0"/>
        <pt x="430" y="624" on="0"/>
        <pt x="429" y="621" on="1"/>
      </contour>
      <contour>
        <pt x="324" y="603" on="1"/>
        <pt x="319" y="601" on="0"/>
        <pt x="311" y="605" on="0"/>
        <pt x="308" y="603" on="1"/>
        <pt x="306" y="615" on="0"/>
        <pt x="305" y="618" on="0"/>
        <pt x="305" y="621" on="1"/>
        <pt x="306" y="626" on="0"/>
        <pt x="311" y="629" on="0"/>
        <pt x="313" y="632" on="1"/>
        <pt x="320" y="632" on="0"/>
        <pt x="326" y="631" on="0"/>
        <pt x="330" y="631" on="1"/>
        <pt x="332" y="626" on="0"/>
        <pt x="338" y="620" on="0"/>
        <pt x="337" y="614" on="1"/>
        <pt x="337" y="609" on="0"/>
        <pt x="328" y="605" on="0"/>
      </contour>
      <contour>
        <pt x="476" y="521" on="1"/>
        <pt x="479" y="518" on="0"/>
        <pt x="484" y="512" on="0"/>
        <pt x="486" y="507" on="1"/>
        <pt x="477" y="496" on="1"/>
        <pt x="472" y="494" on="0"/>
        <pt x="462" y="498" on="0"/>
        <pt x="457" y="500" on="1"/>
        <pt x="454" y="509" on="0"/>
        <pt x="456" y="513" on="1"/>
        <pt x="464" y="521" on="0"/>
      </contour>
      <contour>
        <pt x="252" y="498" on="1"/>
        <pt x="249" y="511" on="0"/>
        <pt x="252" y="515" on="0"/>
        <pt x="252" y="519" on="1"/>
        <pt x="256" y="521" on="0"/>
        <pt x="265" y="526" on="0"/>
        <pt x="268" y="521" on="1"/>
        <pt x="273" y="522" on="0"/>
        <pt x="275" y="519" on="0"/>
        <pt x="279" y="519" on="1"/>
        <pt x="280" y="510" on="0"/>
        <pt x="283" y="506" on="1"/>
        <pt x="278" y="501" on="0"/>
        <pt x="274" y="499" on="1"/>
        <pt x="261" y="493" on="0"/>
        <pt x="255" y="496" on="0"/>
      </contour>
      <contour>
        <pt x="531" y="387" on="1"/>
        <pt x="527" y="386" on="0"/>
        <pt x="522" y="382" on="0"/>
        <pt x="518" y="382" on="1"/>
        <pt x="513" y="383" on="0"/>
        <pt x="508" y="388" on="0"/>
        <pt x="504" y="389" on="1"/>
        <pt x="505" y="395" on="0"/>
        <pt x="503" y="400" on="1"/>
        <pt x="513" y="413" on="0"/>
        <pt x="527" y="413" on="0"/>
        <pt x="531" y="407" on="1"/>
        <pt x="535" y="400" on="0"/>
        <pt x="532" y="393" on="0"/>
      </contour>
      <contour>
        <pt x="226" y="400" on="1"/>
        <pt x="229" y="396" on="0"/>
        <pt x="228" y="387" on="0"/>
        <pt x="230" y="382" on="1"/>
        <pt x="221" y="377" on="0"/>
        <pt x="217" y="375" on="0"/>
        <pt x="215" y="375" on="1"/>
        <pt x="205" y="382" on="1"/>
        <pt x="200" y="388" on="0"/>
        <pt x="202" y="394" on="0"/>
        <pt x="200" y="396" on="1"/>
        <pt x="210" y="402" on="0"/>
        <pt x="219" y="400" on="0"/>
        <pt x="224" y="401" on="1"/>
      </contour>
      <contour>
        <pt x="547" y="272" on="1"/>
        <pt x="545" y="274" on="0"/>
        <pt x="538" y="277" on="0"/>
        <pt x="536" y="281" on="1"/>
        <pt x="534" y="293" on="0"/>
        <pt x="532" y="297" on="1"/>
        <pt x="546" y="304" on="0"/>
        <pt x="561" y="302" on="0"/>
        <pt x="564" y="297" on="1"/>
        <pt x="565" y="295" on="0"/>
        <pt x="566" y="286" on="0"/>
        <pt x="565" y="284" on="1"/>
        <pt x="563" y="276" on="0"/>
        <pt x="553" y="275" on="0"/>
      </contour>
      <contour>
        <pt x="183" y="293" on="1"/>
        <pt x="185" y="291" on="0"/>
        <pt x="185" y="284" on="0"/>
        <pt x="187" y="281" on="1"/>
        <pt x="182" y="272" on="0"/>
        <pt x="181" y="272" on="0"/>
        <pt x="179" y="270" on="1"/>
        <pt x="173" y="266" on="0"/>
        <pt x="166" y="270" on="1"/>
        <pt x="162" y="273" on="0"/>
        <pt x="156" y="279" on="0"/>
        <pt x="156" y="281" on="1"/>
        <pt x="155" y="285" on="0"/>
        <pt x="161" y="294" on="0"/>
        <pt x="165" y="297" on="1"/>
        <pt x="168" y="299" on="0"/>
        <pt x="178" y="294" on="0"/>
      </contour>
      <contour>
        <pt x="288" y="281" on="1"/>
        <pt x="290" y="275" on="0"/>
        <pt x="290" y="268" on="0"/>
        <pt x="292" y="264" on="1"/>
        <pt x="287" y="258" on="0"/>
        <pt x="286" y="256" on="0"/>
        <pt x="284" y="254" on="1"/>
        <pt x="280" y="252" on="0"/>
        <pt x="272" y="254" on="0"/>
        <pt x="268" y="255" on="1"/>
        <pt x="264" y="265" on="0"/>
        <pt x="261" y="267" on="1"/>
        <pt x="262" y="272" on="0"/>
        <pt x="269" y="279" on="0"/>
        <pt x="273" y="282" on="1"/>
        <pt x="282" y="280" on="0"/>
        <pt x="285" y="282" on="0"/>
      </contour>
      <contour>
        <pt x="463" y="281" on="1"/>
        <pt x="462" y="275" on="0"/>
        <pt x="468" y="270" on="0"/>
        <pt x="467" y="266" on="1"/>
        <pt x="467" y="260" on="0"/>
        <pt x="461" y="256" on="1"/>
        <pt x="445" y="252" on="0"/>
        <pt x="445" y="251" on="1"/>
        <pt x="442" y="253" on="0"/>
        <pt x="437" y="256" on="0"/>
        <pt x="434" y="258" on="1"/>
        <pt x="435" y="261" on="0"/>
        <pt x="433" y="267" on="0"/>
        <pt x="434" y="270" on="1"/>
        <pt x="438" y="276" on="0"/>
        <pt x="438" y="279" on="0"/>
        <pt x="439" y="280" on="1"/>
        <pt x="445" y="285" on="0"/>
        <pt x="452" y="284" on="0"/>
        <pt x="454" y="286" on="1"/>
      </contour>
      <contour>
        <pt x="373" y="283" on="1"/>
        <pt x="378" y="272" on="0"/>
        <pt x="379" y="272" on="0"/>
        <pt x="380" y="271" on="1"/>
        <pt x="380" y="268" on="0"/>
        <pt x="379" y="262" on="0"/>
        <pt x="379" y="258" on="1"/>
        <pt x="372" y="254" on="0"/>
        <pt x="369" y="255" on="0"/>
        <pt x="368" y="254" on="1"/>
        <pt x="357" y="252" on="0"/>
        <pt x="357" y="253" on="1"/>
        <pt x="351" y="259" on="0"/>
        <pt x="351" y="270" on="0"/>
        <pt x="350" y="275" on="1"/>
        <pt x="354" y="279" on="0"/>
        <pt x="366" y="284" on="0"/>
      </contour>
      <contour>
        <pt x="586" y="218" on="1"/>
        <pt x="596" y="215" on="0"/>
        <pt x="599" y="217" on="0"/>
        <pt x="601" y="216" on="1"/>
        <pt x="608" y="208" on="0"/>
        <pt x="608" y="206" on="1"/>
        <pt x="608" y="198" on="0"/>
        <pt x="606" y="194" on="1"/>
        <pt x="587" y="186" on="0"/>
        <pt x="576" y="199" on="0"/>
        <pt x="579" y="210" on="1"/>
      </contour>
      <contour>
        <pt x="138" y="195" on="1"/>
        <pt x="140" y="186" on="0"/>
        <pt x="145" y="185" on="0"/>
        <pt x="144" y="182" on="1"/>
        <pt x="140" y="171" on="0"/>
        <pt x="126" y="168" on="1"/>
        <pt x="118" y="174" on="0"/>
        <pt x="113" y="176" on="1"/>
        <pt x="113" y="181" on="0"/>
        <pt x="110" y="184" on="0"/>
        <pt x="112" y="189" on="1"/>
        <pt x="114" y="192" on="0"/>
        <pt x="117" y="196" on="0"/>
        <pt x="119" y="198" on="1"/>
        <pt x="130" y="198" on="0"/>
      </contour>
      <contour>
        <pt x="633" y="108" on="1"/>
        <pt x="633" y="103" on="0"/>
        <pt x="636" y="100" on="0"/>
        <pt x="638" y="98" on="1"/>
        <pt x="636" y="90" on="0"/>
        <pt x="625" y="82" on="0"/>
        <pt x="617" y="80" on="1"/>
        <pt x="615" y="82" on="0"/>
        <pt x="606" y="88" on="0"/>
        <pt x="603" y="92" on="1"/>
        <pt x="604" y="95" on="0"/>
        <pt x="606" y="99" on="0"/>
        <pt x="606" y="104" on="1"/>
        <pt x="609" y="106" on="0"/>
        <pt x="615" y="112" on="1"/>
        <pt x="620" y="110" on="0"/>
        <pt x="629" y="110" on="0"/>
      </contour>
      <contour>
        <pt x="99" y="94" on="1"/>
        <pt x="101" y="87" on="0"/>
        <pt x="103" y="83" on="0"/>
        <pt x="101" y="79" on="1"/>
        <pt x="96" y="72" on="0"/>
        <pt x="86" y="70" on="0"/>
        <pt x="84" y="74" on="1"/>
        <pt x="73" y="79" on="0"/>
        <pt x="73" y="86" on="0"/>
        <pt x="73" y="90" on="1"/>
        <pt x="75" y="92" on="0"/>
        <pt x="80" y="95" on="0"/>
        <pt x="81" y="98" on="1"/>
        <pt x="87" y="99" on="0"/>
        <pt x="94" y="96" on="0"/>
      </contour>
      <contour>
        <pt x="670" y="16" on="1"/>
        <pt x="674" y="7" on="0"/>
        <pt x="672" y="3" on="0"/>
        <pt x="673" y="-1" on="1"/>
        <pt x="669" y="-8" on="0"/>
        <pt x="665" y="-7" on="0"/>
        <pt x="664" y="-9" on="1"/>
        <pt x="659" y="-7" on="0"/>
        <pt x="650" y="-7" on="0"/>
        <pt x="645" y="-6" on="1"/>
        <pt x="643" y="6" on="0"/>
        <pt x="642" y="9" on="0"/>
        <pt x="643" y="11" on="1"/>
        <pt x="649" y="19" on="0"/>
        <pt x="660" y="18" on="1"/>
      </contour>
      <contour>
        <pt x="72" y="16" on="1"/>
        <pt x="72" y="10" on="0"/>
        <pt x="74" y="4" on="0"/>
        <pt x="72" y="-1" on="1"/>
        <pt x="70" y="-3" on="0"/>
        <pt x="62" y="-3" on="0"/>
        <pt x="62" y="-7" on="1"/>
        <pt x="42" y="-9" on="0"/>
        <pt x="40" y="15" on="0"/>
        <pt x="48" y="22" on="1"/>
        <pt x="58" y="19" on="0"/>
        <pt x="59" y="20" on="1"/>
        <pt x="64" y="22" on="0"/>
        <pt x="68" y="18" on="0"/>
      </contour>
    </TTGlyph>
    <TTGlyph name="AE" xMin="10" yMin="-14" xMax="981" yMax="747">
      <contour>
        <pt x="864" y="709" on="1"/>
        <pt x="855" y="709" on="0"/>
        <pt x="841" y="713" on="0"/>
        <pt x="839" y="720" on="1"/>
        <pt x="841" y="724" on="0"/>
        <pt x="841" y="735" on="0"/>
        <pt x="843" y="739" on="1"/>
        <pt x="852" y="741" on="0"/>
        <pt x="853" y="745" on="1"/>
        <pt x="857" y="743" on="0"/>
        <pt x="863" y="741" on="0"/>
        <pt x="868" y="740" on="1"/>
        <pt x="872" y="724" on="0"/>
        <pt x="874" y="721" on="1"/>
        <pt x="867" y="712" on="0"/>
      </contour>
      <contour>
        <pt x="574" y="742" on="1"/>
        <pt x="578" y="740" on="0"/>
        <pt x="582" y="731" on="0"/>
        <pt x="584" y="727" on="1"/>
        <pt x="580" y="726" on="0"/>
        <pt x="578" y="716" on="1"/>
        <pt x="575" y="714" on="0"/>
        <pt x="567" y="713" on="0"/>
        <pt x="563" y="712" on="1"/>
        <pt x="555" y="717" on="0"/>
        <pt x="553" y="719" on="0"/>
        <pt x="551" y="719" on="1"/>
        <pt x="553" y="730" on="1"/>
        <pt x="560" y="741" on="0"/>
        <pt x="569" y="740" on="0"/>
      </contour>
      <contour>
        <pt x="647" y="713" on="1"/>
        <pt x="641" y="712" on="0"/>
        <pt x="636" y="709" on="0"/>
        <pt x="634" y="709" on="1"/>
        <pt x="629" y="711" on="0"/>
        <pt x="623" y="715" on="1"/>
        <pt x="622" y="728" on="0"/>
        <pt x="624" y="735" on="0"/>
        <pt x="622" y="738" on="1"/>
        <pt x="628" y="744" on="0"/>
        <pt x="631" y="742" on="0"/>
        <pt x="631" y="745" on="1"/>
        <pt x="638" y="743" on="0"/>
        <pt x="641" y="745" on="0"/>
        <pt x="642" y="745" on="1"/>
        <pt x="649" y="743" on="0"/>
        <pt x="652" y="738" on="1"/>
        <pt x="654" y="729" on="0"/>
        <pt x="655" y="729" on="0"/>
        <pt x="655" y="727" on="1"/>
        <pt x="655" y="722" on="0"/>
        <pt x="649" y="717" on="0"/>
      </contour>
      <contour>
        <pt x="767" y="729" on="1"/>
        <pt x="762" y="717" on="0"/>
        <pt x="756" y="711" on="1"/>
        <pt x="751" y="711" on="0"/>
        <pt x="742" y="709" on="0"/>
        <pt x="737" y="711" on="1"/>
        <pt x="732" y="724" on="0"/>
        <pt x="732" y="737" on="1"/>
        <pt x="735" y="738" on="0"/>
        <pt x="740" y="741" on="0"/>
        <pt x="742" y="743" on="1"/>
        <pt x="747" y="747" on="0"/>
        <pt x="762" y="737" on="0"/>
        <pt x="764" y="735" on="1"/>
      </contour>
      <contour>
        <pt x="973" y="712" on="1"/>
        <pt x="960" y="708" on="0"/>
        <pt x="957" y="710" on="1"/>
        <pt x="947" y="714" on="0"/>
        <pt x="945" y="719" on="0"/>
        <pt x="943" y="718" on="1"/>
        <pt x="945" y="720" on="0"/>
        <pt x="944" y="727" on="0"/>
        <pt x="943" y="729" on="1"/>
        <pt x="951" y="738" on="0"/>
        <pt x="954" y="744" on="1"/>
        <pt x="962" y="746" on="0"/>
        <pt x="971" y="742" on="0"/>
        <pt x="977" y="740" on="1"/>
        <pt x="981" y="729" on="0"/>
        <pt x="980" y="728" on="0"/>
        <pt x="979" y="726" on="1"/>
        <pt x="978" y="718" on="0"/>
        <pt x="972" y="715" on="0"/>
      </contour>
      <contour>
        <pt x="509" y="713" on="1"/>
        <pt x="504" y="712" on="0"/>
        <pt x="499" y="707" on="0"/>
        <pt x="497" y="705" on="1"/>
        <pt x="475" y="698" on="0"/>
        <pt x="477" y="721" on="1"/>
        <pt x="478" y="729" on="0"/>
        <pt x="488" y="738" on="0"/>
        <pt x="499" y="736" on="1"/>
        <pt x="512" y="733" on="0"/>
      </contour>
      <contour>
        <pt x="579" y="612" on="1"/>
        <pt x="575" y="611" on="0"/>
        <pt x="569" y="611" on="0"/>
        <pt x="567" y="609" on="1"/>
        <pt x="563" y="611" on="0"/>
        <pt x="556" y="613" on="0"/>
        <pt x="552" y="615" on="1"/>
        <pt x="549" y="621" on="0"/>
        <pt x="551" y="634" on="0"/>
        <pt x="553" y="639" on="1"/>
        <pt x="574" y="647" on="0"/>
        <pt x="586" y="634" on="0"/>
        <pt x="584" y="624" on="1"/>
        <pt x="583" y="621" on="0"/>
        <pt x="579" y="616" on="0"/>
      </contour>
      <contour>
        <pt x="447" y="633" on="1"/>
        <pt x="449" y="624" on="0"/>
        <pt x="442" y="615" on="0"/>
        <pt x="440" y="610" on="1"/>
        <pt x="435" y="612" on="0"/>
        <pt x="431" y="607" on="0"/>
        <pt x="428" y="607" on="1"/>
        <pt x="417" y="612" on="0"/>
        <pt x="415" y="612" on="0"/>
        <pt x="414" y="613" on="1"/>
        <pt x="411" y="622" on="0"/>
        <pt x="414" y="626" on="0"/>
        <pt x="413" y="631" on="1"/>
        <pt x="422" y="639" on="0"/>
        <pt x="426" y="640" on="0"/>
        <pt x="425" y="643" on="1"/>
        <pt x="437" y="638" on="0"/>
        <pt x="443" y="637" on="0"/>
        <pt x="444" y="636" on="1"/>
      </contour>
      <contour>
        <pt x="582" y="538" on="1"/>
        <pt x="584" y="535" on="0"/>
        <pt x="583" y="526" on="0"/>
        <pt x="588" y="526" on="1"/>
        <pt x="586" y="517" on="0"/>
        <pt x="581" y="515" on="1"/>
        <pt x="562" y="511" on="0"/>
        <pt x="557" y="509" on="1"/>
        <pt x="548" y="518" on="0"/>
        <pt x="550" y="528" on="0"/>
        <pt x="547" y="529" on="1"/>
        <pt x="550" y="534" on="0"/>
        <pt x="559" y="539" on="0"/>
        <pt x="562" y="543" on="1"/>
        <pt x="568" y="542" on="0"/>
        <pt x="577" y="540" on="0"/>
      </contour>
      <contour>
        <pt x="384" y="547" on="1"/>
        <pt x="382" y="542" on="0"/>
        <pt x="386" y="536" on="0"/>
        <pt x="386" y="532" on="1"/>
        <pt x="385" y="527" on="0"/>
        <pt x="378" y="520" on="1"/>
        <pt x="372" y="519" on="0"/>
        <pt x="357" y="520" on="0"/>
        <pt x="352" y="526" on="1"/>
        <pt x="351" y="531" on="0"/>
        <pt x="352" y="545" on="0"/>
        <pt x="351" y="550" on="1"/>
        <pt x="353" y="551" on="0"/>
        <pt x="359" y="552" on="0"/>
        <pt x="364" y="552" on="1"/>
        <pt x="375" y="551" on="0"/>
        <pt x="381" y="547" on="0"/>
      </contour>
      <contour>
        <pt x="288" y="451" on="1"/>
        <pt x="292" y="459" on="0"/>
        <pt x="308" y="463" on="0"/>
        <pt x="315" y="460" on="1"/>
        <pt x="316" y="454" on="0"/>
        <pt x="324" y="449" on="0"/>
        <pt x="323" y="442" on="1"/>
        <pt x="323" y="436" on="0"/>
        <pt x="307" y="432" on="0"/>
        <pt x="299" y="434" on="1"/>
        <pt x="293" y="436" on="0"/>
        <pt x="290" y="444" on="0"/>
      </contour>
      <contour>
        <pt x="577" y="426" on="1"/>
        <pt x="582" y="421" on="0"/>
        <pt x="587" y="409" on="0"/>
        <pt x="583" y="401" on="1"/>
        <pt x="579" y="396" on="0"/>
        <pt x="568" y="394" on="0"/>
        <pt x="560" y="394" on="1"/>
        <pt x="556" y="398" on="0"/>
        <pt x="550" y="403" on="0"/>
        <pt x="550" y="411" on="1"/>
        <pt x="550" y="419" on="0"/>
        <pt x="565" y="428" on="0"/>
      </contour>
      <contour>
        <pt x="237" y="356" on="1"/>
        <pt x="241" y="364" on="0"/>
        <pt x="240" y="368" on="0"/>
        <pt x="241" y="369" on="1"/>
        <pt x="246" y="372" on="0"/>
        <pt x="250" y="376" on="1"/>
        <pt x="262" y="375" on="0"/>
        <pt x="271" y="366" on="1"/>
        <pt x="270" y="362" on="0"/>
        <pt x="272" y="356" on="0"/>
        <pt x="271" y="354" on="1"/>
        <pt x="261" y="347" on="0"/>
        <pt x="259" y="343" on="0"/>
        <pt x="257" y="341" on="1"/>
        <pt x="255" y="341" on="0"/>
        <pt x="248" y="342" on="0"/>
        <pt x="245" y="344" on="1"/>
        <pt x="241" y="347" on="0"/>
      </contour>
      <contour>
        <pt x="640" y="327" on="1"/>
        <pt x="639" y="319" on="0"/>
        <pt x="643" y="315" on="0"/>
        <pt x="641" y="313" on="1"/>
        <pt x="636" y="305" on="0"/>
        <pt x="633" y="304" on="0"/>
        <pt x="633" y="302" on="1"/>
        <pt x="627" y="301" on="0"/>
        <pt x="615" y="299" on="0"/>
        <pt x="610" y="302" on="1"/>
        <pt x="604" y="316" on="0"/>
        <pt x="610" y="325" on="0"/>
        <pt x="612" y="330" on="1"/>
        <pt x="617" y="332" on="0"/>
        <pt x="624" y="336" on="0"/>
        <pt x="629" y="335" on="1"/>
        <pt x="634" y="334" on="0"/>
        <pt x="637" y="328" on="0"/>
      </contour>
      <contour>
        <pt x="736" y="332" on="1"/>
        <pt x="736" y="326" on="0"/>
        <pt x="738" y="321" on="0"/>
        <pt x="738" y="319" on="1"/>
        <pt x="733" y="308" on="0"/>
        <pt x="728" y="304" on="0"/>
        <pt x="726" y="301" on="1"/>
        <pt x="721" y="300" on="0"/>
        <pt x="713" y="302" on="0"/>
        <pt x="708" y="303" on="1"/>
        <pt x="700" y="311" on="0"/>
        <pt x="703" y="325" on="1"/>
        <pt x="708" y="329" on="0"/>
        <pt x="708" y="331" on="0"/>
        <pt x="713" y="333" on="1"/>
        <pt x="723" y="336" on="0"/>
      </contour>
      <contour>
        <pt x="831" y="301" on="1"/>
        <pt x="826" y="302" on="0"/>
        <pt x="821" y="299" on="0"/>
        <pt x="816" y="300" on="1"/>
        <pt x="813" y="302" on="0"/>
        <pt x="807" y="308" on="0"/>
        <pt x="805" y="310" on="1"/>
        <pt x="807" y="324" on="0"/>
        <pt x="809" y="329" on="0"/>
        <pt x="810" y="332" on="1"/>
        <pt x="817" y="336" on="0"/>
        <pt x="825" y="334" on="1"/>
        <pt x="834" y="330" on="0"/>
        <pt x="836" y="330" on="0"/>
        <pt x="837" y="329" on="1"/>
        <pt x="841" y="315" on="0"/>
        <pt x="833" y="305" on="0"/>
      </contour>
      <contour>
        <pt x="348" y="325" on="1"/>
        <pt x="346" y="316" on="0"/>
        <pt x="343" y="307" on="0"/>
        <pt x="339" y="302" on="1"/>
        <pt x="336" y="302" on="0"/>
        <pt x="331" y="300" on="0"/>
        <pt x="328" y="300" on="1"/>
        <pt x="324" y="301" on="0"/>
        <pt x="318" y="304" on="0"/>
        <pt x="314" y="305" on="1"/>
        <pt x="313" y="309" on="0"/>
        <pt x="314" y="315" on="0"/>
        <pt x="314" y="322" on="1"/>
        <pt x="321" y="327" on="0"/>
        <pt x="323" y="331" on="0"/>
        <pt x="324" y="333" on="1"/>
        <pt x="328" y="334" on="0"/>
        <pt x="332" y="335" on="0"/>
        <pt x="335" y="334" on="1"/>
        <pt x="340" y="333" on="0"/>
        <pt x="343" y="326" on="0"/>
      </contour>
      <contour>
        <pt x="912" y="302" on="1"/>
        <pt x="904" y="303" on="0"/>
        <pt x="898" y="301" on="1"/>
        <pt x="895" y="304" on="0"/>
        <pt x="888" y="308" on="0"/>
        <pt x="886" y="312" on="1"/>
        <pt x="885" y="316" on="0"/>
        <pt x="888" y="324" on="0"/>
        <pt x="886" y="326" on="1"/>
        <pt x="895" y="336" on="0"/>
        <pt x="914" y="333" on="1"/>
        <pt x="919" y="330" on="0"/>
        <pt x="924" y="314" on="0"/>
        <pt x="916" y="311" on="1"/>
      </contour>
      <contour>
        <pt x="543" y="327" on="1"/>
        <pt x="541" y="323" on="0"/>
        <pt x="544" y="315" on="0"/>
        <pt x="542" y="312" on="1"/>
        <pt x="535" y="303" on="0"/>
        <pt x="535" y="303" on="1"/>
        <pt x="524" y="299" on="0"/>
        <pt x="518" y="302" on="0"/>
        <pt x="514" y="301" on="1"/>
        <pt x="505" y="311" on="0"/>
        <pt x="507" y="314" on="0"/>
        <pt x="507" y="316" on="1"/>
        <pt x="508" y="326" on="0"/>
        <pt x="510" y="329" on="0"/>
        <pt x="511" y="331" on="1"/>
        <pt x="519" y="333" on="0"/>
        <pt x="521" y="336" on="1"/>
        <pt x="535" y="333" on="0"/>
        <pt x="539" y="327" on="0"/>
      </contour>
      <contour>
        <pt x="453" y="324" on="1"/>
        <pt x="450" y="310" on="0"/>
        <pt x="446" y="307" on="0"/>
        <pt x="445" y="304" on="1"/>
        <pt x="441" y="304" on="0"/>
        <pt x="435" y="299" on="0"/>
        <pt x="431" y="299" on="1"/>
        <pt x="421" y="300" on="0"/>
        <pt x="416" y="315" on="0"/>
        <pt x="418" y="326" on="1"/>
        <pt x="420" y="329" on="0"/>
        <pt x="427" y="333" on="0"/>
        <pt x="429" y="336" on="1"/>
        <pt x="432" y="335" on="0"/>
        <pt x="436" y="334" on="0"/>
        <pt x="440" y="334" on="1"/>
        <pt x="442" y="331" on="0"/>
        <pt x="451" y="328" on="0"/>
      </contour>
      <contour>
        <pt x="211" y="280" on="1"/>
        <pt x="215" y="266" on="0"/>
        <pt x="206" y="256" on="1"/>
        <pt x="202" y="258" on="0"/>
        <pt x="196" y="253" on="0"/>
        <pt x="194" y="253" on="1"/>
        <pt x="187" y="253" on="0"/>
        <pt x="181" y="256" on="1"/>
        <pt x="177" y="263" on="0"/>
        <pt x="179" y="273" on="0"/>
        <pt x="176" y="280" on="1"/>
        <pt x="183" y="280" on="0"/>
        <pt x="194" y="289" on="0"/>
        <pt x="203" y="285" on="1"/>
      </contour>
      <contour>
        <pt x="555" y="222" on="1"/>
        <pt x="551" y="228" on="0"/>
        <pt x="550" y="233" on="0"/>
        <pt x="549" y="236" on="1"/>
        <pt x="553" y="239" on="0"/>
        <pt x="559" y="247" on="0"/>
        <pt x="566" y="247" on="1"/>
        <pt x="568" y="247" on="0"/>
        <pt x="574" y="247" on="0"/>
        <pt x="577" y="246" on="1"/>
        <pt x="586" y="237" on="0"/>
        <pt x="583" y="227" on="0"/>
        <pt x="585" y="223" on="1"/>
        <pt x="583" y="220" on="0"/>
        <pt x="573" y="218" on="0"/>
        <pt x="571" y="213" on="1"/>
        <pt x="566" y="213" on="0"/>
        <pt x="564" y="213" on="0"/>
        <pt x="559" y="212" on="1"/>
      </contour>
      <contour>
        <pt x="145" y="166" on="1"/>
        <pt x="141" y="166" on="0"/>
        <pt x="136" y="163" on="0"/>
        <pt x="131" y="164" on="1"/>
        <pt x="122" y="169" on="0"/>
        <pt x="120" y="173" on="0"/>
        <pt x="119" y="175" on="1"/>
        <pt x="117" y="177" on="0"/>
        <pt x="121" y="184" on="0"/>
        <pt x="118" y="187" on="1"/>
        <pt x="120" y="192" on="0"/>
        <pt x="129" y="196" on="0"/>
        <pt x="133" y="198" on="1"/>
        <pt x="136" y="196" on="0"/>
        <pt x="144" y="197" on="0"/>
        <pt x="146" y="195" on="1"/>
        <pt x="149" y="193" on="0"/>
        <pt x="153" y="186" on="0"/>
        <pt x="154" y="184" on="1"/>
        <pt x="155" y="179" on="0"/>
        <pt x="147" y="171" on="0"/>
      </contour>
      <contour>
        <pt x="586" y="123" on="1"/>
        <pt x="585" y="117" on="0"/>
        <pt x="580" y="108" on="0"/>
        <pt x="578" y="102" on="1"/>
        <pt x="570" y="101" on="0"/>
        <pt x="558" y="104" on="0"/>
        <pt x="551" y="106" on="1"/>
        <pt x="547" y="121" on="0"/>
        <pt x="554" y="131" on="0"/>
        <pt x="558" y="136" on="1"/>
        <pt x="563" y="136" on="0"/>
        <pt x="578" y="135" on="0"/>
        <pt x="582" y="131" on="1"/>
      </contour>
      <contour>
        <pt x="93" y="100" on="1"/>
        <pt x="94" y="96" on="0"/>
        <pt x="94" y="92" on="0"/>
        <pt x="96" y="88" on="1"/>
        <pt x="86" y="81" on="0"/>
        <pt x="87" y="78" on="0"/>
        <pt x="86" y="76" on="1"/>
        <pt x="81" y="77" on="0"/>
        <pt x="76" y="75" on="0"/>
        <pt x="71" y="75" on="1"/>
        <pt x="68" y="77" on="0"/>
        <pt x="65" y="81" on="0"/>
        <pt x="61" y="83" on="1"/>
        <pt x="59" y="99" on="0"/>
        <pt x="65" y="105" on="1"/>
        <pt x="70" y="105" on="0"/>
        <pt x="76" y="110" on="0"/>
        <pt x="81" y="109" on="1"/>
        <pt x="84" y="107" on="0"/>
        <pt x="88" y="100" on="0"/>
      </contour>
      <contour>
        <pt x="961" y="26" on="1"/>
        <pt x="970" y="18" on="0"/>
        <pt x="964" y="-4" on="0"/>
        <pt x="955" y="-9" on="1"/>
        <pt x="953" y="-8" on="0"/>
        <pt x="946" y="-8" on="0"/>
        <pt x="943" y="-8" on="1"/>
        <pt x="941" y="-6" on="0"/>
        <pt x="937" y="-2" on="0"/>
        <pt x="934" y="-1" on="1"/>
        <pt x="934" y="4" on="0"/>
        <pt x="930" y="8" on="0"/>
        <pt x="932" y="13" on="1"/>
        <pt x="937" y="15" on="0"/>
        <pt x="943" y="21" on="0"/>
        <pt x="947" y="25" on="1"/>
        <pt x="952" y="27" on="0"/>
        <pt x="956" y="25" on="0"/>
      </contour>
      <contour>
        <pt x="757" y="19" on="1"/>
        <pt x="762" y="21" on="0"/>
        <pt x="772" y="27" on="0"/>
        <pt x="777" y="26" on="1"/>
        <pt x="778" y="25" on="0"/>
        <pt x="786" y="19" on="0"/>
        <pt x="787" y="18" on="1"/>
        <pt x="790" y="10" on="0"/>
        <pt x="791" y="10" on="0"/>
        <pt x="792" y="7" on="1"/>
        <pt x="786" y="-1" on="0"/>
        <pt x="781" y="-4" on="0"/>
        <pt x="778" y="-6" on="1"/>
        <pt x="776" y="-8" on="0"/>
        <pt x="770" y="-9" on="0"/>
        <pt x="763" y="-8" on="1"/>
        <pt x="757" y="-2" on="0"/>
        <pt x="755" y="-2" on="0"/>
        <pt x="754" y="0" on="1"/>
        <pt x="752" y="5" on="0"/>
        <pt x="756" y="14" on="0"/>
      </contour>
      <contour>
        <pt x="880" y="18" on="1"/>
        <pt x="880" y="13" on="0"/>
        <pt x="882" y="8" on="0"/>
        <pt x="880" y="3" on="1"/>
        <pt x="875" y="3" on="0"/>
        <pt x="874" y="-4" on="0"/>
        <pt x="872" y="-6" on="1"/>
        <pt x="868" y="-7" on="0"/>
        <pt x="863" y="-9" on="0"/>
        <pt x="858" y="-9" on="1"/>
        <pt x="853" y="-2" on="0"/>
        <pt x="849" y="-2" on="1"/>
        <pt x="847" y="3" on="0"/>
        <pt x="846" y="12" on="0"/>
        <pt x="847" y="18" on="1"/>
        <pt x="858" y="25" on="0"/>
        <pt x="868" y="27" on="0"/>
        <pt x="870" y="25" on="1"/>
        <pt x="877" y="18" on="0"/>
        <pt x="880" y="19" on="0"/>
      </contour>
      <contour>
        <pt x="676" y="22" on="1"/>
        <pt x="681" y="8" on="0"/>
        <pt x="661" y="-14" on="0"/>
        <pt x="647" y="-6" on="1"/>
        <pt x="647" y="-1" on="0"/>
        <pt x="642" y="7" on="0"/>
        <pt x="643" y="12" on="1"/>
        <pt x="647" y="19" on="0"/>
        <pt x="653" y="24" on="0"/>
        <pt x="657" y="26" on="1"/>
        <pt x="662" y="24" on="0"/>
        <pt x="671" y="22" on="0"/>
      </contour>
      <contour>
        <pt x="573" y="24" on="1"/>
        <pt x="573" y="17" on="0"/>
        <pt x="580" y="12" on="0"/>
        <pt x="582" y="8" on="1"/>
        <pt x="582" y="3" on="0"/>
        <pt x="572" y="1" on="1"/>
        <pt x="572" y="-7" on="0"/>
        <pt x="561" y="-6" on="0"/>
        <pt x="556" y="-9" on="1"/>
        <pt x="550" y="-6" on="0"/>
        <pt x="542" y="1" on="0"/>
        <pt x="544" y="10" on="1"/>
        <pt x="545" y="15" on="0"/>
        <pt x="549" y="22" on="1"/>
        <pt x="555" y="24" on="0"/>
        <pt x="565" y="26" on="0"/>
      </contour>
      <contour>
        <pt x="25" y="-8" on="1"/>
        <pt x="19" y="-7" on="0"/>
        <pt x="14" y="0" on="0"/>
        <pt x="10" y="2" on="1"/>
        <pt x="12" y="5" on="0"/>
        <pt x="14" y="11" on="0"/>
        <pt x="12" y="16" on="1"/>
        <pt x="23" y="24" on="0"/>
        <pt x="24" y="25" on="0"/>
        <pt x="29" y="27" on="1"/>
        <pt x="36" y="25" on="0"/>
        <pt x="44" y="14" on="0"/>
        <pt x="44" y="13" on="1"/>
        <pt x="44" y="2" on="0"/>
        <pt x="40" y="-4" on="1"/>
        <pt x="35" y="-5" on="0"/>
        <pt x="27" y="-6" on="0"/>
      </contour>
    </TTGlyph>
    <TTGlyph name="Aacute" xMin="40" yMin="-9" xMax="674" yMax="940">
      <component glyphName="A" x="0" y="0" flags="0x204"/>
      <component glyphName="acute" x="-30" y="195" flags="0x4"/>
    </TTGlyph>
    <TTGlyph name="Acircumflex" xMin="40" yMin="-9" xMax="674" yMax="942">
      <component glyphName="A" x="0" y="0" flags="0x204"/>
      <component glyphName="circumflex" x="-36" y="197" flags="0x4"/>
    </TTGlyph>
    <TTGlyph name="Adieresis" xMin="40" yMin="-9" xMax="674" yMax="944">
      <component glyphName="A" x="0" y="0" flags="0x204"/>
      <component glyphName="dieresis" x="-33" y="196" flags="0x4"/>
    </TTGlyph>
    <TTGlyph name="Agrave" xMin="40" yMin="-9" xMax="674" yMax="950">
      <component glyphName="A" x="0" y="0" flags="0x204"/>
      <component glyphName="grave" x="-60" y="205" flags="0x4"/>
    </TTGlyph>
    <TTGlyph name="Aring" xMin="40" yMin="-9" xMax="674" yMax="858">
      <contour>
        <pt x="377" y="738" on="1"/>
        <pt x="381" y="731" on="0"/>
        <pt x="385" y="729" on="1"/>
        <pt x="384" y="718" on="0"/>
        <pt x="379" y="715" on="0"/>
        <pt x="378" y="711" on="1"/>
        <pt x="370" y="711" on="0"/>
        <pt x="367" y="711" on="1"/>
        <pt x="359" y="716" on="0"/>
        <pt x="356" y="715" on="0"/>
        <pt x="355" y="717" on="1"/>
        <pt x="354" y="726" on="0"/>
        <pt x="357" y="729" on="0"/>
        <pt x="357" y="734" on="1"/>
        <pt x="359" y="738" on="0"/>
        <pt x="371" y="740" on="0"/>
      </contour>
      <contour>
        <pt x="427" y="620" on="1"/>
        <pt x="421" y="620" on="0"/>
        <pt x="413" y="626" on="0"/>
        <pt x="409" y="628" on="1"/>
        <pt x="411" y="640" on="0"/>
        <pt x="416" y="647" on="0"/>
        <pt x="421" y="648" on="1"/>
        <pt x="432" y="647" on="1"/>
        <pt x="434" y="646" on="0"/>
        <pt x="440" y="639" on="0"/>
        <pt x="441" y="636" on="1"/>
        <pt x="436" y="626" on="0"/>
        <pt x="430" y="624" on="0"/>
        <pt x="429" y="621" on="1"/>
      </contour>
      <contour>
        <pt x="324" y="603" on="1"/>
        <pt x="319" y="601" on="0"/>
        <pt x="311" y="605" on="0"/>
        <pt x="308" y="603" on="1"/>
        <pt x="306" y="615" on="0"/>
        <pt x="305" y="618" on="0"/>
        <pt x="305" y="621" on="1"/>
        <pt x="306" y="626" on="0"/>
        <pt x="311" y="629" on="0"/>
        <pt x="313" y="632" on="1"/>
        <pt x="320" y="632" on="0"/>
        <pt x="326" y="631" on="0"/>
        <pt x="330" y="631" on="1"/>
        <pt x="332" y="626" on="0"/>
        <pt x="338" y="620" on="0"/>
        <pt x="337" y="614" on="1"/>
        <pt x="337" y="609" on="0"/>
        <pt x="328" y="605" on="0"/>
      </contour>
      <contour>
        <pt x="476" y="521" on="1"/>
        <pt x="479" y="518" on="0"/>
        <pt x="484" y="512" on="0"/>
        <pt x="486" y="507" on="1"/>
        <pt x="477" y="496" on="1"/>
        <pt x="472" y="494" on="0"/>
        <pt x="462" y="498" on="0"/>
        <pt x="457" y="500" on="1"/>
        <pt x="454" y="509" on="0"/>
        <pt x="456" y="513" on="1"/>
        <pt x="464" y="521" on="0"/>
      </contour>
      <contour>
        <pt x="252" y="498" on="1"/>
        <pt x="249" y="511" on="0"/>
        <pt x="252" y="515" on="0"/>
        <pt x="252" y="519" on="1"/>
        <pt x="256" y="521" on="0"/>
        <pt x="265" y="526" on="0"/>
        <pt x="268" y="521" on="1"/>
        <pt x="273" y="522" on="0"/>
        <pt x="275" y="519" on="0"/>
        <pt x="279" y="519" on="1"/>
        <pt x="280" y="510" on="0"/>
        <pt x="283" y="506" on="1"/>
        <pt x="278" y="501" on="0"/>
        <pt x="274" y="499" on="1"/>
        <pt x="261" y="493" on="0"/>
        <pt x="255" y="496" on="0"/>
      </contour>
      <contour>
        <pt x="531" y="387" on="1"/>
        <pt x="527" y="386" on="0"/>
        <pt x="522" y="382" on="0"/>
        <pt x="518" y="382" on="1"/>
        <pt x="513" y="383" on="0"/>
        <pt x="508" y="388" on="0"/>
        <pt x="504" y="389" on="1"/>
        <pt x="505" y="395" on="0"/>
        <pt x="503" y="400" on="1"/>
        <pt x="513" y="413" on="0"/>
        <pt x="527" y="413" on="0"/>
        <pt x="531" y="407" on="1"/>
        <pt x="535" y="400" on="0"/>
        <pt x="532" y="393" on="0"/>
      </contour>
      <contour>
        <pt x="226" y="400" on="1"/>
        <pt x="229" y="396" on="0"/>
        <pt x="228" y="387" on="0"/>
        <pt x="230" y="382" on="1"/>
        <pt x="221" y="377" on="0"/>
        <pt x="217" y="375" on="0"/>
        <pt x="215" y="375" on="1"/>
        <pt x="205" y="382" on="1"/>
        <pt x="200" y="388" on="0"/>
        <pt x="202" y="394" on="0"/>
        <pt x="200" y="396" on="1"/>
        <pt x="210" y="402" on="0"/>
        <pt x="219" y="400" on="0"/>
        <pt x="224" y="401" on="1"/>
      </contour>
      <contour>
        <pt x="547" y="272" on="1"/>
        <pt x="545" y="274" on="0"/>
        <pt x="538" y="277" on="0"/>
        <pt x="536" y="281" on="1"/>
        <pt x="534" y="293" on="0"/>
        <pt x="532" y="297" on="1"/>
        <pt x="546" y="304" on="0"/>
        <pt x="561" y="302" on="0"/>
        <pt x="564" y="297" on="1"/>
        <pt x="565" y="295" on="0"/>
        <pt x="566" y="286" on="0"/>
        <pt x="565" y="284" on="1"/>
        <pt x="563" y="276" on="0"/>
        <pt x="553" y="275" on="0"/>
      </contour>
      <contour>
        <pt x="183" y="293" on="1"/>
        <pt x="185" y="291" on="0"/>
        <pt x="185" y="284" on="0"/>
        <pt x="187" y="281" on="1"/>
        <pt x="182" y="272" on="0"/>
        <pt x="181" y="272" on="0"/>
        <pt x="179" y="270" on="1"/>
        <pt x="173" y="266" on="0"/>
        <pt x="166" y="270" on="1"/>
        <pt x="162" y="273" on="0"/>
        <pt x="156" y="279" on="0"/>
        <pt x="156" y="281" on="1"/>
        <pt x="155" y="285" on="0"/>
        <pt x="161" y="294" on="0"/>
        <pt x="165" y="297" on="1"/>
        <pt x="168" y="299" on="0"/>
        <pt x="178" y="294" on="0"/>
      </contour>
      <contour>
        <pt x="288" y="281" on="1"/>
        <pt x="290" y="275" on="0"/>
        <pt x="290" y="268" on="0"/>
        <pt x="292" y="264" on="1"/>
        <pt x="287" y="258" on="0"/>
        <pt x="286" y="256" on="0"/>
        <pt x="284" y="254" on="1"/>
        <pt x="280" y="252" on="0"/>
        <pt x="272" y="254" on="0"/>
        <pt x="268" y="255" on="1"/>
        <pt x="264" y="265" on="0"/>
        <pt x="261" y="267" on="1"/>
        <pt x="262" y="272" on="0"/>
        <pt x="269" y="279" on="0"/>
        <pt x="273" y="282" on="1"/>
        <pt x="282" y="280" on="0"/>
        <pt x="285" y="282" on="0"/>
      </contour>
      <contour>
        <pt x="463" y="281" on="1"/>
        <pt x="462" y="275" on="0"/>
        <pt x="468" y="270" on="0"/>
        <pt x="467" y="266" on="1"/>
        <pt x="467" y="260" on="0"/>
        <pt x="461" y="256" on="1"/>
        <pt x="445" y="252" on="0"/>
        <pt x="445" y="251" on="1"/>
        <pt x="442" y="253" on="0"/>
        <pt x="437" y="256" on="0"/>
        <pt x="434" y="258" on="1"/>
        <pt x="435" y="261" on="0"/>
        <pt x="433" y="267" on="0"/>
        <pt x="434" y="270" on="1"/>
        <pt x="438" y="276" on="0"/>
        <pt x="438" y="279" on="0"/>
        <pt x="439" y="280" on="1"/>
        <pt x="445" y="285" on="0"/>
        <pt x="452" y="284" on="0"/>
        <pt x="454" y="286" on="1"/>
      </contour>
      <contour>
        <pt x="373" y="283" on="1"/>
        <pt x="378" y="272" on="0"/>
        <pt x="379" y="272" on="0"/>
        <pt x="380" y="271" on="1"/>
        <pt x="380" y="268" on="0"/>
        <pt x="379" y="262" on="0"/>
        <pt x="379" y="258" on="1"/>
        <pt x="372" y="254" on="0"/>
        <pt x="369" y="255" on="0"/>
        <pt x="368" y="254" on="1"/>
        <pt x="357" y="252" on="0"/>
        <pt x="357" y="253" on="1"/>
        <pt x="351" y="259" on="0"/>
        <pt x="351" y="270" on="0"/>
        <pt x="350" y="275" on="1"/>
        <pt x="354" y="279" on="0"/>
        <pt x="366" y="284" on="0"/>
      </contour>
      <contour>
        <pt x="586" y="218" on="1"/>
        <pt x="596" y="215" on="0"/>
        <pt x="599" y="217" on="0"/>
        <pt x="601" y="216" on="1"/>
        <pt x="608" y="208" on="0"/>
        <pt x="608" y="206" on="1"/>
        <pt x="608" y="198" on="0"/>
        <pt x="606" y="194" on="1"/>
        <pt x="587" y="186" on="0"/>
        <pt x="576" y="199" on="0"/>
        <pt x="579" y="210" on="1"/>
      </contour>
      <contour>
        <pt x="138" y="195" on="1"/>
        <pt x="140" y="186" on="0"/>
        <pt x="145" y="185" on="0"/>
        <pt x="144" y="182" on="1"/>
        <pt x="140" y="171" on="0"/>
        <pt x="126" y="168" on="1"/>
        <pt x="118" y="174" on="0"/>
        <pt x="113" y="176" on="1"/>
        <pt x="113" y="181" on="0"/>
        <pt x="110" y="184" on="0"/>
        <pt x="112" y="189" on="1"/>
        <pt x="114" y="192" on="0"/>
        <pt x="117" y="196" on="0"/>
        <pt x="119" y="198" on="1"/>
        <pt x="130" y="198" on="0"/>
      </contour>
      <contour>
        <pt x="633" y="108" on="1"/>
        <pt x="633" y="103" on="0"/>
        <pt x="636" y="100" on="0"/>
        <pt x="638" y="98" on="1"/>
        <pt x="636" y="90" on="0"/>
        <pt x="625" y="82" on="0"/>
        <pt x="617" y="80" on="1"/>
        <pt x="615" y="82" on="0"/>
        <pt x="606" y="88" on="0"/>
        <pt x="603" y="92" on="1"/>
        <pt x="604" y="95" on="0"/>
        <pt x="606" y="99" on="0"/>
        <pt x="606" y="104" on="1"/>
        <pt x="609" y="106" on="0"/>
        <pt x="615" y="112" on="1"/>
        <pt x="620" y="110" on="0"/>
        <pt x="629" y="110" on="0"/>
      </contour>
      <contour>
        <pt x="99" y="94" on="1"/>
        <pt x="101" y="87" on="0"/>
        <pt x="103" y="83" on="0"/>
        <pt x="101" y="79" on="1"/>
        <pt x="96" y="72" on="0"/>
        <pt x="86" y="70" on="0"/>
        <pt x="84" y="74" on="1"/>
        <pt x="73" y="79" on="0"/>
        <pt x="73" y="86" on="0"/>
        <pt x="73" y="90" on="1"/>
        <pt x="75" y="92" on="0"/>
        <pt x="80" y="95" on="0"/>
        <pt x="81" y="98" on="1"/>
        <pt x="87" y="99" on="0"/>
        <pt x="94" y="96" on="0"/>
      </contour>
      <contour>
        <pt x="670" y="16" on="1"/>
        <pt x="674" y="7" on="0"/>
        <pt x="672" y="3" on="0"/>
        <pt x="673" y="-1" on="1"/>
        <pt x="669" y="-8" on="0"/>
        <pt x="665" y="-7" on="0"/>
        <pt x="664" y="-9" on="1"/>
        <pt x="659" y="-7" on="0"/>
        <pt x="650" y="-7" on="0"/>
        <pt x="645" y="-6" on="1"/>
        <pt x="643" y="6" on="0"/>
        <pt x="642" y="9" on="0"/>
        <pt x="643" y="11" on="1"/>
        <pt x="649" y="19" on="0"/>
        <pt x="660" y="18" on="1"/>
      </contour>
      <contour>
        <pt x="72" y="16" on="1"/>
        <pt x="72" y="10" on="0"/>
        <pt x="74" y="4" on="0"/>
        <pt x="72" y="-1" on="1"/>
        <pt x="70" y="-3" on="0"/>
        <pt x="62" y="-3" on="0"/>
        <pt x="62" y="-7" on="1"/>
        <pt x="42" y="-9" on="0"/>
        <pt x="40" y="15" on="0"/>
        <pt x="48" y="22" on="1"/>
        <pt x="58" y="19" on="0"/>
        <pt x="59" y="20" on="1"/>
        <pt x="64" y="22" on="0"/>
        <pt x="68" y="18" on="0"/>
      </contour>
      <contour>
        <pt x="411" y="833" on="1"/>
        <pt x="403" y="831" on="0"/>
        <pt x="394" y="824" on="0"/>
        <pt x="387" y="829" on="1"/>
        <pt x="380" y="836" on="0"/>
        <pt x="380" y="840" on="0"/>
        <pt x="378" y="841" on="1"/>
        <pt x="383" y="853" on="0"/>
        <pt x="387" y="855" on="0"/>
        <pt x="388" y="857" on="1"/>
        <pt x="393" y="858" on="0"/>
        <pt x="399" y="855" on="0"/>
        <pt x="402" y="857" on="1"/>
        <pt x="410" y="850" on="0"/>
        <pt x="410" y="847" on="0"/>
        <pt x="412" y="845" on="1"/>
      </contour>
      <contour>
        <pt x="339" y="825" on="1"/>
        <pt x="331" y="833" on="0"/>
        <pt x="329" y="837" on="1"/>
        <pt x="328" y="845" on="0"/>
        <pt x="340" y="856" on="0"/>
        <pt x="345" y="854" on="1"/>
        <pt x="357" y="847" on="0"/>
        <pt x="358" y="841" on="0"/>
        <pt x="359" y="835" on="1"/>
        <pt x="351" y="827" on="0"/>
      </contour>
      <contour>
        <pt x="322" y="815" on="1"/>
        <pt x="325" y="809" on="0"/>
        <pt x="323" y="796" on="0"/>
        <pt x="325" y="790" on="1"/>
        <pt x="320" y="788" on="0"/>
        <pt x="309" y="787" on="0"/>
        <pt x="304" y="787" on="1"/>
        <pt x="301" y="788" on="0"/>
        <pt x="299" y="794" on="0"/>
        <pt x="296" y="796" on="1"/>
        <pt x="296" y="800" on="0"/>
        <pt x="295" y="805" on="0"/>
        <pt x="296" y="807" on="1"/>
        <pt x="302" y="818" on="0"/>
        <pt x="305" y="817" on="0"/>
        <pt x="307" y="819" on="1"/>
        <pt x="314" y="818" on="0"/>
        <pt x="318" y="815" on="0"/>
      </contour>
      <contour>
        <pt x="440" y="786" on="1"/>
        <pt x="434" y="784" on="0"/>
        <pt x="424" y="787" on="0"/>
        <pt x="419" y="790" on="1"/>
        <pt x="418" y="794" on="0"/>
        <pt x="416" y="801" on="0"/>
        <pt x="416" y="806" on="1"/>
        <pt x="418" y="810" on="0"/>
        <pt x="424" y="812" on="0"/>
        <pt x="426" y="816" on="1"/>
        <pt x="430" y="817" on="0"/>
        <pt x="435" y="815" on="0"/>
        <pt x="439" y="815" on="1"/>
        <pt x="446" y="806" on="0"/>
        <pt x="447" y="805" on="1"/>
        <pt x="450" y="802" on="0"/>
        <pt x="443" y="791" on="0"/>
      </contour>
      <contour>
        <pt x="336" y="756" on="1"/>
        <pt x="332" y="743" on="0"/>
        <pt x="327" y="742" on="0"/>
        <pt x="324" y="740" on="1"/>
        <pt x="317" y="737" on="0"/>
        <pt x="308" y="742" on="0"/>
        <pt x="303" y="741" on="1"/>
        <pt x="301" y="744" on="0"/>
        <pt x="302" y="753" on="0"/>
        <pt x="300" y="755" on="1"/>
        <pt x="303" y="760" on="0"/>
        <pt x="307" y="764" on="1"/>
        <pt x="321" y="766" on="0"/>
        <pt x="328" y="767" on="1"/>
        <pt x="330" y="764" on="0"/>
        <pt x="336" y="761" on="0"/>
      </contour>
      <contour>
        <pt x="431" y="761" on="1"/>
        <pt x="431" y="757" on="0"/>
        <pt x="436" y="752" on="0"/>
        <pt x="436" y="748" on="1"/>
        <pt x="435" y="740" on="0"/>
        <pt x="422" y="733" on="0"/>
        <pt x="414" y="735" on="1"/>
        <pt x="409" y="742" on="0"/>
        <pt x="407" y="744" on="0"/>
        <pt x="407" y="746" on="1"/>
        <pt x="406" y="751" on="0"/>
        <pt x="408" y="757" on="0"/>
        <pt x="409" y="761" on="1"/>
        <pt x="414" y="764" on="0"/>
        <pt x="427" y="765" on="0"/>
      </contour>
    </TTGlyph>
    <TTGlyph name="Atilde" xMin="40" yMin="-9" xMax="674" yMax="922">
      <component glyphName="A" x="0" y="0" flags="0x204"/>
      <component glyphName="tilde" x="-30" y="215" flags="0x4"/>
    </TTGlyph>
    <TTGlyph name="B" xMin="92" yMin="-11" xMax="617" yMax="744">
      <contour>
        <pt x="287" y="728" on="1"/>
        <pt x="285" y="722" on="0"/>
        <pt x="280" y="719" on="1"/>
        <pt x="272" y="720" on="0"/>
        <pt x="269" y="718" on="0"/>
        <pt x="268" y="718" on="1"/>
        <pt x="259" y="727" on="0"/>
        <pt x="257" y="733" on="0"/>
        <pt x="258" y="736" on="1"/>
        <pt x="260" y="744" on="0"/>
        <pt x="276" y="743" on="0"/>
        <pt x="283" y="739" on="1"/>
        <pt x="283" y="734" on="0"/>
        <pt x="285" y="732" on="0"/>
      </contour>
      <contour>
        <pt x="207" y="735" on="1"/>
        <pt x="208" y="729" on="0"/>
        <pt x="205" y="722" on="0"/>
        <pt x="204" y="717" on="1"/>
        <pt x="199" y="717" on="0"/>
        <pt x="192" y="714" on="0"/>
        <pt x="187" y="714" on="1"/>
        <pt x="184" y="719" on="0"/>
        <pt x="177" y="728" on="0"/>
        <pt x="179" y="730" on="1"/>
        <pt x="183" y="738" on="0"/>
        <pt x="188" y="739" on="0"/>
        <pt x="190" y="741" on="1"/>
        <pt x="195" y="741" on="0"/>
        <pt x="199" y="737" on="0"/>
        <pt x="204" y="738" on="1"/>
      </contour>
      <contour>
        <pt x="362" y="741" on="1"/>
        <pt x="374" y="740" on="0"/>
        <pt x="379" y="730" on="0"/>
        <pt x="383" y="728" on="1"/>
        <pt x="383" y="720" on="0"/>
        <pt x="377" y="717" on="0"/>
        <pt x="376" y="712" on="1"/>
        <pt x="366" y="713" on="0"/>
        <pt x="366" y="715" on="0"/>
        <pt x="365" y="715" on="1"/>
        <pt x="354" y="719" on="0"/>
        <pt x="354" y="734" on="0"/>
        <pt x="362" y="738" on="1"/>
      </contour>
      <contour>
        <pt x="133" y="722" on="1"/>
        <pt x="132" y="718" on="0"/>
        <pt x="134" y="713" on="0"/>
        <pt x="132" y="711" on="1"/>
        <pt x="128" y="707" on="0"/>
        <pt x="126" y="700" on="0"/>
        <pt x="123" y="699" on="1"/>
        <pt x="119" y="698" on="0"/>
        <pt x="116" y="700" on="0"/>
        <pt x="112" y="700" on="1"/>
        <pt x="111" y="705" on="0"/>
        <pt x="105" y="707" on="0"/>
        <pt x="103" y="711" on="1"/>
        <pt x="105" y="715" on="0"/>
        <pt x="106" y="723" on="0"/>
        <pt x="110" y="725" on="1"/>
        <pt x="111" y="725" on="0"/>
        <pt x="120" y="727" on="0"/>
        <pt x="122" y="727" on="1"/>
        <pt x="126" y="727" on="0"/>
        <pt x="130" y="723" on="0"/>
      </contour>
      <contour>
        <pt x="467" y="716" on="1"/>
        <pt x="466" y="711" on="0"/>
        <pt x="464" y="708" on="0"/>
        <pt x="466" y="702" on="1"/>
        <pt x="458" y="697" on="0"/>
        <pt x="446" y="694" on="0"/>
        <pt x="441" y="698" on="1"/>
        <pt x="439" y="706" on="0"/>
        <pt x="439" y="719" on="0"/>
        <pt x="444" y="723" on="1"/>
        <pt x="452" y="727" on="0"/>
        <pt x="462" y="719" on="0"/>
      </contour>
      <contour>
        <pt x="510" y="684" on="1"/>
        <pt x="512" y="688" on="0"/>
        <pt x="519" y="692" on="0"/>
        <pt x="523" y="694" on="1"/>
        <pt x="529" y="692" on="0"/>
        <pt x="539" y="684" on="0"/>
        <pt x="539" y="678" on="1"/>
        <pt x="533" y="669" on="0"/>
        <pt x="526" y="664" on="0"/>
        <pt x="522" y="665" on="1"/>
        <pt x="508" y="665" on="0"/>
      </contour>
      <contour>
        <pt x="122" y="645" on="1"/>
        <pt x="127" y="640" on="0"/>
        <pt x="131" y="637" on="0"/>
        <pt x="133" y="635" on="1"/>
        <pt x="131" y="625" on="0"/>
        <pt x="125" y="616" on="0"/>
        <pt x="120" y="614" on="1"/>
        <pt x="115" y="612" on="0"/>
        <pt x="108" y="620" on="1"/>
        <pt x="109" y="628" on="0"/>
        <pt x="104" y="631" on="0"/>
        <pt x="104" y="633" on="1"/>
        <pt x="105" y="638" on="0"/>
        <pt x="114" y="645" on="0"/>
        <pt x="120" y="643" on="1"/>
      </contour>
      <contour>
        <pt x="585" y="617" on="1"/>
        <pt x="580" y="608" on="0"/>
        <pt x="585" y="607" on="0"/>
        <pt x="585" y="604" on="1"/>
        <pt x="578" y="595" on="0"/>
        <pt x="576" y="595" on="0"/>
        <pt x="571" y="593" on="1"/>
        <pt x="564" y="593" on="0"/>
        <pt x="561" y="597" on="0"/>
        <pt x="558" y="597" on="1"/>
        <pt x="555" y="605" on="0"/>
        <pt x="556" y="615" on="1"/>
        <pt x="564" y="617" on="0"/>
        <pt x="565" y="622" on="1"/>
        <pt x="570" y="621" on="0"/>
        <pt x="579" y="616" on="0"/>
      </contour>
      <contour>
        <pt x="123" y="521" on="1"/>
        <pt x="118" y="523" on="0"/>
        <pt x="113" y="523" on="0"/>
        <pt x="108" y="525" on="1"/>
        <pt x="102" y="532" on="0"/>
        <pt x="102" y="535" on="1"/>
        <pt x="101" y="545" on="0"/>
        <pt x="105" y="548" on="0"/>
        <pt x="103" y="550" on="1"/>
        <pt x="108" y="552" on="0"/>
        <pt x="116" y="554" on="1"/>
        <pt x="131" y="547" on="0"/>
        <pt x="132" y="540" on="1"/>
        <pt x="133" y="534" on="0"/>
        <pt x="126" y="524" on="0"/>
      </contour>
      <contour>
        <pt x="588" y="538" on="1"/>
        <pt x="586" y="533" on="0"/>
        <pt x="585" y="526" on="0"/>
        <pt x="584" y="521" on="1"/>
        <pt x="568" y="513" on="0"/>
        <pt x="557" y="522" on="0"/>
        <pt x="553" y="527" on="1"/>
        <pt x="557" y="537" on="0"/>
        <pt x="559" y="539" on="1"/>
        <pt x="571" y="543" on="0"/>
        <pt x="577" y="541" on="0"/>
        <pt x="578" y="539" on="1"/>
      </contour>
      <contour>
        <pt x="554" y="453" on="1"/>
        <pt x="555" y="448" on="0"/>
        <pt x="554" y="444" on="0"/>
        <pt x="553" y="442" on="1"/>
        <pt x="549" y="435" on="0"/>
        <pt x="546" y="431" on="0"/>
        <pt x="543" y="430" on="1"/>
        <pt x="538" y="430" on="0"/>
        <pt x="531" y="437" on="1"/>
        <pt x="529" y="440" on="0"/>
        <pt x="526" y="444" on="0"/>
        <pt x="528" y="450" on="1"/>
        <pt x="534" y="458" on="0"/>
        <pt x="541" y="462" on="0"/>
        <pt x="546" y="461" on="1"/>
        <pt x="549" y="460" on="0"/>
        <pt x="552" y="455" on="0"/>
      </contour>
      <contour>
        <pt x="126" y="457" on="1"/>
        <pt x="130" y="450" on="0"/>
        <pt x="131" y="447" on="1"/>
        <pt x="128" y="439" on="0"/>
        <pt x="116" y="427" on="0"/>
        <pt x="104" y="429" on="1"/>
        <pt x="98" y="440" on="0"/>
        <pt x="97" y="445" on="0"/>
        <pt x="98" y="450" on="1"/>
        <pt x="101" y="453" on="0"/>
        <pt x="106" y="458" on="0"/>
        <pt x="111" y="459" on="1"/>
        <pt x="114" y="459" on="0"/>
        <pt x="121" y="455" on="0"/>
      </contour>
      <contour>
        <pt x="470" y="392" on="1"/>
        <pt x="467" y="396" on="0"/>
        <pt x="463" y="408" on="0"/>
        <pt x="465" y="414" on="1"/>
        <pt x="470" y="419" on="0"/>
        <pt x="483" y="421" on="0"/>
        <pt x="488" y="416" on="1"/>
        <pt x="490" y="409" on="0"/>
        <pt x="493" y="405" on="0"/>
        <pt x="492" y="400" on="1"/>
        <pt x="490" y="397" on="0"/>
        <pt x="485" y="393" on="0"/>
        <pt x="483" y="391" on="1"/>
        <pt x="481" y="392" on="0"/>
        <pt x="472" y="393" on="0"/>
      </contour>
      <contour>
        <pt x="396" y="392" on="1"/>
        <pt x="398" y="387" on="0"/>
        <pt x="397" y="381" on="0"/>
        <pt x="397" y="376" on="1"/>
        <pt x="394" y="374" on="0"/>
        <pt x="389" y="369" on="0"/>
        <pt x="386" y="368" on="1"/>
        <pt x="375" y="369" on="0"/>
        <pt x="369" y="377" on="0"/>
        <pt x="368" y="380" on="1"/>
        <pt x="368" y="383" on="0"/>
        <pt x="371" y="388" on="0"/>
        <pt x="370" y="392" on="1"/>
        <pt x="376" y="394" on="0"/>
        <pt x="390" y="396" on="0"/>
      </contour>
      <contour>
        <pt x="310" y="390" on="1"/>
        <pt x="310" y="385" on="0"/>
        <pt x="312" y="377" on="0"/>
        <pt x="311" y="372" on="1"/>
        <pt x="308" y="367" on="0"/>
        <pt x="301" y="362" on="0"/>
        <pt x="299" y="361" on="1"/>
        <pt x="297" y="361" on="0"/>
        <pt x="290" y="365" on="0"/>
        <pt x="288" y="367" on="1"/>
        <pt x="285" y="375" on="0"/>
        <pt x="282" y="382" on="0"/>
        <pt x="284" y="387" on="1"/>
        <pt x="288" y="390" on="0"/>
        <pt x="299" y="392" on="1"/>
        <pt x="307" y="387" on="0"/>
        <pt x="308" y="391" on="0"/>
      </contour>
      <contour>
        <pt x="193" y="379" on="1"/>
        <pt x="197" y="383" on="0"/>
        <pt x="203" y="387" on="0"/>
        <pt x="207" y="388" on="1"/>
        <pt x="219" y="385" on="0"/>
        <pt x="221" y="383" on="1"/>
        <pt x="222" y="375" on="0"/>
        <pt x="221" y="369" on="0"/>
        <pt x="219" y="367" on="1"/>
        <pt x="213" y="360" on="0"/>
        <pt x="207" y="356" on="0"/>
        <pt x="203" y="358" on="1"/>
        <pt x="195" y="366" on="1"/>
        <pt x="195" y="369" on="0"/>
        <pt x="191" y="375" on="0"/>
      </contour>
      <contour>
        <pt x="132" y="370" on="1"/>
        <pt x="130" y="367" on="0"/>
        <pt x="131" y="361" on="0"/>
        <pt x="131" y="359" on="1"/>
        <pt x="130" y="356" on="0"/>
        <pt x="121" y="349" on="0"/>
        <pt x="115" y="349" on="1"/>
        <pt x="106" y="355" on="0"/>
        <pt x="103" y="359" on="0"/>
        <pt x="102" y="360" on="1"/>
        <pt x="101" y="368" on="0"/>
        <pt x="109" y="378" on="0"/>
        <pt x="113" y="382" on="1"/>
        <pt x="118" y="380" on="0"/>
        <pt x="127" y="373" on="0"/>
      </contour>
      <contour>
        <pt x="508" y="366" on="1"/>
        <pt x="506" y="362" on="0"/>
        <pt x="508" y="356" on="0"/>
        <pt x="508" y="353" on="1"/>
        <pt x="502" y="347" on="0"/>
        <pt x="489" y="347" on="1"/>
        <pt x="486" y="350" on="0"/>
        <pt x="481" y="355" on="0"/>
        <pt x="481" y="359" on="1"/>
        <pt x="481" y="366" on="0"/>
        <pt x="490" y="373" on="0"/>
        <pt x="495" y="376" on="1"/>
        <pt x="504" y="372" on="0"/>
        <pt x="507" y="367" on="0"/>
      </contour>
      <contour>
        <pt x="563" y="317" on="1"/>
        <pt x="562" y="318" on="0"/>
        <pt x="572" y="316" on="0"/>
        <pt x="574" y="314" on="1"/>
        <pt x="584" y="309" on="0"/>
        <pt x="577" y="295" on="1"/>
        <pt x="571" y="294" on="0"/>
        <pt x="567" y="288" on="1"/>
        <pt x="560" y="289" on="0"/>
        <pt x="553" y="292" on="0"/>
        <pt x="551" y="299" on="1"/>
        <pt x="549" y="307" on="0"/>
        <pt x="551" y="310" on="1"/>
        <pt x="558" y="315" on="0"/>
        <pt x="559" y="317" on="0"/>
      </contour>
      <contour>
        <pt x="109" y="262" on="1"/>
        <pt x="104" y="261" on="0"/>
        <pt x="99" y="265" on="0"/>
        <pt x="95" y="265" on="1"/>
        <pt x="93" y="270" on="0"/>
        <pt x="92" y="278" on="0"/>
        <pt x="94" y="285" on="1"/>
        <pt x="97" y="287" on="0"/>
        <pt x="104" y="290" on="0"/>
        <pt x="106" y="292" on="1"/>
        <pt x="117" y="290" on="0"/>
        <pt x="118" y="289" on="1"/>
        <pt x="121" y="280" on="0"/>
        <pt x="120" y="276" on="0"/>
        <pt x="121" y="271" on="1"/>
        <pt x="111" y="265" on="0"/>
        <pt x="110" y="263" on="0"/>
      </contour>
      <contour>
        <pt x="617" y="223" on="1"/>
        <pt x="615" y="221" on="0"/>
        <pt x="615" y="212" on="0"/>
        <pt x="614" y="208" on="1"/>
        <pt x="612" y="206" on="0"/>
        <pt x="605" y="205" on="0"/>
        <pt x="603" y="203" on="1"/>
        <pt x="598" y="204" on="0"/>
        <pt x="593" y="210" on="0"/>
        <pt x="588" y="211" on="1"/>
        <pt x="587" y="218" on="0"/>
        <pt x="589" y="226" on="0"/>
        <pt x="591" y="231" on="1"/>
        <pt x="612" y="232" on="0"/>
      </contour>
      <contour>
        <pt x="122" y="199" on="1"/>
        <pt x="126" y="192" on="0"/>
        <pt x="122" y="179" on="0"/>
        <pt x="118" y="175" on="1"/>
        <pt x="113" y="175" on="0"/>
        <pt x="105" y="173" on="0"/>
        <pt x="101" y="174" on="1"/>
        <pt x="96" y="181" on="0"/>
        <pt x="95" y="189" on="0"/>
        <pt x="96" y="191" on="1"/>
        <pt x="96" y="194" on="0"/>
        <pt x="100" y="199" on="0"/>
        <pt x="101" y="201" on="1"/>
        <pt x="109" y="203" on="0"/>
        <pt x="117" y="201" on="0"/>
      </contour>
      <contour>
        <pt x="586" y="114" on="1"/>
        <pt x="586" y="118" on="0"/>
        <pt x="581" y="120" on="0"/>
        <pt x="580" y="124" on="1"/>
        <pt x="579" y="129" on="0"/>
        <pt x="582" y="135" on="0"/>
        <pt x="583" y="139" on="1"/>
        <pt x="586" y="140" on="0"/>
        <pt x="593" y="143" on="0"/>
        <pt x="596" y="142" on="1"/>
        <pt x="598" y="142" on="0"/>
        <pt x="608" y="133" on="0"/>
        <pt x="608" y="130" on="1"/>
        <pt x="610" y="123" on="0"/>
        <pt x="595" y="111" on="0"/>
      </contour>
      <contour>
        <pt x="125" y="110" on="1"/>
        <pt x="124" y="101" on="0"/>
        <pt x="124" y="100" on="0"/>
        <pt x="123" y="95" on="1"/>
        <pt x="114" y="89" on="0"/>
        <pt x="113" y="91" on="0"/>
        <pt x="112" y="91" on="1"/>
        <pt x="105" y="91" on="0"/>
        <pt x="102" y="95" on="0"/>
        <pt x="98" y="96" on="1"/>
        <pt x="95" y="105" on="0"/>
        <pt x="101" y="114" on="1"/>
        <pt x="106" y="119" on="0"/>
        <pt x="112" y="119" on="1"/>
        <pt x="118" y="116" on="0"/>
        <pt x="125" y="114" on="0"/>
      </contour>
      <contour>
        <pt x="570" y="54" on="1"/>
        <pt x="572" y="46" on="0"/>
        <pt x="566" y="36" on="0"/>
        <pt x="561" y="32" on="1"/>
        <pt x="550" y="29" on="0"/>
        <pt x="543" y="44" on="0"/>
        <pt x="537" y="48" on="1"/>
        <pt x="543" y="55" on="0"/>
        <pt x="547" y="59" on="0"/>
        <pt x="548" y="63" on="1"/>
        <pt x="556" y="62" on="0"/>
        <pt x="565" y="57" on="0"/>
      </contour>
      <contour>
        <pt x="126" y="20" on="1"/>
        <pt x="125" y="18" on="0"/>
        <pt x="123" y="10" on="0"/>
        <pt x="121" y="8" on="1"/>
        <pt x="112" y="4" on="0"/>
        <pt x="105" y="4" on="0"/>
        <pt x="103" y="6" on="1"/>
        <pt x="96" y="14" on="0"/>
        <pt x="96" y="18" on="1"/>
        <pt x="95" y="23" on="0"/>
        <pt x="99" y="30" on="0"/>
        <pt x="101" y="34" on="1"/>
        <pt x="106" y="32" on="0"/>
        <pt x="115" y="35" on="0"/>
        <pt x="120" y="33" on="1"/>
        <pt x="122" y="30" on="0"/>
        <pt x="124" y="23" on="0"/>
      </contour>
      <contour>
        <pt x="475" y="2" on="1"/>
        <pt x="471" y="2" on="0"/>
        <pt x="466" y="4" on="0"/>
        <pt x="461" y="3" on="1"/>
        <pt x="454" y="15" on="0"/>
        <pt x="457" y="27" on="1"/>
        <pt x="464" y="32" on="0"/>
        <pt x="470" y="32" on="1"/>
        <pt x="473" y="31" on="0"/>
        <pt x="480" y="27" on="0"/>
        <pt x="482" y="25" on="1"/>
        <pt x="484" y="12" on="0"/>
        <pt x="479" y="10" on="1"/>
      </contour>
      <contour>
        <pt x="381" y="25" on="1"/>
        <pt x="385" y="24" on="0"/>
        <pt x="389" y="19" on="0"/>
        <pt x="392" y="18" on="1"/>
        <pt x="394" y="7" on="0"/>
        <pt x="393" y="7" on="1"/>
        <pt x="387" y="-4" on="0"/>
        <pt x="386" y="-4" on="1"/>
        <pt x="374" y="-6" on="0"/>
        <pt x="366" y="2" on="0"/>
        <pt x="365" y="4" on="1"/>
        <pt x="362" y="12" on="0"/>
        <pt x="373" y="24" on="0"/>
      </contour>
      <contour>
        <pt x="302" y="22" on="1"/>
        <pt x="304" y="19" on="0"/>
        <pt x="304" y="10" on="0"/>
        <pt x="304" y="6" on="1"/>
        <pt x="301" y="-4" on="0"/>
        <pt x="297" y="-3" on="0"/>
        <pt x="299" y="-5" on="1"/>
        <pt x="294" y="-7" on="0"/>
        <pt x="290" y="-5" on="0"/>
        <pt x="285" y="-5" on="1"/>
        <pt x="276" y="2" on="0"/>
        <pt x="278" y="6" on="0"/>
        <pt x="274" y="6" on="1"/>
        <pt x="278" y="19" on="0"/>
        <pt x="285" y="24" on="0"/>
        <pt x="291" y="24" on="1"/>
        <pt x="293" y="24" on="0"/>
        <pt x="298" y="20" on="0"/>
      </contour>
      <contour>
        <pt x="204" y="14" on="1"/>
        <pt x="209" y="5" on="0"/>
        <pt x="207" y="-1" on="1"/>
        <pt x="203" y="-6" on="0"/>
        <pt x="195" y="-11" on="0"/>
        <pt x="193" y="-11" on="1"/>
        <pt x="181" y="-6" on="0"/>
        <pt x="181" y="-5" on="0"/>
        <pt x="179" y="-2" on="1"/>
        <pt x="176" y="4" on="0"/>
        <pt x="179" y="9" on="0"/>
        <pt x="178" y="12" on="1"/>
        <pt x="182" y="18" on="0"/>
        <pt x="198" y="17" on="0"/>
      </contour>
    </TTGlyph>
    <TTGlyph name="C" xMin="60" yMin="-18" xMax="650" yMax="757">
      <contour>
        <pt x="434" y="755" on="1"/>
        <pt x="436" y="751" on="0"/>
        <pt x="439" y="744" on="0"/>
        <pt x="437" y="739" on="1"/>
        <pt x="436" y="732" on="0"/>
        <pt x="429" y="729" on="1"/>
        <pt x="416" y="726" on="0"/>
        <pt x="407" y="739" on="0"/>
        <pt x="410" y="745" on="1"/>
        <pt x="420" y="757" on="0"/>
      </contour>
      <contour>
        <pt x="341" y="751" on="1"/>
        <pt x="341" y="746" on="0"/>
        <pt x="345" y="743" on="0"/>
        <pt x="347" y="741" on="1"/>
        <pt x="345" y="738" on="0"/>
        <pt x="348" y="731" on="0"/>
        <pt x="346" y="728" on="1"/>
        <pt x="345" y="724" on="0"/>
        <pt x="340" y="722" on="0"/>
        <pt x="339" y="719" on="1"/>
        <pt x="336" y="720" on="0"/>
        <pt x="329" y="718" on="0"/>
        <pt x="325" y="720" on="1"/>
        <pt x="323" y="724" on="0"/>
        <pt x="317" y="727" on="0"/>
        <pt x="317" y="731" on="1"/>
        <pt x="315" y="740" on="0"/>
        <pt x="331" y="750" on="0"/>
      </contour>
      <contour>
        <pt x="521" y="728" on="1"/>
        <pt x="519" y="722" on="0"/>
        <pt x="518" y="712" on="0"/>
        <pt x="513" y="709" on="1"/>
        <pt x="498" y="709" on="1"/>
        <pt x="496" y="712" on="0"/>
        <pt x="495" y="719" on="0"/>
        <pt x="492" y="721" on="1"/>
        <pt x="494" y="731" on="0"/>
        <pt x="498" y="733" on="0"/>
        <pt x="496" y="735" on="1"/>
        <pt x="505" y="736" on="0"/>
        <pt x="506" y="739" on="0"/>
        <pt x="509" y="738" on="1"/>
        <pt x="514" y="737" on="0"/>
        <pt x="519" y="730" on="0"/>
      </contour>
      <contour>
        <pt x="234" y="716" on="1"/>
        <pt x="239" y="715" on="0"/>
        <pt x="244" y="710" on="0"/>
        <pt x="249" y="710" on="1"/>
        <pt x="251" y="701" on="0"/>
        <pt x="250" y="698" on="0"/>
        <pt x="252" y="695" on="1"/>
        <pt x="248" y="687" on="0"/>
        <pt x="239" y="682" on="0"/>
        <pt x="237" y="682" on="1"/>
        <pt x="224" y="686" on="1"/>
        <pt x="220" y="693" on="0"/>
        <pt x="219" y="695" on="0"/>
        <pt x="219" y="697" on="1"/>
        <pt x="223" y="708" on="0"/>
        <pt x="224" y="709" on="1"/>
        <pt x="230" y="714" on="0"/>
        <pt x="234" y="712" on="0"/>
      </contour>
      <contour>
        <pt x="585" y="672" on="1"/>
        <pt x="581" y="670" on="0"/>
        <pt x="573" y="665" on="0"/>
        <pt x="571" y="662" on="1"/>
        <pt x="561" y="666" on="0"/>
        <pt x="561" y="667" on="1"/>
        <pt x="558" y="672" on="0"/>
        <pt x="554" y="679" on="0"/>
        <pt x="556" y="683" on="1"/>
        <pt x="570" y="693" on="0"/>
        <pt x="580" y="692" on="1"/>
        <pt x="580" y="687" on="0"/>
        <pt x="585" y="684" on="0"/>
        <pt x="586" y="682" on="1"/>
      </contour>
      <contour>
        <pt x="622" y="618" on="1"/>
        <pt x="621" y="622" on="0"/>
        <pt x="614" y="625" on="0"/>
        <pt x="613" y="628" on="1"/>
        <pt x="611" y="639" on="0"/>
        <pt x="627" y="651" on="0"/>
        <pt x="635" y="648" on="1"/>
        <pt x="641" y="644" on="0"/>
        <pt x="644" y="639" on="0"/>
        <pt x="643" y="632" on="1"/>
        <pt x="642" y="630" on="0"/>
        <pt x="640" y="623" on="0"/>
        <pt x="637" y="621" on="1"/>
        <pt x="631" y="618" on="0"/>
      </contour>
      <contour>
        <pt x="179" y="631" on="1"/>
        <pt x="177" y="626" on="0"/>
        <pt x="170" y="616" on="0"/>
        <pt x="164" y="614" on="1"/>
        <pt x="155" y="617" on="0"/>
        <pt x="152" y="618" on="0"/>
        <pt x="150" y="620" on="1"/>
        <pt x="144" y="636" on="0"/>
        <pt x="155" y="641" on="0"/>
        <pt x="159" y="646" on="1"/>
        <pt x="171" y="642" on="0"/>
      </contour>
      <contour>
        <pt x="133" y="559" on="1"/>
        <pt x="138" y="548" on="0"/>
        <pt x="125" y="534" on="0"/>
        <pt x="117" y="535" on="1"/>
        <pt x="106" y="536" on="0"/>
        <pt x="105" y="554" on="0"/>
        <pt x="109" y="565" on="1"/>
        <pt x="114" y="566" on="0"/>
        <pt x="129" y="563" on="0"/>
      </contour>
      <contour>
        <pt x="71" y="447" on="1"/>
        <pt x="69" y="452" on="0"/>
        <pt x="62" y="459" on="0"/>
        <pt x="62" y="465" on="1"/>
        <pt x="70" y="474" on="0"/>
        <pt x="72" y="474" on="0"/>
        <pt x="74" y="476" on="1"/>
        <pt x="76" y="478" on="0"/>
        <pt x="80" y="479" on="0"/>
        <pt x="86" y="478" on="1"/>
        <pt x="88" y="474" on="0"/>
        <pt x="92" y="469" on="0"/>
        <pt x="94" y="466" on="1"/>
        <pt x="94" y="461" on="0"/>
        <pt x="90" y="454" on="0"/>
        <pt x="88" y="451" on="1"/>
        <pt x="83" y="449" on="0"/>
        <pt x="76" y="449" on="0"/>
      </contour>
      <contour>
        <pt x="90" y="351" on="1"/>
        <pt x="83" y="346" on="0"/>
        <pt x="81" y="345" on="0"/>
        <pt x="79" y="345" on="1"/>
        <pt x="68" y="342" on="0"/>
        <pt x="60" y="354" on="0"/>
        <pt x="62" y="361" on="1"/>
        <pt x="67" y="369" on="0"/>
        <pt x="66" y="373" on="0"/>
        <pt x="68" y="374" on="1"/>
        <pt x="77" y="377" on="0"/>
        <pt x="94" y="369" on="0"/>
        <pt x="92" y="360" on="1"/>
      </contour>
      <contour>
        <pt x="110" y="266" on="1"/>
        <pt x="110" y="260" on="0"/>
        <pt x="105" y="254" on="0"/>
        <pt x="103" y="249" on="1"/>
        <pt x="98" y="247" on="0"/>
        <pt x="92" y="245" on="0"/>
        <pt x="88" y="247" on="1"/>
        <pt x="83" y="249" on="0"/>
        <pt x="77" y="257" on="1"/>
        <pt x="79" y="262" on="0"/>
        <pt x="77" y="267" on="0"/>
        <pt x="79" y="271" on="1"/>
        <pt x="90" y="275" on="0"/>
        <pt x="96" y="278" on="0"/>
        <pt x="99" y="276" on="1"/>
        <pt x="102" y="272" on="0"/>
        <pt x="108" y="268" on="0"/>
      </contour>
      <contour>
        <pt x="143" y="155" on="1"/>
        <pt x="140" y="135" on="0"/>
        <pt x="120" y="138" on="1"/>
        <pt x="114" y="146" on="0"/>
        <pt x="113" y="148" on="0"/>
        <pt x="113" y="150" on="1"/>
        <pt x="111" y="154" on="0"/>
        <pt x="111" y="157" on="0"/>
        <pt x="113" y="162" on="1"/>
        <pt x="126" y="169" on="0"/>
        <pt x="135" y="166" on="1"/>
        <pt x="139" y="158" on="0"/>
      </contour>
      <contour>
        <pt x="646" y="116" on="1"/>
        <pt x="647" y="111" on="0"/>
        <pt x="650" y="99" on="0"/>
        <pt x="646" y="94" on="1"/>
        <pt x="636" y="88" on="0"/>
        <pt x="637" y="87" on="0"/>
        <pt x="635" y="86" on="1"/>
        <pt x="626" y="83" on="0"/>
        <pt x="620" y="92" on="1"/>
        <pt x="616" y="95" on="0"/>
        <pt x="615" y="104" on="0"/>
        <pt x="616" y="106" on="1"/>
        <pt x="617" y="111" on="0"/>
        <pt x="624" y="115" on="0"/>
        <pt x="628" y="118" on="1"/>
        <pt x="633" y="117" on="0"/>
        <pt x="641" y="118" on="0"/>
      </contour>
      <contour>
        <pt x="225" y="60" on="1"/>
        <pt x="223" y="55" on="0"/>
        <pt x="218" y="48" on="0"/>
        <pt x="213" y="46" on="1"/>
        <pt x="198" y="51" on="0"/>
        <pt x="194" y="59" on="0"/>
        <pt x="198" y="67" on="1"/>
        <pt x="214" y="77" on="0"/>
        <pt x="222" y="67" on="0"/>
      </contour>
      <contour>
        <pt x="577" y="28" on="1"/>
        <pt x="572" y="27" on="0"/>
        <pt x="565" y="25" on="0"/>
        <pt x="561" y="26" on="1"/>
        <pt x="552" y="28" on="0"/>
        <pt x="551" y="48" on="0"/>
        <pt x="558" y="53" on="1"/>
        <pt x="564" y="56" on="0"/>
        <pt x="581" y="50" on="0"/>
        <pt x="583" y="43" on="1"/>
        <pt x="584" y="38" on="0"/>
        <pt x="579" y="33" on="0"/>
      </contour>
      <contour>
        <pt x="309" y="10" on="1"/>
        <pt x="308" y="6" on="0"/>
        <pt x="304" y="3" on="0"/>
        <pt x="305" y="-1" on="1"/>
        <pt x="298" y="-5" on="0"/>
        <pt x="288" y="-7" on="1"/>
        <pt x="271" y="-4" on="0"/>
        <pt x="275" y="10" on="1"/>
        <pt x="282" y="20" on="0"/>
        <pt x="284" y="23" on="0"/>
        <pt x="286" y="24" on="1"/>
        <pt x="289" y="22" on="0"/>
        <pt x="295" y="24" on="0"/>
        <pt x="299" y="23" on="1"/>
        <pt x="301" y="18" on="0"/>
        <pt x="307" y="12" on="0"/>
      </contour>
      <contour>
        <pt x="502" y="15" on="1"/>
        <pt x="503" y="10" on="0"/>
        <pt x="504" y="2" on="0"/>
        <pt x="503" y="-4" on="1"/>
        <pt x="494" y="-11" on="0"/>
        <pt x="492" y="-11" on="1"/>
        <pt x="484" y="-12" on="0"/>
        <pt x="476" y="-3" on="0"/>
        <pt x="473" y="2" on="1"/>
        <pt x="472" y="7" on="0"/>
        <pt x="478" y="9" on="0"/>
        <pt x="477" y="14" on="1"/>
        <pt x="480" y="15" on="0"/>
        <pt x="484" y="20" on="0"/>
        <pt x="486" y="22" on="1"/>
        <pt x="494" y="20" on="0"/>
        <pt x="497" y="15" on="0"/>
      </contour>
      <contour>
        <pt x="399" y="-17" on="1"/>
        <pt x="394" y="-16" on="0"/>
        <pt x="389" y="-18" on="0"/>
        <pt x="386" y="-18" on="1"/>
        <pt x="381" y="-13" on="0"/>
        <pt x="378" y="-8" on="0"/>
        <pt x="376" y="-5" on="1"/>
        <pt x="379" y="6" on="0"/>
        <pt x="386" y="13" on="1"/>
        <pt x="398" y="12" on="0"/>
        <pt x="398" y="12" on="1"/>
        <pt x="405" y="2" on="0"/>
        <pt x="406" y="2" on="1"/>
        <pt x="404" y="-9" on="0"/>
        <pt x="406" y="-10" on="0"/>
        <pt x="404" y="-10" on="1"/>
      </contour>
    </TTGlyph>
    <TTGlyph name="Ccedilla" xMin="60" yMin="-254" xMax="650" yMax="757">
      <contour>
        <pt x="434" y="755" on="1"/>
        <pt x="436" y="751" on="0"/>
        <pt x="439" y="744" on="0"/>
        <pt x="437" y="739" on="1"/>
        <pt x="436" y="732" on="0"/>
        <pt x="429" y="729" on="1"/>
        <pt x="416" y="726" on="0"/>
        <pt x="407" y="739" on="0"/>
        <pt x="410" y="745" on="1"/>
        <pt x="420" y="757" on="0"/>
      </contour>
      <contour>
        <pt x="341" y="751" on="1"/>
        <pt x="341" y="746" on="0"/>
        <pt x="345" y="743" on="0"/>
        <pt x="347" y="741" on="1"/>
        <pt x="345" y="738" on="0"/>
        <pt x="348" y="731" on="0"/>
        <pt x="346" y="728" on="1"/>
        <pt x="345" y="724" on="0"/>
        <pt x="340" y="722" on="0"/>
        <pt x="339" y="719" on="1"/>
        <pt x="336" y="720" on="0"/>
        <pt x="329" y="718" on="0"/>
        <pt x="325" y="720" on="1"/>
        <pt x="323" y="724" on="0"/>
        <pt x="317" y="727" on="0"/>
        <pt x="317" y="731" on="1"/>
        <pt x="315" y="740" on="0"/>
        <pt x="331" y="750" on="0"/>
      </contour>
      <contour>
        <pt x="521" y="728" on="1"/>
        <pt x="519" y="722" on="0"/>
        <pt x="518" y="712" on="0"/>
        <pt x="513" y="709" on="1"/>
        <pt x="498" y="709" on="1"/>
        <pt x="496" y="712" on="0"/>
        <pt x="495" y="719" on="0"/>
        <pt x="492" y="721" on="1"/>
        <pt x="494" y="731" on="0"/>
        <pt x="498" y="733" on="0"/>
        <pt x="496" y="735" on="1"/>
        <pt x="505" y="736" on="0"/>
        <pt x="506" y="739" on="0"/>
        <pt x="509" y="738" on="1"/>
        <pt x="514" y="737" on="0"/>
        <pt x="519" y="730" on="0"/>
      </contour>
      <contour>
        <pt x="234" y="716" on="1"/>
        <pt x="239" y="715" on="0"/>
        <pt x="244" y="710" on="0"/>
        <pt x="249" y="710" on="1"/>
        <pt x="251" y="701" on="0"/>
        <pt x="250" y="698" on="0"/>
        <pt x="252" y="695" on="1"/>
        <pt x="248" y="687" on="0"/>
        <pt x="239" y="682" on="0"/>
        <pt x="237" y="682" on="1"/>
        <pt x="224" y="686" on="1"/>
        <pt x="220" y="693" on="0"/>
        <pt x="219" y="695" on="0"/>
        <pt x="219" y="697" on="1"/>
        <pt x="223" y="708" on="0"/>
        <pt x="224" y="709" on="1"/>
        <pt x="230" y="714" on="0"/>
        <pt x="234" y="712" on="0"/>
      </contour>
      <contour>
        <pt x="585" y="672" on="1"/>
        <pt x="581" y="670" on="0"/>
        <pt x="573" y="665" on="0"/>
        <pt x="571" y="662" on="1"/>
        <pt x="561" y="666" on="0"/>
        <pt x="561" y="667" on="1"/>
        <pt x="558" y="672" on="0"/>
        <pt x="554" y="679" on="0"/>
        <pt x="556" y="683" on="1"/>
        <pt x="570" y="693" on="0"/>
        <pt x="580" y="692" on="1"/>
        <pt x="580" y="687" on="0"/>
        <pt x="585" y="684" on="0"/>
        <pt x="586" y="682" on="1"/>
      </contour>
      <contour>
        <pt x="622" y="618" on="1"/>
        <pt x="621" y="622" on="0"/>
        <pt x="614" y="625" on="0"/>
        <pt x="613" y="628" on="1"/>
        <pt x="611" y="639" on="0"/>
        <pt x="627" y="651" on="0"/>
        <pt x="635" y="648" on="1"/>
        <pt x="641" y="644" on="0"/>
        <pt x="644" y="639" on="0"/>
        <pt x="643" y="632" on="1"/>
        <pt x="642" y="630" on="0"/>
        <pt x="640" y="623" on="0"/>
        <pt x="637" y="621" on="1"/>
        <pt x="631" y="618" on="0"/>
      </contour>
      <contour>
        <pt x="179" y="631" on="1"/>
        <pt x="177" y="626" on="0"/>
        <pt x="170" y="616" on="0"/>
        <pt x="164" y="614" on="1"/>
        <pt x="155" y="617" on="0"/>
        <pt x="152" y="618" on="0"/>
        <pt x="150" y="620" on="1"/>
        <pt x="144" y="636" on="0"/>
        <pt x="155" y="641" on="0"/>
        <pt x="159" y="646" on="1"/>
        <pt x="171" y="642" on="0"/>
      </contour>
      <contour>
        <pt x="133" y="559" on="1"/>
        <pt x="138" y="548" on="0"/>
        <pt x="125" y="534" on="0"/>
        <pt x="117" y="535" on="1"/>
        <pt x="106" y="536" on="0"/>
        <pt x="105" y="554" on="0"/>
        <pt x="109" y="565" on="1"/>
        <pt x="114" y="566" on="0"/>
        <pt x="129" y="563" on="0"/>
      </contour>
      <contour>
        <pt x="71" y="447" on="1"/>
        <pt x="69" y="452" on="0"/>
        <pt x="62" y="459" on="0"/>
        <pt x="62" y="465" on="1"/>
        <pt x="70" y="474" on="0"/>
        <pt x="72" y="474" on="0"/>
        <pt x="74" y="476" on="1"/>
        <pt x="76" y="478" on="0"/>
        <pt x="80" y="479" on="0"/>
        <pt x="86" y="478" on="1"/>
        <pt x="88" y="474" on="0"/>
        <pt x="92" y="469" on="0"/>
        <pt x="94" y="466" on="1"/>
        <pt x="94" y="461" on="0"/>
        <pt x="90" y="454" on="0"/>
        <pt x="88" y="451" on="1"/>
        <pt x="83" y="449" on="0"/>
        <pt x="76" y="449" on="0"/>
      </contour>
      <contour>
        <pt x="90" y="351" on="1"/>
        <pt x="83" y="346" on="0"/>
        <pt x="81" y="345" on="0"/>
        <pt x="79" y="345" on="1"/>
        <pt x="68" y="342" on="0"/>
        <pt x="60" y="354" on="0"/>
        <pt x="62" y="361" on="1"/>
        <pt x="67" y="369" on="0"/>
        <pt x="66" y="373" on="0"/>
        <pt x="68" y="374" on="1"/>
        <pt x="77" y="377" on="0"/>
        <pt x="94" y="369" on="0"/>
        <pt x="92" y="360" on="1"/>
      </contour>
      <contour>
        <pt x="110" y="266" on="1"/>
        <pt x="110" y="260" on="0"/>
        <pt x="105" y="254" on="0"/>
        <pt x="103" y="249" on="1"/>
        <pt x="98" y="247" on="0"/>
        <pt x="92" y="245" on="0"/>
        <pt x="88" y="247" on="1"/>
        <pt x="83" y="249" on="0"/>
        <pt x="77" y="257" on="1"/>
        <pt x="79" y="262" on="0"/>
        <pt x="77" y="267" on="0"/>
        <pt x="79" y="271" on="1"/>
        <pt x="90" y="275" on="0"/>
        <pt x="96" y="278" on="0"/>
        <pt x="99" y="276" on="1"/>
        <pt x="102" y="272" on="0"/>
        <pt x="108" y="268" on="0"/>
      </contour>
      <contour>
        <pt x="143" y="155" on="1"/>
        <pt x="140" y="135" on="0"/>
        <pt x="120" y="138" on="1"/>
        <pt x="114" y="146" on="0"/>
        <pt x="113" y="148" on="0"/>
        <pt x="113" y="150" on="1"/>
        <pt x="111" y="154" on="0"/>
        <pt x="111" y="157" on="0"/>
        <pt x="113" y="162" on="1"/>
        <pt x="126" y="169" on="0"/>
        <pt x="135" y="166" on="1"/>
        <pt x="139" y="158" on="0"/>
      </contour>
      <contour>
        <pt x="646" y="116" on="1"/>
        <pt x="647" y="111" on="0"/>
        <pt x="650" y="99" on="0"/>
        <pt x="646" y="94" on="1"/>
        <pt x="636" y="88" on="0"/>
        <pt x="637" y="87" on="0"/>
        <pt x="635" y="86" on="1"/>
        <pt x="626" y="83" on="0"/>
        <pt x="620" y="92" on="1"/>
        <pt x="616" y="95" on="0"/>
        <pt x="615" y="104" on="0"/>
        <pt x="616" y="106" on="1"/>
        <pt x="617" y="111" on="0"/>
        <pt x="624" y="115" on="0"/>
        <pt x="628" y="118" on="1"/>
        <pt x="633" y="117" on="0"/>
        <pt x="641" y="118" on="0"/>
      </contour>
      <contour>
        <pt x="225" y="60" on="1"/>
        <pt x="223" y="55" on="0"/>
        <pt x="218" y="48" on="0"/>
        <pt x="213" y="46" on="1"/>
        <pt x="198" y="51" on="0"/>
        <pt x="194" y="59" on="0"/>
        <pt x="198" y="67" on="1"/>
        <pt x="214" y="77" on="0"/>
        <pt x="222" y="67" on="0"/>
      </contour>
      <contour>
        <pt x="577" y="28" on="1"/>
        <pt x="572" y="27" on="0"/>
        <pt x="565" y="25" on="0"/>
        <pt x="561" y="26" on="1"/>
        <pt x="552" y="28" on="0"/>
        <pt x="551" y="48" on="0"/>
        <pt x="558" y="53" on="1"/>
        <pt x="564" y="56" on="0"/>
        <pt x="581" y="50" on="0"/>
        <pt x="583" y="43" on="1"/>
        <pt x="584" y="38" on="0"/>
        <pt x="579" y="33" on="0"/>
      </contour>
      <contour>
        <pt x="309" y="10" on="1"/>
        <pt x="308" y="6" on="0"/>
        <pt x="304" y="3" on="0"/>
        <pt x="305" y="-1" on="1"/>
        <pt x="298" y="-5" on="0"/>
        <pt x="288" y="-7" on="1"/>
        <pt x="271" y="-4" on="0"/>
        <pt x="275" y="10" on="1"/>
        <pt x="282" y="20" on="0"/>
        <pt x="284" y="23" on="0"/>
        <pt x="286" y="24" on="1"/>
        <pt x="289" y="22" on="0"/>
        <pt x="295" y="24" on="0"/>
        <pt x="299" y="23" on="1"/>
        <pt x="301" y="18" on="0"/>
        <pt x="307" y="12" on="0"/>
      </contour>
      <contour>
        <pt x="502" y="15" on="1"/>
        <pt x="503" y="10" on="0"/>
        <pt x="504" y="2" on="0"/>
        <pt x="503" y="-4" on="1"/>
        <pt x="494" y="-11" on="0"/>
        <pt x="492" y="-11" on="1"/>
        <pt x="484" y="-12" on="0"/>
        <pt x="476" y="-3" on="0"/>
        <pt x="473" y="2" on="1"/>
        <pt x="472" y="7" on="0"/>
        <pt x="478" y="9" on="0"/>
        <pt x="477" y="14" on="1"/>
        <pt x="480" y="15" on="0"/>
        <pt x="484" y="20" on="0"/>
        <pt x="486" y="22" on="1"/>
        <pt x="494" y="20" on="0"/>
        <pt x="497" y="15" on="0"/>
      </contour>
      <contour>
        <pt x="399" y="-17" on="1"/>
        <pt x="394" y="-16" on="0"/>
        <pt x="389" y="-18" on="0"/>
        <pt x="386" y="-18" on="1"/>
        <pt x="381" y="-13" on="0"/>
        <pt x="378" y="-8" on="0"/>
        <pt x="376" y="-5" on="1"/>
        <pt x="379" y="6" on="0"/>
        <pt x="386" y="13" on="1"/>
        <pt x="398" y="12" on="0"/>
        <pt x="398" y="12" on="1"/>
        <pt x="405" y="2" on="0"/>
        <pt x="406" y="2" on="1"/>
        <pt x="404" y="-9" on="0"/>
        <pt x="406" y="-10" on="0"/>
        <pt x="404" y="-10" on="1"/>
      </contour>
      <contour>
        <pt x="356" y="-111" on="1"/>
        <pt x="349" y="-113" on="0"/>
        <pt x="340" y="-119" on="0"/>
        <pt x="332" y="-114" on="1"/>
        <pt x="325" y="-108" on="0"/>
        <pt x="325" y="-102" on="0"/>
        <pt x="323" y="-102" on="1"/>
        <pt x="325" y="-100" on="0"/>
        <pt x="325" y="-93" on="0"/>
        <pt x="326" y="-91" on="1"/>
        <pt x="338" y="-83" on="0"/>
        <pt x="345" y="-86" on="0"/>
        <pt x="348" y="-84" on="1"/>
        <pt x="356" y="-92" on="0"/>
        <pt x="356" y="-95" on="0"/>
        <pt x="358" y="-97" on="1"/>
        <pt x="358" y="-102" on="0"/>
        <pt x="358" y="-104" on="0"/>
        <pt x="356" y="-108" on="1"/>
      </contour>
      <contour>
        <pt x="398" y="-130" on="1"/>
        <pt x="387" y="-130" on="0"/>
        <pt x="377" y="-124" on="1"/>
        <pt x="377" y="-114" on="0"/>
        <pt x="378" y="-107" on="0"/>
        <pt x="380" y="-102" on="1"/>
        <pt x="382" y="-101" on="0"/>
        <pt x="389" y="-101" on="0"/>
        <pt x="391" y="-100" on="1"/>
        <pt x="397" y="-97" on="0"/>
        <pt x="410" y="-110" on="0"/>
        <pt x="409" y="-118" on="1"/>
        <pt x="407" y="-122" on="0"/>
        <pt x="400" y="-127" on="0"/>
      </contour>
      <contour>
        <pt x="417" y="-141" on="1"/>
        <pt x="430" y="-137" on="0"/>
        <pt x="432" y="-137" on="1"/>
        <pt x="438" y="-143" on="0"/>
        <pt x="442" y="-146" on="0"/>
        <pt x="443" y="-151" on="1"/>
        <pt x="444" y="-153" on="0"/>
        <pt x="443" y="-158" on="0"/>
        <pt x="443" y="-162" on="1"/>
        <pt x="440" y="-164" on="0"/>
        <pt x="438" y="-169" on="0"/>
        <pt x="434" y="-170" on="1"/>
        <pt x="429" y="-171" on="0"/>
        <pt x="418" y="-170" on="0"/>
        <pt x="413" y="-168" on="1"/>
        <pt x="416" y="-162" on="0"/>
        <pt x="413" y="-148" on="0"/>
      </contour>
      <contour>
        <pt x="258" y="-225" on="1"/>
        <pt x="255" y="-221" on="0"/>
        <pt x="249" y="-210" on="0"/>
        <pt x="251" y="-206" on="1"/>
        <pt x="254" y="-200" on="0"/>
        <pt x="260" y="-199" on="0"/>
        <pt x="259" y="-195" on="1"/>
        <pt x="263" y="-195" on="0"/>
        <pt x="269" y="-193" on="0"/>
        <pt x="273" y="-194" on="1"/>
        <pt x="275" y="-198" on="0"/>
        <pt x="283" y="-201" on="0"/>
        <pt x="285" y="-204" on="1"/>
        <pt x="285" y="-209" on="0"/>
        <pt x="283" y="-217" on="0"/>
        <pt x="281" y="-222" on="1"/>
        <pt x="276" y="-224" on="0"/>
        <pt x="265" y="-227" on="0"/>
      </contour>
      <contour>
        <pt x="401" y="-204" on="1"/>
        <pt x="401" y="-199" on="0"/>
        <pt x="408" y="-196" on="0"/>
        <pt x="410" y="-193" on="1"/>
        <pt x="419" y="-193" on="0"/>
        <pt x="422" y="-188" on="1"/>
        <pt x="431" y="-195" on="1"/>
        <pt x="439" y="-205" on="1"/>
        <pt x="436" y="-207" on="0"/>
        <pt x="437" y="-216" on="0"/>
        <pt x="435" y="-219" on="1"/>
        <pt x="430" y="-218" on="0"/>
        <pt x="422" y="-224" on="0"/>
        <pt x="417" y="-223" on="1"/>
        <pt x="411" y="-219" on="0"/>
        <pt x="404" y="-217" on="0"/>
        <pt x="403" y="-214" on="1"/>
      </contour>
      <contour>
        <pt x="300" y="-218" on="1"/>
        <pt x="305" y="-214" on="0"/>
        <pt x="319" y="-215" on="0"/>
        <pt x="324" y="-218" on="1"/>
        <pt x="325" y="-222" on="0"/>
        <pt x="327" y="-229" on="0"/>
        <pt x="326" y="-233" on="1"/>
        <pt x="321" y="-244" on="0"/>
        <pt x="318" y="-246" on="1"/>
        <pt x="310" y="-248" on="0"/>
        <pt x="296" y="-240" on="0"/>
        <pt x="295" y="-232" on="1"/>
        <pt x="295" y="-228" on="0"/>
        <pt x="300" y="-223" on="0"/>
      </contour>
      <contour>
        <pt x="350" y="-226" on="1"/>
        <pt x="359" y="-218" on="0"/>
        <pt x="375" y="-222" on="1"/>
        <pt x="379" y="-225" on="0"/>
        <pt x="386" y="-246" on="0"/>
        <pt x="376" y="-247" on="1"/>
        <pt x="357" y="-254" on="0"/>
        <pt x="347" y="-237" on="0"/>
      </contour>
      <contour>
        <pt x="371" y="-36" on="1"/>
        <pt x="376" y="-41" on="0"/>
        <pt x="381" y="-41" on="1"/>
        <pt x="378" y="-43" on="0"/>
        <pt x="383" y="-50" on="0"/>
        <pt x="385" y="-52" on="1"/>
        <pt x="383" y="-62" on="0"/>
        <pt x="379" y="-66" on="0"/>
        <pt x="380" y="-68" on="1"/>
        <pt x="376" y="-68" on="0"/>
        <pt x="370" y="-72" on="0"/>
        <pt x="368" y="-73" on="1"/>
        <pt x="363" y="-73" on="0"/>
        <pt x="357" y="-71" on="0"/>
        <pt x="354" y="-70" on="1"/>
        <pt x="352" y="-62" on="0"/>
        <pt x="353" y="-56" on="0"/>
        <pt x="350" y="-50" on="1"/>
        <pt x="351" y="-45" on="0"/>
        <pt x="363" y="-38" on="0"/>
      </contour>
    </TTGlyph>
    <TTGlyph name="D" xMin="92" yMin="-7" xMax="734" yMax="740">
      <contour>
        <pt x="334" y="727" on="1"/>
        <pt x="330" y="720" on="0"/>
        <pt x="327" y="710" on="0"/>
        <pt x="319" y="709" on="1"/>
        <pt x="309" y="713" on="0"/>
        <pt x="307" y="717" on="1"/>
        <pt x="304" y="724" on="0"/>
        <pt x="304" y="730" on="0"/>
        <pt x="305" y="732" on="1"/>
        <pt x="323" y="740" on="0"/>
        <pt x="332" y="732" on="0"/>
      </contour>
      <contour>
        <pt x="242" y="727" on="1"/>
        <pt x="244" y="725" on="0"/>
        <pt x="243" y="719" on="0"/>
        <pt x="243" y="716" on="1"/>
        <pt x="239" y="714" on="0"/>
        <pt x="237" y="707" on="0"/>
        <pt x="232" y="705" on="1"/>
        <pt x="225" y="705" on="0"/>
        <pt x="222" y="702" on="0"/>
        <pt x="220" y="703" on="1"/>
        <pt x="216" y="705" on="0"/>
        <pt x="208" y="718" on="0"/>
        <pt x="210" y="725" on="1"/>
        <pt x="211" y="727" on="0"/>
        <pt x="223" y="734" on="0"/>
        <pt x="228" y="733" on="1"/>
        <pt x="232" y="733" on="0"/>
        <pt x="239" y="729" on="0"/>
      </contour>
      <contour>
        <pt x="428" y="729" on="1"/>
        <pt x="428" y="724" on="0"/>
        <pt x="432" y="720" on="0"/>
        <pt x="430" y="714" on="1"/>
        <pt x="421" y="705" on="0"/>
        <pt x="420" y="703" on="0"/>
        <pt x="418" y="703" on="1"/>
        <pt x="409" y="706" on="0"/>
        <pt x="405" y="707" on="0"/>
        <pt x="403" y="709" on="1"/>
        <pt x="401" y="712" on="0"/>
        <pt x="399" y="722" on="0"/>
        <pt x="400" y="724" on="1"/>
        <pt x="408" y="731" on="0"/>
        <pt x="410" y="732" on="1"/>
        <pt x="418" y="734" on="0"/>
        <pt x="425" y="730" on="0"/>
      </contour>
      <contour>
        <pt x="127" y="700" on="1"/>
        <pt x="116" y="701" on="0"/>
        <pt x="111" y="708" on="1"/>
        <pt x="107" y="710" on="0"/>
        <pt x="103" y="714" on="0"/>
        <pt x="105" y="719" on="1"/>
        <pt x="114" y="729" on="0"/>
        <pt x="126" y="729" on="0"/>
        <pt x="128" y="728" on="1"/>
        <pt x="132" y="727" on="0"/>
        <pt x="138" y="716" on="0"/>
        <pt x="136" y="710" on="1"/>
        <pt x="127" y="699" on="0"/>
      </contour>
      <contour>
        <pt x="507" y="718" on="1"/>
        <pt x="518" y="714" on="0"/>
        <pt x="526" y="705" on="0"/>
        <pt x="523" y="695" on="1"/>
        <pt x="518" y="690" on="0"/>
        <pt x="505" y="687" on="0"/>
        <pt x="498" y="692" on="1"/>
        <pt x="493" y="701" on="0"/>
        <pt x="496" y="710" on="1"/>
        <pt x="500" y="711" on="0"/>
        <pt x="502" y="718" on="0"/>
      </contour>
      <contour>
        <pt x="616" y="669" on="1"/>
        <pt x="615" y="666" on="0"/>
        <pt x="615" y="657" on="1"/>
        <pt x="605" y="651" on="0"/>
        <pt x="600" y="646" on="0"/>
        <pt x="598" y="646" on="1"/>
        <pt x="594" y="646" on="0"/>
        <pt x="589" y="649" on="0"/>
        <pt x="586" y="651" on="1"/>
        <pt x="583" y="663" on="0"/>
        <pt x="591" y="679" on="0"/>
        <pt x="601" y="678" on="1"/>
        <pt x="606" y="677" on="0"/>
        <pt x="612" y="671" on="0"/>
      </contour>
      <contour>
        <pt x="139" y="623" on="1"/>
        <pt x="140" y="618" on="0"/>
        <pt x="137" y="613" on="0"/>
        <pt x="138" y="609" on="1"/>
        <pt x="133" y="607" on="0"/>
        <pt x="126" y="600" on="0"/>
        <pt x="120" y="601" on="1"/>
        <pt x="115" y="602" on="0"/>
        <pt x="106" y="617" on="0"/>
        <pt x="111" y="625" on="1"/>
        <pt x="114" y="628" on="0"/>
        <pt x="122" y="630" on="1"/>
        <pt x="132" y="633" on="0"/>
      </contour>
      <contour>
        <pt x="685" y="588" on="1"/>
        <pt x="676" y="578" on="0"/>
        <pt x="681" y="578" on="0"/>
        <pt x="680" y="575" on="1"/>
        <pt x="672" y="571" on="0"/>
        <pt x="657" y="577" on="0"/>
        <pt x="654" y="583" on="1"/>
        <pt x="659" y="596" on="0"/>
        <pt x="665" y="605" on="0"/>
        <pt x="672" y="605" on="1"/>
        <pt x="677" y="602" on="0"/>
        <pt x="685" y="593" on="0"/>
      </contour>
      <contour>
        <pt x="134" y="520" on="1"/>
        <pt x="133" y="518" on="0"/>
        <pt x="134" y="511" on="0"/>
        <pt x="133" y="509" on="1"/>
        <pt x="117" y="499" on="0"/>
        <pt x="116" y="499" on="1"/>
        <pt x="111" y="499" on="0"/>
        <pt x="101" y="508" on="0"/>
        <pt x="99" y="513" on="1"/>
        <pt x="101" y="516" on="0"/>
        <pt x="102" y="522" on="0"/>
        <pt x="104" y="525" on="1"/>
        <pt x="108" y="526" on="0"/>
        <pt x="115" y="530" on="0"/>
        <pt x="119" y="530" on="1"/>
        <pt x="128" y="523" on="0"/>
        <pt x="132" y="522" on="0"/>
      </contour>
      <contour>
        <pt x="709" y="489" on="1"/>
        <pt x="699" y="487" on="0"/>
        <pt x="696" y="488" on="0"/>
        <pt x="694" y="488" on="1"/>
        <pt x="686" y="492" on="0"/>
        <pt x="684" y="492" on="0"/>
        <pt x="683" y="493" on="1"/>
        <pt x="680" y="504" on="0"/>
        <pt x="684" y="510" on="0"/>
        <pt x="685" y="514" on="1"/>
        <pt x="689" y="516" on="0"/>
        <pt x="694" y="520" on="0"/>
        <pt x="699" y="520" on="1"/>
        <pt x="701" y="516" on="0"/>
        <pt x="708" y="513" on="0"/>
        <pt x="711" y="510" on="1"/>
        <pt x="710" y="500" on="0"/>
        <pt x="710" y="494" on="0"/>
      </contour>
      <contour>
        <pt x="142" y="429" on="1"/>
        <pt x="143" y="418" on="0"/>
        <pt x="138" y="414" on="0"/>
        <pt x="137" y="409" on="1"/>
        <pt x="126" y="406" on="0"/>
        <pt x="121" y="404" on="0"/>
        <pt x="119" y="406" on="1"/>
        <pt x="109" y="416" on="0"/>
        <pt x="113" y="427" on="1"/>
        <pt x="115" y="434" on="0"/>
        <pt x="122" y="437" on="1"/>
        <pt x="126" y="438" on="0"/>
        <pt x="128" y="437" on="0"/>
        <pt x="133" y="435" on="1"/>
      </contour>
      <contour>
        <pt x="711" y="418" on="1"/>
        <pt x="718" y="420" on="0"/>
        <pt x="727" y="417" on="0"/>
        <pt x="731" y="415" on="1"/>
        <pt x="734" y="409" on="0"/>
        <pt x="728" y="401" on="0"/>
        <pt x="729" y="394" on="1"/>
        <pt x="715" y="382" on="0"/>
        <pt x="706" y="396" on="1"/>
        <pt x="703" y="406" on="0"/>
        <pt x="709" y="416" on="0"/>
      </contour>
      <contour>
        <pt x="103" y="329" on="1"/>
        <pt x="107" y="331" on="0"/>
        <pt x="114" y="334" on="0"/>
        <pt x="118" y="335" on="1"/>
        <pt x="122" y="334" on="0"/>
        <pt x="126" y="329" on="0"/>
        <pt x="130" y="328" on="1"/>
        <pt x="128" y="325" on="0"/>
        <pt x="133" y="320" on="0"/>
        <pt x="131" y="315" on="1"/>
        <pt x="126" y="307" on="0"/>
        <pt x="124" y="304" on="0"/>
        <pt x="123" y="303" on="1"/>
        <pt x="118" y="301" on="0"/>
        <pt x="109" y="303" on="0"/>
        <pt x="104" y="305" on="1"/>
        <pt x="100" y="310" on="0"/>
        <pt x="101" y="324" on="0"/>
      </contour>
      <contour>
        <pt x="731" y="305" on="1"/>
        <pt x="730" y="302" on="0"/>
        <pt x="725" y="295" on="0"/>
        <pt x="723" y="293" on="1"/>
        <pt x="712" y="290" on="0"/>
        <pt x="712" y="291" on="0"/>
        <pt x="711" y="292" on="1"/>
        <pt x="705" y="299" on="0"/>
        <pt x="699" y="300" on="0"/>
        <pt x="699" y="302" on="1"/>
        <pt x="700" y="305" on="0"/>
        <pt x="699" y="313" on="0"/>
        <pt x="701" y="315" on="1"/>
        <pt x="718" y="322" on="1"/>
        <pt x="720" y="319" on="0"/>
        <pt x="724" y="314" on="0"/>
        <pt x="728" y="313" on="1"/>
      </contour>
      <contour>
        <pt x="683" y="213" on="1"/>
        <pt x="685" y="219" on="0"/>
        <pt x="684" y="224" on="1"/>
        <pt x="694" y="233" on="0"/>
        <pt x="702" y="231" on="0"/>
        <pt x="703" y="234" on="1"/>
        <pt x="706" y="232" on="0"/>
        <pt x="711" y="229" on="0"/>
        <pt x="715" y="228" on="1"/>
        <pt x="719" y="215" on="0"/>
        <pt x="702" y="199" on="0"/>
        <pt x="692" y="204" on="1"/>
        <pt x="691" y="208" on="0"/>
        <pt x="685" y="211" on="0"/>
      </contour>
      <contour>
        <pt x="113" y="216" on="1"/>
        <pt x="123" y="223" on="0"/>
        <pt x="128" y="223" on="0"/>
        <pt x="133" y="221" on="1"/>
        <pt x="139" y="216" on="0"/>
        <pt x="141" y="210" on="0"/>
        <pt x="142" y="208" on="1"/>
        <pt x="139" y="197" on="0"/>
        <pt x="126" y="190" on="1"/>
        <pt x="122" y="194" on="0"/>
        <pt x="115" y="196" on="0"/>
        <pt x="113" y="200" on="1"/>
        <pt x="111" y="203" on="0"/>
        <pt x="114" y="211" on="0"/>
      </contour>
      <contour>
        <pt x="667" y="139" on="1"/>
        <pt x="670" y="135" on="0"/>
        <pt x="676" y="129" on="0"/>
        <pt x="679" y="125" on="1"/>
        <pt x="674" y="113" on="0"/>
        <pt x="669" y="109" on="1"/>
        <pt x="661" y="103" on="0"/>
        <pt x="655" y="108" on="1"/>
        <pt x="651" y="110" on="0"/>
        <pt x="647" y="116" on="0"/>
        <pt x="645" y="120" on="1"/>
        <pt x="646" y="124" on="0"/>
        <pt x="648" y="131" on="0"/>
        <pt x="648" y="136" on="1"/>
        <pt x="654" y="134" on="0"/>
        <pt x="659" y="140" on="0"/>
      </contour>
      <contour>
        <pt x="139" y="121" on="1"/>
        <pt x="139" y="116" on="0"/>
        <pt x="141" y="105" on="0"/>
        <pt x="134" y="106" on="1"/>
        <pt x="129" y="98" on="0"/>
        <pt x="118" y="96" on="0"/>
        <pt x="114" y="98" on="1"/>
        <pt x="112" y="102" on="0"/>
        <pt x="108" y="110" on="0"/>
        <pt x="106" y="114" on="1"/>
        <pt x="108" y="117" on="0"/>
        <pt x="113" y="122" on="0"/>
        <pt x="115" y="125" on="1"/>
        <pt x="123" y="127" on="0"/>
        <pt x="136" y="126" on="0"/>
      </contour>
      <contour>
        <pt x="596" y="57" on="1"/>
        <pt x="595" y="49" on="0"/>
        <pt x="590" y="38" on="1"/>
        <pt x="586" y="39" on="0"/>
        <pt x="582" y="35" on="0"/>
        <pt x="578" y="35" on="1"/>
        <pt x="575" y="37" on="0"/>
        <pt x="569" y="38" on="0"/>
        <pt x="566" y="40" on="1"/>
        <pt x="563" y="50" on="0"/>
        <pt x="564" y="50" on="0"/>
        <pt x="564" y="51" on="1"/>
        <pt x="570" y="64" on="0"/>
        <pt x="578" y="69" on="0"/>
        <pt x="586" y="67" on="1"/>
        <pt x="589" y="65" on="0"/>
        <pt x="594" y="59" on="0"/>
      </contour>
      <contour>
        <pt x="487" y="17" on="1"/>
        <pt x="485" y="13" on="0"/>
        <pt x="481" y="3" on="1"/>
        <pt x="472" y="0" on="0"/>
        <pt x="462" y="2" on="0"/>
        <pt x="460" y="2" on="1"/>
        <pt x="455" y="24" on="1"/>
        <pt x="460" y="30" on="0"/>
        <pt x="477" y="32" on="0"/>
        <pt x="482" y="27" on="1"/>
        <pt x="483" y="24" on="0"/>
        <pt x="484" y="18" on="0"/>
      </contour>
      <contour>
        <pt x="92" y="17" on="1"/>
        <pt x="99" y="25" on="0"/>
        <pt x="101" y="24" on="0"/>
        <pt x="102" y="25" on="1"/>
        <pt x="106" y="28" on="0"/>
        <pt x="111" y="28" on="0"/>
        <pt x="113" y="28" on="1"/>
        <pt x="123" y="20" on="0"/>
        <pt x="126" y="15" on="0"/>
        <pt x="126" y="12" on="1"/>
        <pt x="125" y="8" on="0"/>
        <pt x="120" y="2" on="0"/>
        <pt x="119" y="-2" on="1"/>
        <pt x="114" y="-1" on="0"/>
        <pt x="110" y="-6" on="0"/>
        <pt x="104" y="-4" on="1"/>
        <pt x="101" y="2" on="0"/>
        <pt x="96" y="4" on="0"/>
        <pt x="95" y="5" on="1"/>
        <pt x="94" y="8" on="0"/>
        <pt x="94" y="14" on="0"/>
      </contour>
      <contour>
        <pt x="256" y="14" on="1"/>
        <pt x="256" y="8" on="0"/>
        <pt x="251" y="2" on="0"/>
        <pt x="250" y="-3" on="1"/>
        <pt x="245" y="-3" on="0"/>
        <pt x="241" y="-7" on="0"/>
        <pt x="239" y="-7" on="1"/>
        <pt x="229" y="-7" on="0"/>
        <pt x="226" y="0" on="1"/>
        <pt x="224" y="8" on="0"/>
        <pt x="222" y="10" on="0"/>
        <pt x="223" y="14" on="1"/>
        <pt x="225" y="19" on="0"/>
        <pt x="232" y="23" on="0"/>
        <pt x="234" y="27" on="1"/>
        <pt x="248" y="24" on="0"/>
        <pt x="254" y="17" on="0"/>
      </contour>
      <contour>
        <pt x="347" y="26" on="1"/>
        <pt x="350" y="24" on="0"/>
        <pt x="353" y="16" on="0"/>
        <pt x="355" y="12" on="1"/>
        <pt x="354" y="8" on="0"/>
        <pt x="349" y="5" on="0"/>
        <pt x="350" y="0" on="1"/>
        <pt x="341" y="-2" on="0"/>
        <pt x="338" y="-6" on="0"/>
        <pt x="335" y="-6" on="1"/>
        <pt x="331" y="-5" on="0"/>
        <pt x="328" y="0" on="0"/>
        <pt x="326" y="5" on="1"/>
        <pt x="325" y="7" on="0"/>
        <pt x="323" y="12" on="0"/>
        <pt x="325" y="16" on="1"/>
        <pt x="333" y="24" on="1"/>
        <pt x="338" y="27" on="0"/>
        <pt x="344" y="25" on="0"/>
      </contour>
    </TTGlyph>
    <TTGlyph name="E" xMin="91" yMin="-11" xMax="583" yMax="744">
      <contour>
        <pt x="220" y="738" on="1"/>
        <pt x="221" y="735" on="0"/>
        <pt x="225" y="732" on="0"/>
        <pt x="224" y="727" on="1"/>
        <pt x="224" y="718" on="0"/>
        <pt x="219" y="712" on="0"/>
        <pt x="214" y="712" on="1"/>
        <pt x="209" y="711" on="0"/>
        <pt x="202" y="716" on="0"/>
        <pt x="198" y="718" on="1"/>
        <pt x="193" y="728" on="0"/>
        <pt x="201" y="735" on="1"/>
        <pt x="212" y="741" on="0"/>
        <pt x="217" y="738" on="0"/>
      </contour>
      <contour>
        <pt x="569" y="744" on="1"/>
        <pt x="577" y="736" on="0"/>
        <pt x="580" y="735" on="1"/>
        <pt x="583" y="726" on="0"/>
        <pt x="578" y="720" on="1"/>
        <pt x="569" y="713" on="0"/>
        <pt x="563" y="711" on="0"/>
        <pt x="559" y="712" on="1"/>
        <pt x="554" y="719" on="0"/>
        <pt x="550" y="723" on="0"/>
        <pt x="548" y="727" on="1"/>
        <pt x="549" y="730" on="0"/>
        <pt x="551" y="734" on="0"/>
        <pt x="550" y="738" on="1"/>
        <pt x="555" y="740" on="0"/>
        <pt x="563" y="743" on="0"/>
      </contour>
      <contour>
        <pt x="141" y="723" on="1"/>
        <pt x="138" y="715" on="0"/>
        <pt x="136" y="713" on="0"/>
        <pt x="136" y="711" on="1"/>
        <pt x="131" y="712" on="0"/>
        <pt x="130" y="706" on="0"/>
        <pt x="128" y="703" on="1"/>
        <pt x="115" y="705" on="0"/>
        <pt x="106" y="714" on="0"/>
        <pt x="106" y="718" on="1"/>
        <pt x="105" y="726" on="0"/>
        <pt x="118" y="735" on="0"/>
        <pt x="127" y="733" on="1"/>
        <pt x="129" y="728" on="0"/>
        <pt x="138" y="726" on="0"/>
      </contour>
      <contour>
        <pt x="410" y="727" on="1"/>
        <pt x="408" y="724" on="0"/>
        <pt x="402" y="717" on="0"/>
        <pt x="400" y="713" on="1"/>
        <pt x="396" y="714" on="0"/>
        <pt x="388" y="712" on="0"/>
        <pt x="385" y="714" on="1"/>
        <pt x="376" y="722" on="0"/>
        <pt x="376" y="723" on="1"/>
        <pt x="375" y="732" on="0"/>
        <pt x="378" y="735" on="0"/>
        <pt x="379" y="737" on="1"/>
        <pt x="381" y="739" on="0"/>
        <pt x="388" y="742" on="0"/>
        <pt x="393" y="744" on="1"/>
        <pt x="397" y="742" on="0"/>
        <pt x="401" y="736" on="0"/>
        <pt x="406" y="735" on="1"/>
      </contour>
      <contour>
        <pt x="489" y="739" on="1"/>
        <pt x="491" y="736" on="0"/>
        <pt x="495" y="730" on="0"/>
        <pt x="494" y="725" on="1"/>
        <pt x="489" y="722" on="0"/>
        <pt x="487" y="716" on="1"/>
        <pt x="474" y="712" on="0"/>
        <pt x="471" y="716" on="0"/>
        <pt x="467" y="716" on="1"/>
        <pt x="467" y="719" on="0"/>
        <pt x="463" y="725" on="0"/>
        <pt x="464" y="728" on="1"/>
        <pt x="465" y="736" on="0"/>
        <pt x="478" y="743" on="1"/>
        <pt x="482" y="742" on="0"/>
        <pt x="485" y="737" on="0"/>
      </contour>
      <contour>
        <pt x="123" y="635" on="1"/>
        <pt x="118" y="636" on="0"/>
        <pt x="112" y="633" on="0"/>
        <pt x="109" y="631" on="1"/>
        <pt x="99" y="635" on="0"/>
        <pt x="94" y="646" on="1"/>
        <pt x="107" y="655" on="0"/>
        <pt x="110" y="660" on="1"/>
        <pt x="114" y="659" on="0"/>
        <pt x="123" y="655" on="0"/>
        <pt x="125" y="649" on="1"/>
        <pt x="126" y="647" on="0"/>
        <pt x="124" y="638" on="0"/>
      </contour>
      <contour>
        <pt x="136" y="564" on="1"/>
        <pt x="131" y="556" on="0"/>
        <pt x="133" y="556" on="0"/>
        <pt x="131" y="554" on="1"/>
        <pt x="125" y="553" on="0"/>
        <pt x="113" y="549" on="0"/>
        <pt x="108" y="553" on="1"/>
        <pt x="105" y="558" on="0"/>
        <pt x="100" y="566" on="0"/>
        <pt x="102" y="572" on="1"/>
        <pt x="112" y="581" on="0"/>
        <pt x="116" y="580" on="0"/>
        <pt x="118" y="582" on="1"/>
        <pt x="122" y="581" on="0"/>
        <pt x="128" y="577" on="0"/>
        <pt x="132" y="575" on="1"/>
        <pt x="134" y="567" on="0"/>
      </contour>
      <contour>
        <pt x="140" y="472" on="1"/>
        <pt x="136" y="460" on="0"/>
        <pt x="130" y="456" on="0"/>
        <pt x="131" y="451" on="1"/>
        <pt x="126" y="451" on="0"/>
        <pt x="119" y="453" on="0"/>
        <pt x="115" y="451" on="1"/>
        <pt x="112" y="453" on="0"/>
        <pt x="109" y="457" on="0"/>
        <pt x="105" y="458" on="1"/>
        <pt x="105" y="463" on="0"/>
        <pt x="108" y="466" on="0"/>
        <pt x="106" y="471" on="1"/>
        <pt x="110" y="476" on="0"/>
        <pt x="127" y="484" on="0"/>
        <pt x="132" y="475" on="1"/>
      </contour>
      <contour>
        <pt x="202" y="391" on="1"/>
        <pt x="203" y="387" on="0"/>
        <pt x="203" y="380" on="0"/>
        <pt x="204" y="378" on="1"/>
        <pt x="201" y="373" on="0"/>
        <pt x="187" y="366" on="0"/>
        <pt x="178" y="369" on="1"/>
        <pt x="177" y="373" on="0"/>
        <pt x="173" y="377" on="0"/>
        <pt x="174" y="384" on="1"/>
        <pt x="179" y="395" on="0"/>
        <pt x="181" y="395" on="0"/>
        <pt x="181" y="397" on="1"/>
        <pt x="193" y="397" on="0"/>
        <pt x="198" y="392" on="0"/>
      </contour>
      <contour>
        <pt x="135" y="383" on="1"/>
        <pt x="129" y="369" on="0"/>
        <pt x="124" y="366" on="1"/>
        <pt x="120" y="366" on="0"/>
        <pt x="114" y="365" on="0"/>
        <pt x="110" y="365" on="1"/>
        <pt x="110" y="368" on="0"/>
        <pt x="104" y="371" on="0"/>
        <pt x="103" y="374" on="1"/>
        <pt x="100" y="386" on="0"/>
        <pt x="109" y="393" on="1"/>
        <pt x="113" y="392" on="0"/>
        <pt x="117" y="395" on="0"/>
        <pt x="122" y="394" on="1"/>
        <pt x="125" y="391" on="0"/>
        <pt x="132" y="386" on="0"/>
      </contour>
      <contour>
        <pt x="287" y="398" on="1"/>
        <pt x="290" y="395" on="0"/>
        <pt x="297" y="390" on="0"/>
        <pt x="300" y="386" on="1"/>
        <pt x="296" y="373" on="0"/>
        <pt x="288" y="367" on="0"/>
        <pt x="283" y="367" on="1"/>
        <pt x="271" y="371" on="0"/>
        <pt x="270" y="372" on="1"/>
        <pt x="266" y="382" on="0"/>
        <pt x="269" y="387" on="0"/>
        <pt x="270" y="389" on="1"/>
        <pt x="281" y="397" on="0"/>
        <pt x="281" y="397" on="1"/>
      </contour>
      <contour>
        <pt x="393" y="370" on="1"/>
        <pt x="389" y="372" on="0"/>
        <pt x="385" y="369" on="0"/>
        <pt x="382" y="370" on="1"/>
        <pt x="374" y="374" on="0"/>
        <pt x="375" y="376" on="0"/>
        <pt x="374" y="378" on="1"/>
        <pt x="371" y="383" on="0"/>
        <pt x="374" y="394" on="0"/>
        <pt x="377" y="396" on="1"/>
        <pt x="388" y="397" on="0"/>
        <pt x="389" y="399" on="0"/>
        <pt x="390" y="399" on="1"/>
        <pt x="402" y="389" on="0"/>
        <pt x="398" y="374" on="0"/>
      </contour>
      <contour>
        <pt x="480" y="397" on="1"/>
        <pt x="483" y="392" on="0"/>
        <pt x="488" y="384" on="0"/>
        <pt x="486" y="379" on="1"/>
        <pt x="476" y="369" on="0"/>
        <pt x="468" y="370" on="0"/>
        <pt x="463" y="369" on="1"/>
        <pt x="460" y="371" on="0"/>
        <pt x="459" y="380" on="0"/>
        <pt x="456" y="382" on="1"/>
        <pt x="458" y="386" on="0"/>
        <pt x="460" y="389" on="0"/>
        <pt x="462" y="394" on="1"/>
        <pt x="468" y="393" on="0"/>
        <pt x="473" y="399" on="0"/>
      </contour>
      <contour>
        <pt x="126" y="274" on="1"/>
        <pt x="121" y="272" on="0"/>
        <pt x="113" y="269" on="0"/>
        <pt x="105" y="270" on="1"/>
        <pt x="104" y="273" on="0"/>
        <pt x="101" y="276" on="0"/>
        <pt x="99" y="281" on="1"/>
        <pt x="99" y="282" on="0"/>
        <pt x="98" y="291" on="0"/>
        <pt x="99" y="293" on="1"/>
        <pt x="111" y="300" on="0"/>
        <pt x="117" y="303" on="1"/>
        <pt x="121" y="301" on="0"/>
        <pt x="126" y="296" on="0"/>
        <pt x="130" y="295" on="1"/>
        <pt x="129" y="283" on="0"/>
        <pt x="126" y="279" on="0"/>
      </contour>
      <contour>
        <pt x="128" y="207" on="1"/>
        <pt x="130" y="204" on="0"/>
        <pt x="131" y="198" on="0"/>
        <pt x="133" y="196" on="1"/>
        <pt x="132" y="192" on="0"/>
        <pt x="128" y="188" on="0"/>
        <pt x="129" y="183" on="1"/>
        <pt x="116" y="177" on="0"/>
        <pt x="110" y="180" on="0"/>
        <pt x="105" y="180" on="1"/>
        <pt x="103" y="185" on="0"/>
        <pt x="98" y="191" on="0"/>
        <pt x="99" y="199" on="1"/>
        <pt x="105" y="211" on="0"/>
        <pt x="118" y="208" on="0"/>
      </contour>
      <contour>
        <pt x="125" y="123" on="1"/>
        <pt x="126" y="115" on="0"/>
        <pt x="131" y="114" on="0"/>
        <pt x="132" y="112" on="1"/>
        <pt x="131" y="109" on="0"/>
        <pt x="128" y="101" on="0"/>
        <pt x="126" y="99" on="1"/>
        <pt x="111" y="93" on="0"/>
        <pt x="101" y="103" on="0"/>
        <pt x="100" y="111" on="1"/>
        <pt x="106" y="122" on="0"/>
        <pt x="110" y="125" on="0"/>
        <pt x="112" y="127" on="1"/>
        <pt x="114" y="125" on="0"/>
        <pt x="123" y="125" on="0"/>
      </contour>
      <contour>
        <pt x="113" y="-4" on="1"/>
        <pt x="109" y="-1" on="0"/>
        <pt x="101" y="-3" on="1"/>
        <pt x="99" y="0" on="0"/>
        <pt x="95" y="6" on="0"/>
        <pt x="92" y="8" on="1"/>
        <pt x="91" y="13" on="0"/>
        <pt x="93" y="18" on="0"/>
        <pt x="94" y="22" on="1"/>
        <pt x="104" y="29" on="0"/>
        <pt x="109" y="28" on="0"/>
        <pt x="111" y="30" on="1"/>
        <pt x="116" y="28" on="0"/>
        <pt x="120" y="19" on="0"/>
        <pt x="124" y="16" on="1"/>
        <pt x="122" y="2" on="0"/>
      </contour>
      <contour>
        <pt x="215" y="24" on="1"/>
        <pt x="216" y="19" on="0"/>
        <pt x="221" y="17" on="0"/>
        <pt x="222" y="13" on="1"/>
        <pt x="222" y="8" on="0"/>
        <pt x="218" y="4" on="0"/>
        <pt x="220" y="-1" on="1"/>
        <pt x="216" y="-2" on="0"/>
        <pt x="213" y="-7" on="0"/>
        <pt x="208" y="-8" on="1"/>
        <pt x="206" y="-8" on="0"/>
        <pt x="199" y="-8" on="0"/>
        <pt x="197" y="-6" on="1"/>
        <pt x="194" y="2" on="0"/>
        <pt x="191" y="2" on="0"/>
        <pt x="191" y="4" on="1"/>
        <pt x="190" y="7" on="0"/>
        <pt x="193" y="12" on="0"/>
        <pt x="194" y="16" on="1"/>
        <pt x="199" y="18" on="0"/>
        <pt x="207" y="26" on="0"/>
      </contour>
      <contour>
        <pt x="465" y="25" on="1"/>
        <pt x="470" y="23" on="0"/>
        <pt x="480" y="20" on="0"/>
        <pt x="482" y="13" on="1"/>
        <pt x="489" y="7" on="0"/>
        <pt x="484" y="-1" on="0"/>
        <pt x="482" y="-5" on="1"/>
        <pt x="478" y="-7" on="0"/>
        <pt x="470" y="-9" on="0"/>
        <pt x="464" y="-9" on="1"/>
        <pt x="461" y="-6" on="0"/>
        <pt x="457" y="1" on="0"/>
        <pt x="455" y="4" on="1"/>
        <pt x="455" y="8" on="0"/>
        <pt x="457" y="12" on="0"/>
        <pt x="457" y="16" on="1"/>
        <pt x="463" y="16" on="0"/>
      </contour>
      <contour>
        <pt x="401" y="10" on="1"/>
        <pt x="399" y="5" on="0"/>
        <pt x="399" y="-2" on="0"/>
        <pt x="396" y="-6" on="1"/>
        <pt x="379" y="-11" on="0"/>
        <pt x="374" y="-3" on="1"/>
        <pt x="373" y="4" on="0"/>
        <pt x="370" y="6" on="0"/>
        <pt x="372" y="11" on="1"/>
        <pt x="382" y="19" on="0"/>
        <pt x="382" y="22" on="0"/>
        <pt x="383" y="22" on="1"/>
        <pt x="395" y="22" on="0"/>
        <pt x="398" y="14" on="0"/>
      </contour>
      <contour>
        <pt x="290" y="19" on="1"/>
        <pt x="302" y="18" on="0"/>
        <pt x="310" y="11" on="1"/>
        <pt x="312" y="0" on="0"/>
        <pt x="301" y="-11" on="0"/>
        <pt x="296" y="-11" on="1"/>
        <pt x="288" y="-11" on="0"/>
        <pt x="277" y="2" on="0"/>
        <pt x="281" y="10" on="1"/>
        <pt x="283" y="13" on="0"/>
        <pt x="287" y="15" on="0"/>
      </contour>
      <contour>
        <pt x="548" y="-7" on="1"/>
        <pt x="543" y="-4" on="0"/>
        <pt x="540" y="1" on="1"/>
        <pt x="536" y="12" on="0"/>
        <pt x="540" y="18" on="1"/>
        <pt x="550" y="25" on="0"/>
        <pt x="552" y="27" on="0"/>
        <pt x="554" y="27" on="1"/>
        <pt x="559" y="27" on="0"/>
        <pt x="564" y="20" on="0"/>
        <pt x="568" y="19" on="1"/>
        <pt x="571" y="14" on="0"/>
        <pt x="568" y="7" on="0"/>
        <pt x="570" y="2" on="1"/>
        <pt x="566" y="-2" on="0"/>
        <pt x="554" y="-5" on="0"/>
      </contour>
      <contour>
        <pt x="289" y="714" on="1"/>
        <pt x="287" y="718" on="0"/>
        <pt x="283" y="727" on="0"/>
        <pt x="284" y="733" on="1"/>
        <pt x="287" y="735" on="0"/>
        <pt x="289" y="741" on="0"/>
        <pt x="293" y="742" on="1"/>
        <pt x="299" y="744" on="0"/>
        <pt x="309" y="738" on="0"/>
        <pt x="313" y="734" on="1"/>
        <pt x="313" y="724" on="0"/>
        <pt x="308" y="719" on="1"/>
        <pt x="298" y="713" on="0"/>
      </contour>
    </TTGlyph>
    <TTGlyph name="Eacute" xMin="91" yMin="-11" xMax="583" yMax="940">
      <component glyphName="E" x="0" y="0" flags="0x204"/>
      <component glyphName="acute" x="-50" y="195" flags="0x4"/>
    </TTGlyph>
    <TTGlyph name="Ecircumflex" xMin="91" yMin="-11" xMax="583" yMax="942">
      <component glyphName="E" x="0" y="0" flags="0x204"/>
      <component glyphName="circumflex" x="-60" y="197" flags="0x4"/>
    </TTGlyph>
    <TTGlyph name="Edieresis" xMin="91" yMin="-11" xMax="583" yMax="944">
      <component glyphName="E" x="0" y="0" flags="0x204"/>
      <component glyphName="dieresis" x="-54" y="196" flags="0x4"/>
    </TTGlyph>
    <TTGlyph name="Egrave" xMin="91" yMin="-11" xMax="583" yMax="950">
      <component glyphName="E" x="0" y="0" flags="0x204"/>
      <component glyphName="grave" x="-81" y="205" flags="0x4"/>
    </TTGlyph>
    <TTGlyph name="Eth" xMin="-73" yMin="-4" xMax="735" yMax="743">
      <contour>
        <pt x="335" y="730" on="1"/>
        <pt x="332" y="723" on="0"/>
        <pt x="329" y="713" on="0"/>
        <pt x="321" y="712" on="1"/>
        <pt x="312" y="716" on="0"/>
        <pt x="310" y="717" on="0"/>
        <pt x="308" y="720" on="1"/>
        <pt x="306" y="727" on="0"/>
        <pt x="306" y="733" on="0"/>
        <pt x="307" y="735" on="1"/>
        <pt x="325" y="743" on="0"/>
        <pt x="333" y="735" on="0"/>
      </contour>
      <contour>
        <pt x="243" y="730" on="1"/>
        <pt x="245" y="728" on="0"/>
        <pt x="244" y="721" on="0"/>
        <pt x="245" y="719" on="1"/>
        <pt x="241" y="717" on="0"/>
        <pt x="238" y="710" on="0"/>
        <pt x="234" y="708" on="1"/>
        <pt x="226" y="708" on="0"/>
        <pt x="224" y="706" on="0"/>
        <pt x="222" y="707" on="1"/>
        <pt x="218" y="708" on="0"/>
        <pt x="209" y="721" on="0"/>
        <pt x="212" y="728" on="1"/>
        <pt x="213" y="730" on="0"/>
        <pt x="224" y="737" on="0"/>
        <pt x="229" y="736" on="1"/>
        <pt x="233" y="736" on="0"/>
        <pt x="241" y="731" on="0"/>
      </contour>
      <contour>
        <pt x="430" y="732" on="1"/>
        <pt x="429" y="727" on="0"/>
        <pt x="434" y="723" on="0"/>
        <pt x="432" y="717" on="1"/>
        <pt x="419" y="707" on="0"/>
        <pt x="420" y="707" on="1"/>
        <pt x="408" y="709" on="0"/>
        <pt x="406" y="712" on="1"/>
        <pt x="403" y="715" on="0"/>
        <pt x="401" y="725" on="0"/>
        <pt x="401" y="726" on="1"/>
        <pt x="409" y="734" on="0"/>
        <pt x="411" y="735" on="1"/>
        <pt x="420" y="736" on="0"/>
        <pt x="426" y="733" on="0"/>
      </contour>
      <contour>
        <pt x="129" y="702" on="1"/>
        <pt x="123" y="703" on="0"/>
        <pt x="116" y="708" on="0"/>
        <pt x="112" y="711" on="1"/>
        <pt x="110" y="713" on="0"/>
        <pt x="106" y="717" on="0"/>
        <pt x="108" y="722" on="1"/>
        <pt x="116" y="732" on="0"/>
        <pt x="127" y="732" on="0"/>
        <pt x="130" y="731" on="1"/>
        <pt x="134" y="730" on="0"/>
        <pt x="139" y="719" on="0"/>
        <pt x="137" y="713" on="1"/>
        <pt x="131" y="705" on="0"/>
        <pt x="129" y="704" on="0"/>
      </contour>
      <contour>
        <pt x="508" y="721" on="1"/>
        <pt x="520" y="717" on="0"/>
        <pt x="527" y="708" on="0"/>
        <pt x="525" y="698" on="1"/>
        <pt x="520" y="693" on="0"/>
        <pt x="506" y="690" on="0"/>
        <pt x="500" y="695" on="1"/>
        <pt x="494" y="704" on="0"/>
        <pt x="497" y="713" on="1"/>
        <pt x="502" y="714" on="0"/>
        <pt x="504" y="720" on="0"/>
      </contour>
      <contour>
        <pt x="618" y="672" on="1"/>
        <pt x="617" y="669" on="0"/>
        <pt x="617" y="660" on="1"/>
        <pt x="607" y="654" on="0"/>
        <pt x="602" y="649" on="0"/>
        <pt x="599" y="649" on="1"/>
        <pt x="596" y="649" on="0"/>
        <pt x="591" y="652" on="0"/>
        <pt x="587" y="654" on="1"/>
        <pt x="585" y="666" on="0"/>
        <pt x="593" y="682" on="0"/>
        <pt x="603" y="680" on="1"/>
        <pt x="608" y="680" on="0"/>
        <pt x="613" y="674" on="0"/>
      </contour>
      <contour>
        <pt x="141" y="626" on="1"/>
        <pt x="141" y="621" on="0"/>
        <pt x="139" y="616" on="0"/>
        <pt x="140" y="611" on="1"/>
        <pt x="135" y="610" on="0"/>
        <pt x="127" y="603" on="0"/>
        <pt x="122" y="604" on="1"/>
        <pt x="117" y="605" on="0"/>
        <pt x="107" y="620" on="0"/>
        <pt x="112" y="628" on="1"/>
        <pt x="114" y="629" on="0"/>
        <pt x="120" y="632" on="0"/>
        <pt x="123" y="633" on="1"/>
        <pt x="134" y="636" on="0"/>
      </contour>
      <contour>
        <pt x="687" y="591" on="1"/>
        <pt x="682" y="583" on="0"/>
        <pt x="679" y="583" on="1"/>
        <pt x="673" y="574" on="0"/>
        <pt x="659" y="581" on="0"/>
        <pt x="655" y="586" on="1"/>
        <pt x="661" y="599" on="0"/>
        <pt x="667" y="608" on="0"/>
        <pt x="674" y="608" on="1"/>
        <pt x="678" y="604" on="0"/>
        <pt x="687" y="596" on="0"/>
      </contour>
      <contour>
        <pt x="135" y="523" on="1"/>
        <pt x="134" y="521" on="0"/>
        <pt x="136" y="514" on="0"/>
        <pt x="134" y="512" on="1"/>
        <pt x="120" y="502" on="0"/>
        <pt x="118" y="502" on="1"/>
        <pt x="112" y="502" on="0"/>
        <pt x="102" y="511" on="0"/>
        <pt x="100" y="516" on="1"/>
        <pt x="106" y="528" on="1"/>
        <pt x="110" y="529" on="0"/>
        <pt x="117" y="534" on="0"/>
        <pt x="121" y="534" on="1"/>
        <pt x="130" y="526" on="0"/>
        <pt x="134" y="525" on="0"/>
      </contour>
      <contour>
        <pt x="711" y="493" on="1"/>
        <pt x="700" y="490" on="0"/>
        <pt x="697" y="492" on="0"/>
        <pt x="696" y="492" on="1"/>
        <pt x="685" y="495" on="1"/>
        <pt x="682" y="507" on="0"/>
        <pt x="686" y="513" on="0"/>
        <pt x="687" y="517" on="1"/>
        <pt x="691" y="519" on="0"/>
        <pt x="695" y="523" on="0"/>
        <pt x="700" y="523" on="1"/>
        <pt x="702" y="519" on="0"/>
        <pt x="710" y="516" on="0"/>
        <pt x="712" y="513" on="1"/>
        <pt x="712" y="503" on="0"/>
        <pt x="712" y="497" on="0"/>
      </contour>
      <contour>
        <pt x="144" y="432" on="1"/>
        <pt x="145" y="421" on="0"/>
        <pt x="139" y="417" on="0"/>
        <pt x="138" y="412" on="1"/>
        <pt x="128" y="410" on="0"/>
        <pt x="123" y="408" on="0"/>
        <pt x="121" y="409" on="1"/>
        <pt x="114" y="415" on="0"/>
        <pt x="113" y="425" on="0"/>
        <pt x="114" y="430" on="1"/>
        <pt x="116" y="437" on="0"/>
        <pt x="123" y="440" on="1"/>
        <pt x="128" y="441" on="0"/>
        <pt x="130" y="439" on="0"/>
        <pt x="134" y="437" on="1"/>
        <pt x="141" y="432" on="0"/>
      </contour>
      <contour>
        <pt x="712" y="421" on="1"/>
        <pt x="719" y="423" on="0"/>
        <pt x="728" y="420" on="0"/>
        <pt x="733" y="418" on="1"/>
        <pt x="735" y="412" on="0"/>
        <pt x="729" y="405" on="0"/>
        <pt x="731" y="397" on="1"/>
        <pt x="716" y="384" on="0"/>
        <pt x="708" y="399" on="1"/>
        <pt x="705" y="409" on="0"/>
        <pt x="710" y="419" on="0"/>
      </contour>
      <contour>
        <pt x="105" y="332" on="1"/>
        <pt x="109" y="334" on="0"/>
        <pt x="115" y="336" on="0"/>
        <pt x="120" y="338" on="1"/>
        <pt x="124" y="337" on="0"/>
        <pt x="127" y="332" on="0"/>
        <pt x="132" y="331" on="1"/>
        <pt x="130" y="328" on="0"/>
        <pt x="135" y="323" on="0"/>
        <pt x="133" y="318" on="1"/>
        <pt x="128" y="310" on="0"/>
        <pt x="125" y="307" on="0"/>
        <pt x="124" y="306" on="1"/>
        <pt x="120" y="304" on="0"/>
        <pt x="111" y="306" on="0"/>
        <pt x="106" y="308" on="1"/>
        <pt x="102" y="312" on="0"/>
        <pt x="103" y="327" on="0"/>
      </contour>
      <contour>
        <pt x="733" y="308" on="1"/>
        <pt x="731" y="302" on="0"/>
        <pt x="724" y="296" on="1"/>
        <pt x="714" y="293" on="0"/>
        <pt x="712" y="295" on="1"/>
        <pt x="706" y="301" on="0"/>
        <pt x="701" y="303" on="0"/>
        <pt x="700" y="305" on="1"/>
        <pt x="702" y="308" on="0"/>
        <pt x="701" y="316" on="0"/>
        <pt x="702" y="318" on="1"/>
        <pt x="720" y="325" on="1"/>
        <pt x="722" y="323" on="0"/>
        <pt x="726" y="317" on="0"/>
        <pt x="730" y="316" on="1"/>
      </contour>
      <contour>
        <pt x="685" y="216" on="1"/>
        <pt x="686" y="219" on="0"/>
        <pt x="686" y="227" on="1"/>
        <pt x="696" y="237" on="0"/>
        <pt x="705" y="234" on="0"/>
        <pt x="706" y="238" on="1"/>
        <pt x="708" y="236" on="0"/>
        <pt x="713" y="232" on="0"/>
        <pt x="716" y="230" on="1"/>
        <pt x="721" y="218" on="0"/>
        <pt x="704" y="201" on="0"/>
        <pt x="694" y="206" on="1"/>
        <pt x="693" y="211" on="0"/>
        <pt x="687" y="214" on="0"/>
      </contour>
      <contour>
        <pt x="114" y="218" on="1"/>
        <pt x="127" y="227" on="0"/>
        <pt x="134" y="224" on="1"/>
        <pt x="141" y="219" on="0"/>
        <pt x="142" y="213" on="0"/>
        <pt x="144" y="211" on="1"/>
        <pt x="141" y="199" on="0"/>
        <pt x="127" y="194" on="1"/>
        <pt x="123" y="197" on="0"/>
        <pt x="116" y="199" on="0"/>
        <pt x="114" y="203" on="1"/>
        <pt x="113" y="206" on="0"/>
        <pt x="115" y="213" on="0"/>
      </contour>
      <contour>
        <pt x="668" y="142" on="1"/>
        <pt x="672" y="138" on="0"/>
        <pt x="678" y="132" on="0"/>
        <pt x="680" y="128" on="1"/>
        <pt x="675" y="117" on="0"/>
        <pt x="674" y="114" on="0"/>
        <pt x="670" y="112" on="1"/>
        <pt x="668" y="110" on="0"/>
        <pt x="661" y="109" on="0"/>
        <pt x="656" y="111" on="1"/>
        <pt x="650" y="116" on="0"/>
        <pt x="646" y="123" on="1"/>
        <pt x="648" y="127" on="0"/>
        <pt x="650" y="133" on="0"/>
        <pt x="650" y="138" on="1"/>
        <pt x="656" y="137" on="0"/>
        <pt x="661" y="143" on="0"/>
      </contour>
      <contour>
        <pt x="141" y="124" on="1"/>
        <pt x="141" y="119" on="0"/>
        <pt x="142" y="109" on="0"/>
        <pt x="135" y="110" on="1"/>
        <pt x="124" y="98" on="0"/>
        <pt x="115" y="101" on="1"/>
        <pt x="113" y="104" on="0"/>
        <pt x="111" y="113" on="0"/>
        <pt x="109" y="117" on="1"/>
        <pt x="111" y="122" on="0"/>
        <pt x="116" y="128" on="1"/>
        <pt x="125" y="130" on="0"/>
        <pt x="137" y="128" on="0"/>
      </contour>
      <contour>
        <pt x="597" y="60" on="1"/>
        <pt x="597" y="55" on="0"/>
        <pt x="594" y="46" on="0"/>
        <pt x="592" y="41" on="1"/>
        <pt x="587" y="42" on="0"/>
        <pt x="583" y="38" on="0"/>
        <pt x="580" y="38" on="1"/>
        <pt x="576" y="40" on="0"/>
        <pt x="570" y="41" on="0"/>
        <pt x="568" y="43" on="1"/>
        <pt x="565" y="54" on="1"/>
        <pt x="572" y="67" on="0"/>
        <pt x="579" y="72" on="0"/>
        <pt x="587" y="69" on="1"/>
        <pt x="591" y="68" on="0"/>
        <pt x="595" y="62" on="0"/>
      </contour>
      <contour>
        <pt x="489" y="20" on="1"/>
        <pt x="486" y="16" on="0"/>
        <pt x="482" y="6" on="1"/>
        <pt x="473" y="3" on="0"/>
        <pt x="464" y="5" on="0"/>
        <pt x="461" y="5" on="1"/>
        <pt x="456" y="15" on="0"/>
        <pt x="457" y="21" on="0"/>
        <pt x="457" y="27" on="1"/>
        <pt x="462" y="33" on="0"/>
        <pt x="478" y="35" on="0"/>
        <pt x="483" y="30" on="1"/>
        <pt x="485" y="22" on="0"/>
      </contour>
      <contour>
        <pt x="94" y="20" on="1"/>
        <pt x="100" y="28" on="0"/>
        <pt x="102" y="27" on="0"/>
        <pt x="103" y="28" on="1"/>
        <pt x="108" y="31" on="0"/>
        <pt x="113" y="31" on="0"/>
        <pt x="114" y="31" on="1"/>
        <pt x="125" y="24" on="0"/>
        <pt x="128" y="18" on="0"/>
        <pt x="127" y="15" on="1"/>
        <pt x="127" y="10" on="0"/>
        <pt x="122" y="5" on="0"/>
        <pt x="121" y="1" on="1"/>
        <pt x="116" y="1" on="0"/>
        <pt x="112" y="-3" on="0"/>
        <pt x="106" y="-2" on="1"/>
        <pt x="102" y="4" on="0"/>
        <pt x="98" y="6" on="0"/>
        <pt x="97" y="8" on="1"/>
        <pt x="95" y="11" on="0"/>
        <pt x="96" y="17" on="0"/>
      </contour>
      <contour>
        <pt x="258" y="17" on="1"/>
        <pt x="257" y="11" on="0"/>
        <pt x="252" y="5" on="0"/>
        <pt x="251" y="-1" on="1"/>
        <pt x="247" y="0" on="0"/>
        <pt x="243" y="-4" on="0"/>
        <pt x="240" y="-4" on="1"/>
        <pt x="232" y="-4" on="0"/>
        <pt x="227" y="3" on="1"/>
        <pt x="225" y="11" on="0"/>
        <pt x="223" y="13" on="0"/>
        <pt x="225" y="17" on="1"/>
        <pt x="227" y="22" on="0"/>
        <pt x="234" y="25" on="0"/>
        <pt x="237" y="30" on="1"/>
        <pt x="250" y="27" on="0"/>
        <pt x="255" y="21" on="0"/>
      </contour>
      <contour>
        <pt x="349" y="29" on="1"/>
        <pt x="351" y="26" on="0"/>
        <pt x="354" y="18" on="0"/>
        <pt x="356" y="15" on="1"/>
        <pt x="356" y="11" on="0"/>
        <pt x="351" y="8" on="0"/>
        <pt x="352" y="3" on="1"/>
        <pt x="343" y="0" on="0"/>
        <pt x="340" y="-3" on="0"/>
        <pt x="337" y="-3" on="1"/>
        <pt x="332" y="-2" on="0"/>
        <pt x="330" y="3" on="0"/>
        <pt x="328" y="8" on="1"/>
        <pt x="326" y="10" on="0"/>
        <pt x="325" y="15" on="0"/>
        <pt x="327" y="19" on="1"/>
        <pt x="334" y="26" on="0"/>
        <pt x="336" y="29" on="0"/>
        <pt x="337" y="29" on="1"/>
        <pt x="339" y="30" on="0"/>
        <pt x="346" y="28" on="0"/>
      </contour>
      <contour>
        <pt x="65" y="385" on="1"/>
        <pt x="67" y="383" on="0"/>
        <pt x="66" y="377" on="0"/>
        <pt x="66" y="374" on="1"/>
        <pt x="62" y="372" on="0"/>
        <pt x="59" y="364" on="0"/>
        <pt x="56" y="362" on="1"/>
        <pt x="48" y="362" on="0"/>
        <pt x="46" y="360" on="0"/>
        <pt x="44" y="361" on="1"/>
        <pt x="40" y="362" on="0"/>
        <pt x="31" y="377" on="0"/>
        <pt x="34" y="383" on="1"/>
        <pt x="35" y="385" on="0"/>
        <pt x="46" y="392" on="0"/>
        <pt x="51" y="392" on="1"/>
        <pt x="55" y="391" on="0"/>
        <pt x="62" y="387" on="0"/>
      </contour>
      <contour>
        <pt x="-50" y="358" on="1"/>
        <pt x="-59" y="359" on="0"/>
        <pt x="-67" y="366" on="1"/>
        <pt x="-69" y="368" on="0"/>
        <pt x="-73" y="372" on="0"/>
        <pt x="-71" y="377" on="1"/>
        <pt x="-62" y="387" on="0"/>
        <pt x="-51" y="387" on="0"/>
        <pt x="-48" y="386" on="1"/>
        <pt x="-44" y="385" on="0"/>
        <pt x="-39" y="374" on="0"/>
        <pt x="-41" y="368" on="1"/>
        <pt x="-47" y="359" on="0"/>
        <pt x="-49" y="359" on="0"/>
      </contour>
      <contour>
        <pt x="303" y="385" on="1"/>
        <pt x="299" y="379" on="0"/>
        <pt x="297" y="369" on="0"/>
        <pt x="289" y="367" on="1"/>
        <pt x="280" y="371" on="0"/>
        <pt x="278" y="372" on="0"/>
        <pt x="275" y="375" on="1"/>
        <pt x="273" y="383" on="0"/>
        <pt x="273" y="388" on="0"/>
        <pt x="274" y="390" on="1"/>
        <pt x="283" y="397" on="1"/>
        <pt x="292" y="398" on="0"/>
        <pt x="301" y="390" on="0"/>
      </contour>
      <contour>
        <pt x="211" y="385" on="1"/>
        <pt x="213" y="383" on="0"/>
        <pt x="212" y="377" on="0"/>
        <pt x="212" y="374" on="1"/>
        <pt x="208" y="372" on="0"/>
        <pt x="205" y="364" on="0"/>
        <pt x="202" y="362" on="1"/>
        <pt x="195" y="362" on="0"/>
        <pt x="191" y="360" on="0"/>
        <pt x="189" y="361" on="1"/>
        <pt x="185" y="362" on="0"/>
        <pt x="177" y="377" on="0"/>
        <pt x="179" y="383" on="1"/>
        <pt x="180" y="385" on="0"/>
        <pt x="192" y="392" on="0"/>
        <pt x="198" y="392" on="1"/>
        <pt x="202" y="391" on="0"/>
        <pt x="208" y="387" on="0"/>
      </contour>
    </TTGlyph>
    <TTGlyph name="Euro" xMin="31" yMin="-21" xMax="603" yMax="753">
      <contour>
        <pt x="471" y="733" on="1"/>
        <pt x="476" y="715" on="0"/>
        <pt x="468" y="709" on="1"/>
        <pt x="462" y="704" on="0"/>
        <pt x="451" y="710" on="1"/>
        <pt x="449" y="713" on="0"/>
        <pt x="449" y="717" on="0"/>
        <pt x="447" y="722" on="1"/>
        <pt x="447" y="728" on="0"/>
        <pt x="456" y="736" on="0"/>
        <pt x="460" y="736" on="1"/>
        <pt x="463" y="736" on="0"/>
        <pt x="468" y="734" on="0"/>
      </contour>
      <contour>
        <pt x="319" y="693" on="1"/>
        <pt x="314" y="693" on="0"/>
        <pt x="309" y="695" on="0"/>
        <pt x="306" y="696" on="1"/>
        <pt x="303" y="702" on="0"/>
        <pt x="300" y="705" on="0"/>
        <pt x="298" y="707" on="1"/>
        <pt x="300" y="715" on="0"/>
        <pt x="300" y="719" on="0"/>
        <pt x="301" y="720" on="1"/>
        <pt x="314" y="725" on="1"/>
        <pt x="325" y="716" on="0"/>
        <pt x="330" y="710" on="0"/>
        <pt x="329" y="705" on="1"/>
        <pt x="328" y="700" on="0"/>
        <pt x="322" y="697" on="0"/>
      </contour>
      <contour>
        <pt x="537" y="700" on="1"/>
        <pt x="538" y="694" on="0"/>
        <pt x="542" y="691" on="0"/>
        <pt x="544" y="689" on="1"/>
        <pt x="543" y="681" on="0"/>
        <pt x="538" y="674" on="0"/>
        <pt x="534" y="672" on="1"/>
        <pt x="529" y="671" on="0"/>
        <pt x="522" y="675" on="0"/>
        <pt x="517" y="674" on="1"/>
        <pt x="514" y="679" on="0"/>
        <pt x="514" y="688" on="0"/>
        <pt x="514" y="695" on="1"/>
        <pt x="517" y="697" on="0"/>
        <pt x="523" y="700" on="0"/>
        <pt x="526" y="702" on="1"/>
        <pt x="531" y="699" on="0"/>
      </contour>
      <contour>
        <pt x="248" y="656" on="1"/>
        <pt x="250" y="654" on="0"/>
        <pt x="254" y="650" on="0"/>
        <pt x="256" y="646" on="1"/>
        <pt x="256" y="641" on="0"/>
        <pt x="248" y="637" on="0"/>
        <pt x="249" y="630" on="1"/>
        <pt x="237" y="628" on="0"/>
        <pt x="234" y="634" on="0"/>
        <pt x="228" y="633" on="1"/>
        <pt x="228" y="637" on="0"/>
        <pt x="226" y="644" on="0"/>
        <pt x="227" y="647" on="1"/>
        <pt x="227" y="649" on="0"/>
        <pt x="234" y="658" on="0"/>
        <pt x="238" y="657" on="1"/>
      </contour>
      <contour>
        <pt x="573" y="604" on="1"/>
        <pt x="573" y="617" on="1"/>
        <pt x="579" y="626" on="0"/>
        <pt x="582" y="627" on="0"/>
        <pt x="583" y="629" on="1"/>
        <pt x="588" y="630" on="0"/>
        <pt x="592" y="626" on="0"/>
        <pt x="595" y="625" on="1"/>
        <pt x="596" y="621" on="0"/>
        <pt x="603" y="613" on="0"/>
        <pt x="602" y="608" on="1"/>
        <pt x="601" y="606" on="0"/>
        <pt x="595" y="599" on="0"/>
        <pt x="593" y="598" on="1"/>
        <pt x="587" y="598" on="0"/>
        <pt x="581" y="600" on="1"/>
      </contour>
      <contour>
        <pt x="220" y="540" on="1"/>
        <pt x="218" y="537" on="0"/>
        <pt x="212" y="530" on="0"/>
        <pt x="209" y="528" on="1"/>
        <pt x="192" y="531" on="0"/>
        <pt x="188" y="543" on="0"/>
        <pt x="188" y="551" on="1"/>
        <pt x="193" y="554" on="0"/>
        <pt x="204" y="560" on="0"/>
        <pt x="211" y="558" on="1"/>
        <pt x="219" y="548" on="0"/>
        <pt x="218" y="542" on="0"/>
      </contour>
      <contour>
        <pt x="416" y="468" on="1"/>
        <pt x="421" y="462" on="0"/>
        <pt x="419" y="446" on="1"/>
        <pt x="415" y="443" on="0"/>
        <pt x="407" y="438" on="0"/>
        <pt x="399" y="441" on="1"/>
        <pt x="392" y="446" on="0"/>
        <pt x="388" y="451" on="0"/>
        <pt x="387" y="453" on="1"/>
        <pt x="388" y="458" on="0"/>
        <pt x="390" y="464" on="0"/>
        <pt x="391" y="468" on="1"/>
        <pt x="404" y="471" on="0"/>
        <pt x="411" y="470" on="0"/>
      </contour>
      <contour>
        <pt x="325" y="470" on="1"/>
        <pt x="329" y="462" on="0"/>
        <pt x="331" y="460" on="0"/>
        <pt x="331" y="458" on="1"/>
        <pt x="331" y="454" on="0"/>
        <pt x="326" y="449" on="0"/>
        <pt x="325" y="443" on="1"/>
        <pt x="322" y="442" on="0"/>
        <pt x="316" y="441" on="0"/>
        <pt x="314" y="439" on="1"/>
        <pt x="309" y="442" on="0"/>
        <pt x="302" y="446" on="0"/>
        <pt x="300" y="451" on="1"/>
        <pt x="301" y="462" on="0"/>
        <pt x="300" y="462" on="0"/>
        <pt x="301" y="463" on="1"/>
        <pt x="303" y="465" on="0"/>
        <pt x="308" y="469" on="0"/>
        <pt x="310" y="471" on="1"/>
        <pt x="315" y="471" on="0"/>
        <pt x="320" y="469" on="0"/>
      </contour>
      <contour>
        <pt x="60" y="466" on="1"/>
        <pt x="62" y="455" on="0"/>
        <pt x="60" y="449" on="0"/>
        <pt x="60" y="445" on="1"/>
        <pt x="53" y="441" on="0"/>
        <pt x="52" y="439" on="0"/>
        <pt x="50" y="439" on="1"/>
        <pt x="42" y="441" on="0"/>
        <pt x="38" y="440" on="0"/>
        <pt x="36" y="442" on="1"/>
        <pt x="33" y="452" on="0"/>
        <pt x="31" y="460" on="0"/>
        <pt x="32" y="463" on="1"/>
        <pt x="39" y="469" on="0"/>
        <pt x="44" y="472" on="0"/>
        <pt x="49" y="472" on="1"/>
        <pt x="53" y="471" on="0"/>
        <pt x="57" y="467" on="0"/>
      </contour>
      <contour>
        <pt x="137" y="470" on="1"/>
        <pt x="151" y="469" on="0"/>
        <pt x="153" y="447" on="0"/>
        <pt x="144" y="442" on="1"/>
        <pt x="142" y="441" on="0"/>
        <pt x="135" y="439" on="0"/>
        <pt x="133" y="440" on="1"/>
        <pt x="124" y="442" on="0"/>
        <pt x="122" y="451" on="1"/>
        <pt x="123" y="463" on="1"/>
        <pt x="131" y="470" on="0"/>
        <pt x="135" y="470" on="0"/>
      </contour>
      <contour>
        <pt x="230" y="440" on="1"/>
        <pt x="219" y="443" on="0"/>
        <pt x="218" y="441" on="0"/>
        <pt x="217" y="442" on="1"/>
        <pt x="214" y="450" on="0"/>
        <pt x="210" y="454" on="0"/>
        <pt x="210" y="457" on="1"/>
        <pt x="210" y="461" on="0"/>
        <pt x="215" y="465" on="0"/>
        <pt x="216" y="469" on="1"/>
        <pt x="223" y="471" on="0"/>
        <pt x="234" y="468" on="1"/>
        <pt x="241" y="460" on="0"/>
        <pt x="241" y="450" on="1"/>
        <pt x="239" y="446" on="0"/>
        <pt x="232" y="443" on="0"/>
      </contour>
      <contour>
        <pt x="62" y="356" on="1"/>
        <pt x="61" y="351" on="0"/>
        <pt x="58" y="346" on="0"/>
        <pt x="60" y="341" on="1"/>
        <pt x="55" y="333" on="0"/>
        <pt x="35" y="338" on="0"/>
        <pt x="32" y="346" on="1"/>
        <pt x="33" y="351" on="0"/>
        <pt x="35" y="362" on="0"/>
        <pt x="38" y="365" on="1"/>
        <pt x="42" y="366" on="0"/>
        <pt x="50" y="367" on="0"/>
        <pt x="52" y="369" on="1"/>
        <pt x="57" y="367" on="0"/>
        <pt x="59" y="358" on="0"/>
      </contour>
      <contour>
        <pt x="115" y="343" on="1"/>
        <pt x="110" y="355" on="0"/>
        <pt x="115" y="355" on="1"/>
        <pt x="117" y="359" on="0"/>
        <pt x="122" y="363" on="0"/>
        <pt x="124" y="368" on="1"/>
        <pt x="131" y="369" on="0"/>
        <pt x="135" y="367" on="1"/>
        <pt x="141" y="365" on="0"/>
        <pt x="143" y="356" on="1"/>
        <pt x="146" y="350" on="0"/>
        <pt x="142" y="343" on="1"/>
        <pt x="131" y="333" on="0"/>
        <pt x="119" y="340" on="0"/>
      </contour>
      <contour>
        <pt x="300" y="367" on="1"/>
        <pt x="302" y="361" on="0"/>
        <pt x="303" y="357" on="0"/>
        <pt x="305" y="355" on="1"/>
        <pt x="302" y="333" on="0"/>
        <pt x="286" y="336" on="1"/>
        <pt x="276" y="342" on="1"/>
        <pt x="274" y="345" on="0"/>
        <pt x="271" y="351" on="0"/>
        <pt x="271" y="353" on="1"/>
        <pt x="275" y="366" on="0"/>
        <pt x="291" y="369" on="0"/>
      </contour>
      <contour>
        <pt x="216" y="367" on="1"/>
        <pt x="220" y="357" on="0"/>
        <pt x="223" y="354" on="1"/>
        <pt x="223" y="352" on="0"/>
        <pt x="221" y="346" on="0"/>
        <pt x="221" y="342" on="1"/>
        <pt x="214" y="338" on="0"/>
        <pt x="209" y="338" on="0"/>
        <pt x="207" y="336" on="1"/>
        <pt x="204" y="337" on="0"/>
        <pt x="199" y="342" on="0"/>
        <pt x="197" y="344" on="1"/>
        <pt x="193" y="347" on="0"/>
        <pt x="193" y="357" on="1"/>
        <pt x="197" y="357" on="0"/>
        <pt x="198" y="365" on="0"/>
        <pt x="200" y="367" on="1"/>
        <pt x="207" y="368" on="0"/>
      </contour>
      <contour>
        <pt x="381" y="340" on="1"/>
        <pt x="372" y="337" on="0"/>
        <pt x="370" y="335" on="0"/>
        <pt x="368" y="335" on="1"/>
        <pt x="355" y="339" on="0"/>
        <pt x="350" y="350" on="0"/>
        <pt x="352" y="356" on="1"/>
        <pt x="354" y="360" on="0"/>
        <pt x="358" y="363" on="0"/>
        <pt x="359" y="368" on="1"/>
        <pt x="369" y="368" on="0"/>
        <pt x="373" y="369" on="1"/>
        <pt x="379" y="362" on="0"/>
        <pt x="382" y="361" on="0"/>
        <pt x="383" y="359" on="1"/>
        <pt x="384" y="351" on="0"/>
        <pt x="381" y="345" on="0"/>
      </contour>
      <contour>
        <pt x="188" y="273" on="1"/>
        <pt x="193" y="266" on="0"/>
        <pt x="195" y="265" on="0"/>
        <pt x="196" y="263" on="1"/>
        <pt x="198" y="254" on="0"/>
        <pt x="192" y="244" on="0"/>
        <pt x="189" y="242" on="1"/>
        <pt x="182" y="238" on="0"/>
        <pt x="173" y="240" on="1"/>
        <pt x="171" y="244" on="0"/>
        <pt x="166" y="249" on="0"/>
        <pt x="164" y="251" on="1"/>
        <pt x="164" y="256" on="0"/>
        <pt x="165" y="263" on="0"/>
        <pt x="168" y="267" on="1"/>
        <pt x="172" y="272" on="0"/>
        <pt x="183" y="274" on="0"/>
      </contour>
      <contour>
        <pt x="219" y="159" on="1"/>
        <pt x="218" y="145" on="0"/>
        <pt x="212" y="140" on="0"/>
        <pt x="210" y="136" on="1"/>
        <pt x="200" y="134" on="0"/>
        <pt x="195" y="141" on="0"/>
        <pt x="190" y="143" on="1"/>
        <pt x="188" y="151" on="0"/>
        <pt x="189" y="160" on="0"/>
        <pt x="194" y="165" on="1"/>
        <pt x="203" y="169" on="0"/>
        <pt x="212" y="166" on="1"/>
      </contour>
      <contour>
        <pt x="556" y="87" on="1"/>
        <pt x="564" y="86" on="0"/>
        <pt x="573" y="81" on="0"/>
        <pt x="577" y="77" on="1"/>
        <pt x="575" y="71" on="0"/>
        <pt x="579" y="65" on="0"/>
        <pt x="575" y="60" on="1"/>
        <pt x="566" y="54" on="0"/>
        <pt x="563" y="54" on="1"/>
        <pt x="556" y="55" on="0"/>
        <pt x="553" y="64" on="0"/>
        <pt x="549" y="66" on="1"/>
        <pt x="548" y="69" on="0"/>
        <pt x="549" y="73" on="0"/>
        <pt x="548" y="77" on="1"/>
        <pt x="550" y="80" on="0"/>
        <pt x="556" y="82" on="0"/>
      </contour>
      <contour>
        <pt x="244" y="55" on="1"/>
        <pt x="242" y="60" on="0"/>
        <pt x="240" y="68" on="0"/>
        <pt x="242" y="72" on="1"/>
        <pt x="249" y="83" on="0"/>
        <pt x="261" y="80" on="1"/>
        <pt x="267" y="74" on="0"/>
        <pt x="271" y="69" on="0"/>
        <pt x="270" y="65" on="1"/>
        <pt x="270" y="59" on="0"/>
        <pt x="263" y="50" on="0"/>
        <pt x="258" y="50" on="1"/>
        <pt x="253" y="50" on="0"/>
        <pt x="249" y="53" on="0"/>
      </contour>
      <contour>
        <pt x="509" y="37" on="1"/>
        <pt x="512" y="24" on="0"/>
        <pt x="508" y="12" on="1"/>
        <pt x="503" y="10" on="0"/>
        <pt x="496" y="7" on="0"/>
        <pt x="488" y="9" on="1"/>
        <pt x="485" y="11" on="0"/>
        <pt x="480" y="15" on="0"/>
        <pt x="477" y="16" on="1"/>
        <pt x="476" y="23" on="0"/>
        <pt x="479" y="25" on="0"/>
        <pt x="479" y="27" on="1"/>
        <pt x="484" y="38" on="0"/>
        <pt x="497" y="40" on="0"/>
        <pt x="501" y="37" on="1"/>
      </contour>
      <contour>
        <pt x="340" y="12" on="1"/>
        <pt x="342" y="3" on="0"/>
        <pt x="333" y="-4" on="0"/>
        <pt x="328" y="-7" on="1"/>
        <pt x="316" y="-6" on="0"/>
        <pt x="310" y="2" on="1"/>
        <pt x="308" y="10" on="0"/>
        <pt x="316" y="20" on="0"/>
        <pt x="321" y="25" on="1"/>
        <pt x="327" y="23" on="0"/>
        <pt x="339" y="20" on="0"/>
      </contour>
      <contour>
        <pt x="428" y="5" on="1"/>
        <pt x="428" y="-6" on="0"/>
        <pt x="423" y="-11" on="0"/>
        <pt x="422" y="-16" on="1"/>
        <pt x="420" y="-18" on="0"/>
        <pt x="413" y="-21" on="0"/>
        <pt x="408" y="-19" on="1"/>
        <pt x="399" y="-12" on="0"/>
        <pt x="396" y="-10" on="1"/>
        <pt x="396" y="-1" on="0"/>
        <pt x="399" y="4" on="1"/>
        <pt x="409" y="11" on="0"/>
        <pt x="412" y="11" on="1"/>
        <pt x="423" y="7" on="1"/>
      </contour>
      <contour>
        <pt x="401" y="750" on="1"/>
        <pt x="398" y="744" on="0"/>
        <pt x="402" y="738" on="0"/>
        <pt x="398" y="735" on="1"/>
        <pt x="399" y="723" on="0"/>
        <pt x="387" y="719" on="0"/>
        <pt x="380" y="718" on="1"/>
        <pt x="374" y="727" on="0"/>
        <pt x="374" y="737" on="0"/>
        <pt x="374" y="742" on="1"/>
        <pt x="378" y="743" on="0"/>
        <pt x="381" y="751" on="1"/>
        <pt x="388" y="753" on="0"/>
        <pt x="396" y="749" on="0"/>
      </contour>
    </TTGlyph>
    <TTGlyph name="F" xMin="92" yMin="-5" xMax="572" yMax="743">
      <contour>
        <pt x="322" y="726" on="1"/>
        <pt x="321" y="722" on="0"/>
        <pt x="318" y="717" on="0"/>
        <pt x="318" y="713" on="1"/>
        <pt x="312" y="709" on="0"/>
        <pt x="306" y="708" on="0"/>
        <pt x="304" y="708" on="1"/>
        <pt x="294" y="712" on="0"/>
        <pt x="289" y="715" on="1"/>
        <pt x="288" y="723" on="0"/>
        <pt x="292" y="733" on="0"/>
        <pt x="294" y="737" on="1"/>
        <pt x="306" y="741" on="1"/>
        <pt x="309" y="736" on="0"/>
        <pt x="319" y="731" on="0"/>
      </contour>
      <contour>
        <pt x="217" y="710" on="1"/>
        <pt x="212" y="709" on="0"/>
        <pt x="204" y="708" on="0"/>
        <pt x="200" y="712" on="1"/>
        <pt x="197" y="715" on="0"/>
        <pt x="190" y="717" on="0"/>
        <pt x="190" y="719" on="1"/>
        <pt x="189" y="724" on="0"/>
        <pt x="194" y="730" on="0"/>
        <pt x="193" y="737" on="1"/>
        <pt x="198" y="737" on="0"/>
        <pt x="205" y="742" on="0"/>
        <pt x="210" y="741" on="1"/>
        <pt x="216" y="741" on="0"/>
        <pt x="221" y="734" on="0"/>
        <pt x="224" y="729" on="1"/>
        <pt x="223" y="724" on="0"/>
        <pt x="219" y="715" on="0"/>
      </contour>
      <contour>
        <pt x="487" y="725" on="1"/>
        <pt x="483" y="715" on="0"/>
        <pt x="473" y="710" on="0"/>
        <pt x="466" y="711" on="1"/>
        <pt x="459" y="720" on="0"/>
        <pt x="456" y="722" on="0"/>
        <pt x="456" y="724" on="1"/>
        <pt x="461" y="735" on="1"/>
        <pt x="470" y="742" on="0"/>
        <pt x="474" y="741" on="0"/>
        <pt x="476" y="743" on="1"/>
        <pt x="480" y="741" on="0"/>
        <pt x="494" y="730" on="0"/>
      </contour>
      <contour>
        <pt x="132" y="731" on="1"/>
        <pt x="129" y="723" on="0"/>
        <pt x="128" y="720" on="0"/>
        <pt x="128" y="718" on="1"/>
        <pt x="116" y="714" on="0"/>
        <pt x="112" y="711" on="0"/>
        <pt x="109" y="711" on="1"/>
        <pt x="104" y="712" on="0"/>
        <pt x="97" y="721" on="0"/>
        <pt x="97" y="725" on="1"/>
        <pt x="96" y="732" on="0"/>
        <pt x="102" y="738" on="1"/>
        <pt x="107" y="743" on="0"/>
        <pt x="118" y="740" on="1"/>
        <pt x="120" y="736" on="0"/>
        <pt x="129" y="734" on="0"/>
      </contour>
      <contour>
        <pt x="406" y="736" on="1"/>
        <pt x="404" y="732" on="0"/>
        <pt x="409" y="727" on="0"/>
        <pt x="409" y="724" on="1"/>
        <pt x="408" y="719" on="0"/>
        <pt x="402" y="714" on="0"/>
        <pt x="398" y="711" on="1"/>
        <pt x="393" y="712" on="0"/>
        <pt x="388" y="711" on="0"/>
        <pt x="383" y="712" on="1"/>
        <pt x="379" y="719" on="0"/>
        <pt x="378" y="719" on="0"/>
        <pt x="378" y="724" on="1"/>
        <pt x="383" y="734" on="0"/>
        <pt x="383" y="734" on="1"/>
        <pt x="386" y="738" on="0"/>
        <pt x="392" y="742" on="0"/>
        <pt x="397" y="740" on="1"/>
      </contour>
      <contour>
        <pt x="562" y="739" on="1"/>
        <pt x="570" y="731" on="0"/>
        <pt x="570" y="724" on="0"/>
        <pt x="572" y="720" on="1"/>
        <pt x="564" y="711" on="0"/>
        <pt x="561" y="708" on="0"/>
        <pt x="559" y="707" on="1"/>
        <pt x="554" y="705" on="0"/>
        <pt x="544" y="709" on="0"/>
        <pt x="539" y="711" on="1"/>
        <pt x="539" y="717" on="0"/>
        <pt x="535" y="727" on="0"/>
        <pt x="539" y="732" on="1"/>
        <pt x="542" y="734" on="0"/>
        <pt x="549" y="736" on="0"/>
        <pt x="551" y="740" on="1"/>
      </contour>
      <contour>
        <pt x="122" y="634" on="1"/>
        <pt x="113" y="635" on="0"/>
        <pt x="108" y="630" on="1"/>
        <pt x="102" y="632" on="0"/>
        <pt x="95" y="639" on="0"/>
        <pt x="92" y="644" on="1"/>
        <pt x="105" y="654" on="0"/>
        <pt x="108" y="659" on="1"/>
        <pt x="113" y="658" on="0"/>
        <pt x="122" y="654" on="0"/>
        <pt x="124" y="648" on="1"/>
        <pt x="124" y="646" on="0"/>
        <pt x="122" y="637" on="0"/>
      </contour>
      <contour>
        <pt x="129" y="563" on="1"/>
        <pt x="124" y="556" on="0"/>
        <pt x="126" y="555" on="0"/>
        <pt x="124" y="553" on="1"/>
        <pt x="119" y="552" on="0"/>
        <pt x="106" y="548" on="0"/>
        <pt x="100" y="552" on="1"/>
        <pt x="98" y="557" on="0"/>
        <pt x="93" y="565" on="0"/>
        <pt x="95" y="571" on="1"/>
        <pt x="104" y="580" on="0"/>
        <pt x="109" y="579" on="0"/>
        <pt x="111" y="581" on="1"/>
        <pt x="115" y="580" on="0"/>
        <pt x="121" y="576" on="0"/>
        <pt x="125" y="574" on="1"/>
        <pt x="127" y="566" on="0"/>
      </contour>
      <contour>
        <pt x="134" y="471" on="1"/>
        <pt x="130" y="459" on="0"/>
        <pt x="124" y="455" on="0"/>
        <pt x="126" y="450" on="1"/>
        <pt x="121" y="450" on="0"/>
        <pt x="113" y="452" on="0"/>
        <pt x="109" y="450" on="1"/>
        <pt x="106" y="452" on="0"/>
        <pt x="103" y="456" on="0"/>
        <pt x="99" y="457" on="1"/>
        <pt x="100" y="462" on="0"/>
        <pt x="102" y="465" on="0"/>
        <pt x="100" y="469" on="1"/>
        <pt x="103" y="474" on="0"/>
        <pt x="122" y="483" on="0"/>
        <pt x="126" y="474" on="1"/>
      </contour>
      <contour>
        <pt x="203" y="383" on="1"/>
        <pt x="204" y="379" on="0"/>
        <pt x="204" y="373" on="0"/>
        <pt x="206" y="370" on="1"/>
        <pt x="202" y="365" on="0"/>
        <pt x="188" y="357" on="0"/>
        <pt x="180" y="360" on="1"/>
        <pt x="178" y="365" on="0"/>
        <pt x="174" y="370" on="0"/>
        <pt x="175" y="376" on="1"/>
        <pt x="182" y="389" on="0"/>
        <pt x="182" y="390" on="1"/>
        <pt x="195" y="389" on="0"/>
        <pt x="199" y="384" on="0"/>
      </contour>
      <contour>
        <pt x="130" y="379" on="1"/>
        <pt x="125" y="368" on="0"/>
        <pt x="121" y="363" on="0"/>
        <pt x="118" y="361" on="1"/>
        <pt x="114" y="360" on="0"/>
        <pt x="104" y="360" on="1"/>
        <pt x="104" y="364" on="0"/>
        <pt x="99" y="367" on="0"/>
        <pt x="97" y="370" on="1"/>
        <pt x="95" y="375" on="0"/>
        <pt x="100" y="385" on="0"/>
        <pt x="102" y="389" on="1"/>
        <pt x="107" y="388" on="0"/>
        <pt x="112" y="391" on="0"/>
        <pt x="117" y="390" on="1"/>
        <pt x="120" y="387" on="0"/>
        <pt x="127" y="382" on="0"/>
      </contour>
      <contour>
        <pt x="286" y="390" on="1"/>
        <pt x="289" y="387" on="0"/>
        <pt x="296" y="382" on="0"/>
        <pt x="299" y="378" on="1"/>
        <pt x="295" y="365" on="0"/>
        <pt x="288" y="357" on="0"/>
        <pt x="283" y="357" on="1"/>
        <pt x="272" y="362" on="0"/>
        <pt x="270" y="361" on="0"/>
        <pt x="269" y="362" on="1"/>
        <pt x="265" y="373" on="0"/>
        <pt x="268" y="379" on="0"/>
        <pt x="269" y="381" on="1"/>
        <pt x="277" y="386" on="0"/>
        <pt x="278" y="388" on="0"/>
        <pt x="280" y="389" on="1"/>
      </contour>
      <contour>
        <pt x="384" y="360" on="1"/>
        <pt x="380" y="363" on="0"/>
        <pt x="376" y="359" on="0"/>
        <pt x="373" y="360" on="1"/>
        <pt x="365" y="365" on="0"/>
        <pt x="366" y="367" on="0"/>
        <pt x="365" y="368" on="1"/>
        <pt x="360" y="374" on="0"/>
        <pt x="363" y="385" on="0"/>
        <pt x="368" y="387" on="1"/>
        <pt x="378" y="388" on="0"/>
        <pt x="379" y="390" on="0"/>
        <pt x="381" y="389" on="1"/>
        <pt x="393" y="380" on="0"/>
        <pt x="389" y="365" on="0"/>
      </contour>
      <contour>
        <pt x="471" y="390" on="1"/>
        <pt x="474" y="385" on="0"/>
        <pt x="479" y="377" on="0"/>
        <pt x="477" y="371" on="1"/>
        <pt x="467" y="360" on="0"/>
        <pt x="458" y="361" on="0"/>
        <pt x="454" y="360" on="1"/>
        <pt x="451" y="362" on="0"/>
        <pt x="449" y="371" on="0"/>
        <pt x="446" y="374" on="1"/>
        <pt x="447" y="378" on="0"/>
        <pt x="450" y="381" on="0"/>
        <pt x="452" y="386" on="1"/>
        <pt x="458" y="385" on="0"/>
        <pt x="463" y="391" on="0"/>
      </contour>
      <contour>
        <pt x="123" y="273" on="1"/>
        <pt x="118" y="271" on="0"/>
        <pt x="110" y="268" on="0"/>
        <pt x="102" y="269" on="1"/>
        <pt x="101" y="272" on="0"/>
        <pt x="96" y="280" on="0"/>
        <pt x="95" y="285" on="1"/>
        <pt x="100" y="294" on="0"/>
        <pt x="98" y="296" on="0"/>
        <pt x="98" y="298" on="1"/>
        <pt x="108" y="300" on="0"/>
        <pt x="113" y="302" on="1"/>
        <pt x="118" y="300" on="0"/>
        <pt x="122" y="296" on="0"/>
        <pt x="127" y="294" on="1"/>
        <pt x="126" y="283" on="0"/>
        <pt x="123" y="278" on="0"/>
      </contour>
      <contour>
        <pt x="126" y="206" on="1"/>
        <pt x="128" y="203" on="0"/>
        <pt x="129" y="197" on="0"/>
        <pt x="131" y="195" on="1"/>
        <pt x="130" y="191" on="0"/>
        <pt x="126" y="187" on="0"/>
        <pt x="127" y="182" on="1"/>
        <pt x="123" y="180" on="0"/>
        <pt x="117" y="176" on="1"/>
        <pt x="113" y="177" on="0"/>
        <pt x="108" y="179" on="0"/>
        <pt x="103" y="179" on="1"/>
        <pt x="101" y="184" on="0"/>
        <pt x="96" y="190" on="0"/>
        <pt x="97" y="198" on="1"/>
        <pt x="102" y="210" on="0"/>
        <pt x="116" y="207" on="0"/>
      </contour>
      <contour>
        <pt x="124" y="122" on="1"/>
        <pt x="126" y="114" on="0"/>
        <pt x="130" y="113" on="0"/>
        <pt x="131" y="111" on="1"/>
        <pt x="129" y="102" on="0"/>
        <pt x="125" y="98" on="1"/>
        <pt x="102" y="91" on="0"/>
        <pt x="99" y="110" on="1"/>
        <pt x="105" y="121" on="0"/>
        <pt x="109" y="124" on="0"/>
        <pt x="111" y="126" on="1"/>
        <pt x="113" y="124" on="0"/>
        <pt x="122" y="124" on="0"/>
      </contour>
      <contour>
        <pt x="114" y="-5" on="1"/>
        <pt x="110" y="-2" on="0"/>
        <pt x="102" y="-4" on="1"/>
        <pt x="96" y="4" on="0"/>
        <pt x="93" y="7" on="1"/>
        <pt x="92" y="12" on="0"/>
        <pt x="94" y="17" on="0"/>
        <pt x="94" y="20" on="1"/>
        <pt x="104" y="28" on="0"/>
        <pt x="110" y="27" on="0"/>
        <pt x="112" y="29" on="1"/>
        <pt x="117" y="27" on="0"/>
        <pt x="120" y="18" on="0"/>
        <pt x="124" y="16" on="1"/>
        <pt x="122" y="1" on="0"/>
      </contour>
    </TTGlyph>
    <TTGlyph name="G" xMin="60" yMin="-20" xMax="677" yMax="762">
      <contour>
        <pt x="419" y="755" on="1"/>
        <pt x="420" y="745" on="0"/>
        <pt x="417" y="738" on="0"/>
        <pt x="416" y="733" on="1"/>
        <pt x="399" y="730" on="0"/>
        <pt x="388" y="741" on="1"/>
        <pt x="387" y="746" on="0"/>
        <pt x="390" y="751" on="0"/>
        <pt x="389" y="755" on="1"/>
        <pt x="394" y="757" on="0"/>
        <pt x="399" y="762" on="1"/>
        <pt x="406" y="761" on="0"/>
        <pt x="414" y="756" on="0"/>
      </contour>
      <contour>
        <pt x="529" y="744" on="1"/>
        <pt x="531" y="729" on="0"/>
        <pt x="524" y="724" on="1"/>
        <pt x="513" y="720" on="0"/>
        <pt x="497" y="732" on="0"/>
        <pt x="499" y="741" on="1"/>
        <pt x="501" y="745" on="0"/>
        <pt x="511" y="752" on="0"/>
        <pt x="516" y="752" on="1"/>
        <pt x="521" y="752" on="0"/>
        <pt x="526" y="746" on="0"/>
      </contour>
      <contour>
        <pt x="322" y="734" on="1"/>
        <pt x="322" y="729" on="0"/>
        <pt x="324" y="722" on="0"/>
        <pt x="324" y="717" on="1"/>
        <pt x="315" y="710" on="0"/>
        <pt x="307" y="711" on="1"/>
        <pt x="304" y="711" on="0"/>
        <pt x="298" y="718" on="0"/>
        <pt x="294" y="716" on="1"/>
        <pt x="294" y="722" on="0"/>
        <pt x="294" y="727" on="0"/>
        <pt x="295" y="733" on="1"/>
        <pt x="305" y="739" on="0"/>
        <pt x="317" y="736" on="0"/>
      </contour>
      <contour>
        <pt x="605" y="678" on="1"/>
        <pt x="600" y="676" on="0"/>
        <pt x="592" y="674" on="0"/>
        <pt x="585" y="676" on="1"/>
        <pt x="577" y="684" on="0"/>
        <pt x="576" y="689" on="0"/>
        <pt x="574" y="691" on="1"/>
        <pt x="578" y="696" on="0"/>
        <pt x="589" y="705" on="0"/>
        <pt x="596" y="703" on="1"/>
        <pt x="606" y="693" on="0"/>
        <pt x="607" y="682" on="0"/>
      </contour>
      <contour>
        <pt x="226" y="673" on="1"/>
        <pt x="224" y="668" on="0"/>
        <pt x="224" y="660" on="1"/>
        <pt x="222" y="656" on="0"/>
        <pt x="214" y="653" on="0"/>
        <pt x="210" y="651" on="1"/>
        <pt x="206" y="651" on="0"/>
        <pt x="202" y="655" on="0"/>
        <pt x="197" y="655" on="1"/>
        <pt x="198" y="658" on="0"/>
        <pt x="194" y="663" on="0"/>
        <pt x="194" y="666" on="1"/>
        <pt x="193" y="669" on="0"/>
        <pt x="196" y="675" on="0"/>
        <pt x="195" y="678" on="1"/>
        <pt x="206" y="684" on="0"/>
        <pt x="216" y="682" on="0"/>
        <pt x="220" y="680" on="1"/>
      </contour>
      <contour>
        <pt x="644" y="645" on="1"/>
        <pt x="657" y="648" on="0"/>
        <pt x="665" y="643" on="0"/>
        <pt x="670" y="643" on="1"/>
        <pt x="675" y="637" on="0"/>
        <pt x="677" y="629" on="0"/>
        <pt x="675" y="624" on="1"/>
        <pt x="668" y="616" on="0"/>
        <pt x="666" y="615" on="0"/>
        <pt x="665" y="615" on="1"/>
        <pt x="653" y="614" on="0"/>
        <pt x="644" y="622" on="0"/>
        <pt x="642" y="627" on="1"/>
        <pt x="644" y="635" on="0"/>
        <pt x="646" y="638" on="1"/>
      </contour>
      <contour>
        <pt x="138" y="582" on="1"/>
        <pt x="142" y="574" on="0"/>
        <pt x="142" y="566" on="1"/>
        <pt x="138" y="559" on="0"/>
        <pt x="134" y="557" on="1"/>
        <pt x="132" y="557" on="0"/>
        <pt x="125" y="556" on="0"/>
        <pt x="123" y="556" on="1"/>
        <pt x="117" y="561" on="0"/>
        <pt x="110" y="567" on="0"/>
        <pt x="110" y="572" on="1"/>
        <pt x="115" y="582" on="1"/>
        <pt x="117" y="585" on="0"/>
        <pt x="125" y="586" on="0"/>
        <pt x="127" y="586" on="1"/>
        <pt x="132" y="586" on="0"/>
      </contour>
      <contour>
        <pt x="61" y="458" on="1"/>
        <pt x="66" y="460" on="0"/>
        <pt x="73" y="467" on="0"/>
        <pt x="78" y="467" on="1"/>
        <pt x="84" y="464" on="0"/>
        <pt x="90" y="465" on="0"/>
        <pt x="92" y="463" on="1"/>
        <pt x="94" y="459" on="0"/>
        <pt x="96" y="450" on="0"/>
        <pt x="94" y="445" on="1"/>
        <pt x="88" y="439" on="0"/>
        <pt x="86" y="440" on="0"/>
        <pt x="84" y="439" on="1"/>
        <pt x="70" y="440" on="0"/>
        <pt x="66" y="443" on="0"/>
        <pt x="62" y="447" on="1"/>
        <pt x="65" y="454" on="0"/>
        <pt x="60" y="455" on="0"/>
      </contour>
      <contour>
        <pt x="380" y="333" on="1"/>
        <pt x="379" y="328" on="0"/>
        <pt x="388" y="326" on="0"/>
        <pt x="393" y="326" on="1"/>
        <pt x="393" y="324" on="0"/>
        <pt x="396" y="320" on="0"/>
        <pt x="395" y="315" on="1"/>
        <pt x="385" y="312" on="0"/>
        <pt x="382" y="304" on="1"/>
        <pt x="377" y="305" on="0"/>
        <pt x="371" y="300" on="0"/>
        <pt x="366" y="302" on="1"/>
        <pt x="359" y="308" on="0"/>
        <pt x="357" y="308" on="0"/>
        <pt x="355" y="310" on="1"/>
        <pt x="355" y="315" on="0"/>
        <pt x="354" y="323" on="0"/>
        <pt x="356" y="327" on="1"/>
        <pt x="360" y="333" on="0"/>
        <pt x="365" y="333" on="0"/>
        <pt x="365" y="335" on="1"/>
        <pt x="370" y="335" on="0"/>
        <pt x="376" y="331" on="0"/>
      </contour>
      <contour>
        <pt x="487" y="332" on="1"/>
        <pt x="492" y="325" on="0"/>
        <pt x="494" y="318" on="0"/>
        <pt x="492" y="316" on="1"/>
        <pt x="489" y="308" on="0"/>
        <pt x="487" y="303" on="1"/>
        <pt x="471" y="303" on="1"/>
        <pt x="468" y="305" on="0"/>
        <pt x="464" y="311" on="0"/>
        <pt x="462" y="313" on="1"/>
        <pt x="463" y="316" on="0"/>
        <pt x="463" y="324" on="0"/>
        <pt x="463" y="328" on="1"/>
        <pt x="468" y="328" on="0"/>
        <pt x="472" y="332" on="0"/>
        <pt x="475" y="334" on="1"/>
        <pt x="478" y="332" on="0"/>
        <pt x="482" y="333" on="0"/>
      </contour>
      <contour>
        <pt x="582" y="333" on="1"/>
        <pt x="587" y="322" on="0"/>
        <pt x="591" y="323" on="0"/>
        <pt x="591" y="321" on="1"/>
        <pt x="591" y="310" on="0"/>
        <pt x="586" y="305" on="1"/>
        <pt x="576" y="305" on="0"/>
        <pt x="573" y="303" on="0"/>
        <pt x="570" y="305" on="1"/>
        <pt x="561" y="313" on="0"/>
        <pt x="561" y="314" on="1"/>
        <pt x="561" y="315" on="0"/>
        <pt x="563" y="327" on="0"/>
        <pt x="565" y="329" on="1"/>
        <pt x="569" y="333" on="0"/>
      </contour>
      <contour>
        <pt x="92" y="335" on="1"/>
        <pt x="94" y="330" on="0"/>
        <pt x="94" y="321" on="0"/>
        <pt x="94" y="313" on="1"/>
        <pt x="90" y="309" on="0"/>
        <pt x="78" y="309" on="0"/>
        <pt x="70" y="309" on="1"/>
        <pt x="63" y="317" on="0"/>
        <pt x="63" y="319" on="0"/>
        <pt x="63" y="322" on="1"/>
        <pt x="63" y="327" on="0"/>
        <pt x="67" y="333" on="0"/>
        <pt x="69" y="336" on="1"/>
        <pt x="73" y="337" on="0"/>
        <pt x="78" y="339" on="0"/>
        <pt x="82" y="338" on="1"/>
      </contour>
      <contour>
        <pt x="666" y="299" on="1"/>
        <pt x="659" y="297" on="0"/>
        <pt x="654" y="298" on="0"/>
        <pt x="652" y="295" on="1"/>
        <pt x="647" y="298" on="0"/>
        <pt x="639" y="304" on="0"/>
        <pt x="639" y="309" on="1"/>
        <pt x="643" y="316" on="0"/>
        <pt x="643" y="320" on="0"/>
        <pt x="645" y="322" on="1"/>
        <pt x="658" y="326" on="0"/>
        <pt x="669" y="320" on="0"/>
        <pt x="671" y="314" on="1"/>
        <pt x="669" y="305" on="0"/>
        <pt x="668" y="301" on="0"/>
      </contour>
      <contour>
        <pt x="665" y="221" on="1"/>
        <pt x="665" y="216" on="0"/>
        <pt x="669" y="209" on="0"/>
        <pt x="667" y="205" on="1"/>
        <pt x="665" y="197" on="0"/>
        <pt x="651" y="193" on="0"/>
        <pt x="645" y="195" on="1"/>
        <pt x="642" y="200" on="0"/>
        <pt x="634" y="208" on="0"/>
        <pt x="636" y="216" on="1"/>
        <pt x="640" y="218" on="0"/>
        <pt x="647" y="223" on="0"/>
        <pt x="652" y="225" on="1"/>
        <pt x="656" y="225" on="0"/>
        <pt x="659" y="220" on="0"/>
      </contour>
      <contour>
        <pt x="131" y="208" on="1"/>
        <pt x="129" y="200" on="0"/>
        <pt x="132" y="193" on="1"/>
        <pt x="126" y="186" on="0"/>
        <pt x="125" y="184" on="0"/>
        <pt x="123" y="183" on="1"/>
        <pt x="108" y="183" on="0"/>
        <pt x="102" y="192" on="0"/>
        <pt x="99" y="194" on="1"/>
        <pt x="98" y="201" on="0"/>
        <pt x="105" y="210" on="0"/>
        <pt x="116" y="213" on="0"/>
        <pt x="127" y="211" on="0"/>
      </contour>
      <contour>
        <pt x="634" y="112" on="1"/>
        <pt x="635" y="118" on="0"/>
        <pt x="638" y="121" on="0"/>
        <pt x="637" y="125" on="1"/>
        <pt x="640" y="127" on="0"/>
        <pt x="645" y="132" on="0"/>
        <pt x="650" y="132" on="1"/>
        <pt x="657" y="129" on="0"/>
        <pt x="660" y="127" on="0"/>
        <pt x="663" y="126" on="1"/>
        <pt x="664" y="114" on="0"/>
        <pt x="665" y="112" on="0"/>
        <pt x="665" y="110" on="1"/>
        <pt x="662" y="106" on="0"/>
        <pt x="658" y="102" on="0"/>
        <pt x="656" y="102" on="1"/>
        <pt x="653" y="101" on="0"/>
        <pt x="647" y="102" on="0"/>
        <pt x="644" y="102" on="1"/>
        <pt x="642" y="104" on="0"/>
        <pt x="638" y="110" on="0"/>
      </contour>
      <contour>
        <pt x="179" y="104" on="1"/>
        <pt x="181" y="99" on="0"/>
        <pt x="184" y="86" on="0"/>
        <pt x="182" y="79" on="1"/>
        <pt x="177" y="78" on="0"/>
        <pt x="169" y="78" on="0"/>
        <pt x="164" y="77" on="1"/>
        <pt x="160" y="82" on="0"/>
        <pt x="153" y="87" on="0"/>
        <pt x="153" y="94" on="1"/>
        <pt x="154" y="102" on="0"/>
        <pt x="169" y="107" on="0"/>
      </contour>
      <contour>
        <pt x="291" y="38" on="1"/>
        <pt x="290" y="33" on="0"/>
        <pt x="291" y="30" on="0"/>
        <pt x="291" y="25" on="1"/>
        <pt x="282" y="16" on="1"/>
        <pt x="270" y="17" on="0"/>
        <pt x="262" y="27" on="0"/>
        <pt x="262" y="30" on="1"/>
        <pt x="261" y="32" on="0"/>
        <pt x="264" y="38" on="0"/>
        <pt x="263" y="42" on="1"/>
        <pt x="270" y="45" on="0"/>
        <pt x="288" y="46" on="0"/>
      </contour>
      <contour>
        <pt x="594" y="15" on="1"/>
        <pt x="593" y="12" on="0"/>
        <pt x="593" y="7" on="0"/>
        <pt x="592" y="4" on="1"/>
        <pt x="590" y="0" on="0"/>
        <pt x="580" y="-5" on="0"/>
        <pt x="573" y="-3" on="1"/>
        <pt x="570" y="-2" on="0"/>
        <pt x="567" y="2" on="0"/>
        <pt x="562" y="4" on="1"/>
        <pt x="561" y="13" on="0"/>
        <pt x="569" y="25" on="0"/>
        <pt x="577" y="25" on="1"/>
        <pt x="581" y="25" on="0"/>
        <pt x="586" y="18" on="0"/>
        <pt x="591" y="20" on="1"/>
      </contour>
      <contour>
        <pt x="408" y="12" on="1"/>
        <pt x="404" y="3" on="0"/>
        <pt x="409" y="2" on="0"/>
        <pt x="408" y="0" on="1"/>
        <pt x="403" y="-2" on="0"/>
        <pt x="393" y="-10" on="0"/>
        <pt x="388" y="-8" on="1"/>
        <pt x="384" y="-6" on="0"/>
        <pt x="382" y="-1" on="0"/>
        <pt x="377" y="0" on="1"/>
        <pt x="375" y="13" on="0"/>
        <pt x="381" y="19" on="1"/>
        <pt x="394" y="21" on="0"/>
        <pt x="404" y="16" on="0"/>
      </contour>
      <contour>
        <pt x="492" y="-18" on="1"/>
        <pt x="487" y="-15" on="0"/>
        <pt x="481" y="-2" on="0"/>
        <pt x="484" y="3" on="1"/>
        <pt x="496" y="9" on="0"/>
        <pt x="506" y="7" on="0"/>
        <pt x="509" y="5" on="1"/>
        <pt x="511" y="-4" on="0"/>
        <pt x="514" y="-4" on="0"/>
        <pt x="513" y="-8" on="1"/>
        <pt x="504" y="-20" on="0"/>
      </contour>
      <contour>
        <pt x="650" y="46" on="1"/>
        <pt x="662" y="46" on="1"/>
        <pt x="664" y="44" on="0"/>
        <pt x="669" y="39" on="0"/>
        <pt x="671" y="37" on="1"/>
        <pt x="671" y="24" on="0"/>
        <pt x="664" y="17" on="1"/>
        <pt x="656" y="17" on="0"/>
        <pt x="648" y="15" on="0"/>
        <pt x="643" y="20" on="1"/>
        <pt x="639" y="30" on="0"/>
        <pt x="642" y="39" on="0"/>
        <pt x="642" y="44" on="1"/>
      </contour>
    </TTGlyph>
    <TTGlyph name="H" xMin="92" yMin="-8" xMax="720" yMax="757">
      <contour>
        <pt x="99" y="756" on="1"/>
        <pt x="109" y="757" on="0"/>
        <pt x="118" y="754" on="0"/>
        <pt x="123" y="752" on="1"/>
        <pt x="129" y="737" on="0"/>
        <pt x="121" y="725" on="0"/>
        <pt x="115" y="723" on="1"/>
        <pt x="111" y="723" on="0"/>
        <pt x="97" y="727" on="0"/>
        <pt x="95" y="729" on="1"/>
        <pt x="92" y="739" on="0"/>
        <pt x="94" y="742" on="0"/>
        <pt x="94" y="744" on="1"/>
        <pt x="95" y="749" on="0"/>
        <pt x="101" y="751" on="0"/>
      </contour>
      <contour>
        <pt x="717" y="741" on="1"/>
        <pt x="717" y="735" on="0"/>
        <pt x="720" y="728" on="0"/>
        <pt x="718" y="722" on="1"/>
        <pt x="713" y="722" on="0"/>
        <pt x="707" y="718" on="0"/>
        <pt x="702" y="716" on="1"/>
        <pt x="699" y="718" on="0"/>
        <pt x="689" y="722" on="0"/>
        <pt x="688" y="727" on="1"/>
        <pt x="686" y="730" on="0"/>
        <pt x="689" y="736" on="0"/>
        <pt x="690" y="741" on="1"/>
        <pt x="692" y="743" on="0"/>
        <pt x="703" y="748" on="0"/>
        <pt x="706" y="743" on="1"/>
        <pt x="710" y="745" on="0"/>
        <pt x="714" y="743" on="0"/>
      </contour>
      <contour>
        <pt x="98" y="637" on="1"/>
        <pt x="95" y="642" on="0"/>
        <pt x="95" y="650" on="0"/>
        <pt x="95" y="658" on="1"/>
        <pt x="105" y="665" on="0"/>
        <pt x="118" y="663" on="1"/>
        <pt x="119" y="659" on="0"/>
        <pt x="127" y="656" on="0"/>
        <pt x="126" y="652" on="1"/>
        <pt x="127" y="642" on="0"/>
        <pt x="120" y="633" on="0"/>
        <pt x="116" y="633" on="1"/>
        <pt x="112" y="631" on="0"/>
        <pt x="103" y="635" on="0"/>
      </contour>
      <contour>
        <pt x="715" y="635" on="1"/>
        <pt x="710" y="634" on="0"/>
        <pt x="700" y="630" on="0"/>
        <pt x="695" y="631" on="1"/>
        <pt x="682" y="635" on="0"/>
        <pt x="685" y="654" on="1"/>
        <pt x="689" y="660" on="0"/>
        <pt x="701" y="659" on="0"/>
        <pt x="708" y="660" on="1"/>
        <pt x="710" y="657" on="0"/>
        <pt x="715" y="653" on="0"/>
        <pt x="716" y="648" on="1"/>
        <pt x="717" y="645" on="0"/>
        <pt x="714" y="639" on="0"/>
      </contour>
      <contour>
        <pt x="708" y="567" on="1"/>
        <pt x="711" y="563" on="0"/>
        <pt x="713" y="553" on="0"/>
        <pt x="715" y="548" on="1"/>
        <pt x="710" y="543" on="0"/>
        <pt x="698" y="536" on="0"/>
        <pt x="688" y="538" on="1"/>
        <pt x="686" y="541" on="0"/>
        <pt x="683" y="548" on="0"/>
        <pt x="681" y="550" on="1"/>
        <pt x="685" y="558" on="0"/>
        <pt x="684" y="559" on="0"/>
        <pt x="686" y="561" on="1"/>
        <pt x="698" y="568" on="0"/>
        <pt x="703" y="566" on="0"/>
      </contour>
      <contour>
        <pt x="124" y="571" on="1"/>
        <pt x="124" y="568" on="0"/>
        <pt x="127" y="562" on="0"/>
        <pt x="127" y="560" on="1"/>
        <pt x="127" y="556" on="0"/>
        <pt x="121" y="551" on="0"/>
        <pt x="122" y="546" on="1"/>
        <pt x="108" y="543" on="0"/>
        <pt x="93" y="555" on="0"/>
        <pt x="93" y="567" on="1"/>
        <pt x="101" y="572" on="0"/>
        <pt x="103" y="573" on="0"/>
        <pt x="103" y="574" on="1"/>
        <pt x="110" y="575" on="0"/>
        <pt x="119" y="573" on="0"/>
      </contour>
      <contour>
        <pt x="695" y="474" on="1"/>
        <pt x="696" y="470" on="0"/>
        <pt x="707" y="470" on="1"/>
        <pt x="709" y="468" on="0"/>
        <pt x="715" y="464" on="0"/>
        <pt x="717" y="462" on="1"/>
        <pt x="717" y="449" on="1"/>
        <pt x="713" y="447" on="0"/>
        <pt x="708" y="439" on="0"/>
        <pt x="699" y="441" on="1"/>
        <pt x="690" y="447" on="0"/>
        <pt x="688" y="450" on="0"/>
        <pt x="687" y="451" on="1"/>
        <pt x="687" y="460" on="0"/>
        <pt x="689" y="464" on="0"/>
        <pt x="690" y="466" on="1"/>
      </contour>
      <contour>
        <pt x="98" y="481" on="1"/>
        <pt x="103" y="480" on="0"/>
        <pt x="115" y="478" on="0"/>
        <pt x="120" y="477" on="1"/>
        <pt x="125" y="473" on="0"/>
        <pt x="125" y="461" on="0"/>
        <pt x="123" y="456" on="1"/>
        <pt x="118" y="456" on="0"/>
        <pt x="112" y="451" on="0"/>
        <pt x="108" y="451" on="1"/>
        <pt x="102" y="452" on="0"/>
        <pt x="96" y="459" on="0"/>
        <pt x="92" y="462" on="1"/>
        <pt x="97" y="471" on="0"/>
        <pt x="95" y="472" on="0"/>
        <pt x="95" y="474" on="1"/>
      </contour>
      <contour>
        <pt x="715" y="381" on="1"/>
        <pt x="717" y="373" on="0"/>
        <pt x="716" y="357" on="0"/>
        <pt x="708" y="353" on="1"/>
        <pt x="703" y="352" on="0"/>
        <pt x="695" y="355" on="0"/>
        <pt x="693" y="353" on="1"/>
        <pt x="691" y="355" on="0"/>
        <pt x="686" y="360" on="0"/>
        <pt x="684" y="364" on="1"/>
        <pt x="684" y="368" on="0"/>
        <pt x="688" y="374" on="0"/>
        <pt x="684" y="376" on="1"/>
        <pt x="688" y="381" on="0"/>
        <pt x="695" y="385" on="0"/>
        <pt x="699" y="385" on="1"/>
        <pt x="702" y="385" on="0"/>
        <pt x="710" y="380" on="0"/>
      </contour>
      <contour>
        <pt x="241" y="372" on="1"/>
        <pt x="231" y="361" on="0"/>
        <pt x="228" y="358" on="0"/>
        <pt x="223" y="356" on="1"/>
        <pt x="219" y="354" on="0"/>
        <pt x="212" y="355" on="0"/>
        <pt x="205" y="356" on="1"/>
        <pt x="205" y="361" on="0"/>
        <pt x="200" y="363" on="0"/>
        <pt x="199" y="368" on="1"/>
        <pt x="208" y="383" on="0"/>
        <pt x="227" y="381" on="0"/>
        <pt x="231" y="375" on="1"/>
      </contour>
      <contour>
        <pt x="347" y="359" on="1"/>
        <pt x="344" y="357" on="0"/>
        <pt x="341" y="351" on="0"/>
        <pt x="338" y="350" on="1"/>
        <pt x="325" y="348" on="0"/>
        <pt x="319" y="355" on="0"/>
        <pt x="314" y="359" on="1"/>
        <pt x="314" y="364" on="0"/>
        <pt x="310" y="370" on="0"/>
        <pt x="308" y="372" on="1"/>
        <pt x="319" y="375" on="0"/>
        <pt x="329" y="382" on="0"/>
        <pt x="338" y="381" on="1"/>
        <pt x="345" y="375" on="0"/>
        <pt x="344" y="372" on="0"/>
        <pt x="346" y="373" on="1"/>
        <pt x="348" y="368" on="0"/>
        <pt x="343" y="363" on="0"/>
      </contour>
      <contour>
        <pt x="449" y="373" on="1"/>
        <pt x="449" y="369" on="0"/>
        <pt x="451" y="361" on="0"/>
        <pt x="450" y="358" on="1"/>
        <pt x="442" y="351" on="0"/>
        <pt x="430" y="349" on="0"/>
        <pt x="425" y="351" on="1"/>
        <pt x="423" y="353" on="0"/>
        <pt x="419" y="359" on="0"/>
        <pt x="418" y="361" on="1"/>
        <pt x="418" y="363" on="0"/>
        <pt x="421" y="374" on="0"/>
        <pt x="423" y="376" on="1"/>
        <pt x="428" y="381" on="0"/>
        <pt x="443" y="378" on="0"/>
      </contour>
      <contour>
        <pt x="627" y="375" on="1"/>
        <pt x="631" y="363" on="0"/>
        <pt x="628" y="355" on="0"/>
        <pt x="627" y="352" on="1"/>
        <pt x="621" y="351" on="0"/>
        <pt x="619" y="353" on="0"/>
        <pt x="616" y="351" on="1"/>
        <pt x="604" y="353" on="0"/>
        <pt x="600" y="356" on="0"/>
        <pt x="598" y="358" on="1"/>
        <pt x="599" y="371" on="0"/>
        <pt x="605" y="378" on="0"/>
        <pt x="610" y="380" on="1"/>
        <pt x="619" y="379" on="0"/>
        <pt x="625" y="376" on="0"/>
      </contour>
      <contour>
        <pt x="535" y="375" on="1"/>
        <pt x="542" y="366" on="0"/>
        <pt x="540" y="359" on="0"/>
        <pt x="543" y="358" on="1"/>
        <pt x="535" y="351" on="0"/>
        <pt x="532" y="349" on="0"/>
        <pt x="527" y="348" on="1"/>
        <pt x="521" y="347" on="0"/>
        <pt x="516" y="348" on="1"/>
        <pt x="512" y="351" on="0"/>
        <pt x="509" y="363" on="0"/>
        <pt x="509" y="368" on="1"/>
        <pt x="514" y="377" on="0"/>
      </contour>
      <contour>
        <pt x="124" y="364" on="1"/>
        <pt x="121" y="362" on="0"/>
        <pt x="114" y="357" on="0"/>
        <pt x="111" y="357" on="1"/>
        <pt x="98" y="367" on="0"/>
        <pt x="93" y="370" on="1"/>
        <pt x="93" y="383" on="0"/>
        <pt x="99" y="384" on="0"/>
        <pt x="101" y="389" on="1"/>
        <pt x="105" y="388" on="0"/>
        <pt x="111" y="389" on="0"/>
        <pt x="114" y="388" on="1"/>
        <pt x="123" y="379" on="0"/>
        <pt x="126" y="379" on="1"/>
        <pt x="125" y="372" on="0"/>
        <pt x="123" y="368" on="0"/>
      </contour>
      <contour>
        <pt x="686" y="265" on="1"/>
        <pt x="685" y="269" on="0"/>
        <pt x="683" y="275" on="0"/>
        <pt x="681" y="279" on="1"/>
        <pt x="686" y="279" on="0"/>
        <pt x="688" y="286" on="0"/>
        <pt x="691" y="288" on="1"/>
        <pt x="696" y="290" on="0"/>
        <pt x="707" y="288" on="0"/>
        <pt x="712" y="287" on="1"/>
        <pt x="714" y="283" on="0"/>
        <pt x="715" y="275" on="1"/>
        <pt x="715" y="265" on="0"/>
        <pt x="704" y="259" on="0"/>
        <pt x="698" y="259" on="1"/>
        <pt x="694" y="260" on="0"/>
        <pt x="689" y="263" on="0"/>
      </contour>
      <contour>
        <pt x="127" y="290" on="1"/>
        <pt x="128" y="286" on="0"/>
        <pt x="127" y="278" on="0"/>
        <pt x="129" y="273" on="1"/>
        <pt x="117" y="263" on="0"/>
        <pt x="102" y="269" on="0"/>
        <pt x="96" y="271" on="1"/>
        <pt x="96" y="283" on="0"/>
        <pt x="100" y="287" on="0"/>
        <pt x="100" y="291" on="1"/>
        <pt x="106" y="296" on="0"/>
        <pt x="121" y="293" on="0"/>
      </contour>
      <contour>
        <pt x="689" y="172" on="1"/>
        <pt x="686" y="174" on="0"/>
        <pt x="685" y="183" on="0"/>
        <pt x="682" y="186" on="1"/>
        <pt x="686" y="196" on="0"/>
        <pt x="693" y="201" on="1"/>
        <pt x="698" y="202" on="0"/>
        <pt x="704" y="197" on="0"/>
        <pt x="710" y="198" on="1"/>
        <pt x="713" y="194" on="0"/>
        <pt x="719" y="184" on="0"/>
        <pt x="715" y="178" on="1"/>
        <pt x="711" y="172" on="0"/>
        <pt x="707" y="171" on="0"/>
        <pt x="706" y="169" on="1"/>
        <pt x="696" y="169" on="0"/>
      </contour>
      <contour>
        <pt x="126" y="172" on="1"/>
        <pt x="114" y="171" on="0"/>
        <pt x="104" y="172" on="1"/>
        <pt x="99" y="181" on="0"/>
        <pt x="97" y="183" on="1"/>
        <pt x="97" y="188" on="0"/>
        <pt x="99" y="197" on="0"/>
        <pt x="101" y="199" on="1"/>
        <pt x="109" y="200" on="0"/>
        <pt x="116" y="200" on="0"/>
        <pt x="123" y="199" on="1"/>
        <pt x="124" y="184" on="0"/>
      </contour>
      <contour>
        <pt x="715" y="111" on="1"/>
        <pt x="717" y="106" on="0"/>
        <pt x="717" y="92" on="0"/>
        <pt x="715" y="87" on="1"/>
        <pt x="705" y="83" on="0"/>
        <pt x="695" y="83" on="1"/>
        <pt x="687" y="90" on="0"/>
        <pt x="685" y="97" on="0"/>
        <pt x="683" y="101" on="1"/>
        <pt x="686" y="103" on="0"/>
        <pt x="689" y="109" on="0"/>
        <pt x="690" y="112" on="1"/>
        <pt x="693" y="112" on="0"/>
        <pt x="698" y="115" on="0"/>
        <pt x="701" y="115" on="1"/>
        <pt x="705" y="115" on="0"/>
        <pt x="712" y="112" on="0"/>
      </contour>
      <contour>
        <pt x="129" y="99" on="1"/>
        <pt x="127" y="95" on="0"/>
        <pt x="123" y="90" on="0"/>
        <pt x="124" y="84" on="1"/>
        <pt x="117" y="79" on="0"/>
        <pt x="105" y="82" on="1"/>
        <pt x="103" y="84" on="0"/>
        <pt x="99" y="89" on="0"/>
        <pt x="95" y="90" on="1"/>
        <pt x="95" y="94" on="0"/>
        <pt x="97" y="98" on="0"/>
        <pt x="96" y="103" on="1"/>
        <pt x="110" y="112" on="0"/>
        <pt x="115" y="112" on="0"/>
        <pt x="119" y="110" on="1"/>
        <pt x="122" y="100" on="0"/>
      </contour>
      <contour>
        <pt x="712" y="23" on="1"/>
        <pt x="712" y="18" on="0"/>
        <pt x="715" y="11" on="0"/>
        <pt x="714" y="7" on="1"/>
        <pt x="710" y="-1" on="0"/>
        <pt x="703" y="-3" on="0"/>
        <pt x="702" y="-7" on="1"/>
        <pt x="698" y="-5" on="0"/>
        <pt x="692" y="-4" on="0"/>
        <pt x="688" y="-2" on="1"/>
        <pt x="684" y="1" on="0"/>
        <pt x="681" y="8" on="0"/>
        <pt x="681" y="11" on="1"/>
        <pt x="682" y="21" on="0"/>
        <pt x="686" y="22" on="0"/>
        <pt x="683" y="24" on="1"/>
        <pt x="690" y="29" on="0"/>
        <pt x="705" y="25" on="0"/>
      </contour>
      <contour>
        <pt x="121" y="26" on="1"/>
        <pt x="123" y="24" on="0"/>
        <pt x="126" y="16" on="0"/>
        <pt x="124" y="14" on="1"/>
        <pt x="128" y="2" on="0"/>
        <pt x="124" y="-5" on="1"/>
        <pt x="120" y="-8" on="0"/>
        <pt x="109" y="-8" on="0"/>
        <pt x="102" y="-7" on="1"/>
        <pt x="100" y="-5" on="0"/>
        <pt x="98" y="1" on="0"/>
        <pt x="94" y="2" on="1"/>
        <pt x="92" y="9" on="0"/>
        <pt x="100" y="18" on="0"/>
        <pt x="102" y="23" on="1"/>
        <pt x="109" y="24" on="0"/>
        <pt x="115" y="24" on="0"/>
      </contour>
    </TTGlyph>
    <TTGlyph name="I" xMin="92" yMin="-10" xMax="132" yMax="752">
      <contour>
        <pt x="129" y="740" on="1"/>
        <pt x="130" y="735" on="0"/>
        <pt x="128" y="730" on="0"/>
        <pt x="128" y="726" on="1"/>
        <pt x="117" y="723" on="0"/>
        <pt x="111" y="721" on="0"/>
        <pt x="109" y="721" on="1"/>
        <pt x="97" y="727" on="0"/>
        <pt x="97" y="735" on="1"/>
        <pt x="97" y="740" on="0"/>
        <pt x="102" y="745" on="0"/>
        <pt x="104" y="750" on="1"/>
        <pt x="113" y="752" on="0"/>
        <pt x="125" y="744" on="0"/>
      </contour>
      <contour>
        <pt x="132" y="653" on="1"/>
        <pt x="129" y="643" on="0"/>
        <pt x="129" y="640" on="1"/>
        <pt x="121" y="635" on="0"/>
        <pt x="119" y="635" on="1"/>
        <pt x="113" y="633" on="0"/>
        <pt x="104" y="637" on="0"/>
        <pt x="102" y="639" on="1"/>
        <pt x="96" y="650" on="0"/>
        <pt x="99" y="654" on="0"/>
        <pt x="98" y="658" on="1"/>
        <pt x="102" y="659" on="0"/>
        <pt x="107" y="665" on="0"/>
        <pt x="112" y="665" on="1"/>
        <pt x="122" y="660" on="0"/>
        <pt x="130" y="656" on="0"/>
      </contour>
      <contour>
        <pt x="124" y="544" on="1"/>
        <pt x="116" y="541" on="0"/>
        <pt x="108" y="542" on="1"/>
        <pt x="103" y="546" on="0"/>
        <pt x="96" y="554" on="0"/>
        <pt x="100" y="561" on="1"/>
        <pt x="114" y="570" on="0"/>
        <pt x="123" y="564" on="0"/>
        <pt x="128" y="561" on="1"/>
        <pt x="128" y="553" on="0"/>
        <pt x="126" y="546" on="0"/>
      </contour>
      <contour>
        <pt x="102" y="446" on="1"/>
        <pt x="101" y="452" on="0"/>
        <pt x="97" y="463" on="0"/>
        <pt x="98" y="468" on="1"/>
        <pt x="102" y="470" on="0"/>
        <pt x="108" y="473" on="0"/>
        <pt x="113" y="472" on="1"/>
        <pt x="117" y="471" on="0"/>
        <pt x="122" y="466" on="0"/>
        <pt x="126" y="466" on="1"/>
        <pt x="126" y="457" on="0"/>
        <pt x="123" y="449" on="0"/>
        <pt x="120" y="444" on="1"/>
        <pt x="114" y="445" on="0"/>
        <pt x="107" y="444" on="0"/>
      </contour>
      <contour>
        <pt x="119" y="350" on="1"/>
        <pt x="111" y="348" on="0"/>
        <pt x="106" y="349" on="1"/>
        <pt x="100" y="352" on="0"/>
        <pt x="99" y="352" on="0"/>
        <pt x="97" y="356" on="1"/>
        <pt x="93" y="365" on="0"/>
        <pt x="95" y="368" on="1"/>
        <pt x="98" y="373" on="0"/>
        <pt x="103" y="375" on="0"/>
        <pt x="103" y="377" on="1"/>
        <pt x="111" y="378" on="0"/>
        <pt x="115" y="376" on="0"/>
        <pt x="120" y="374" on="1"/>
        <pt x="121" y="370" on="0"/>
        <pt x="126" y="367" on="0"/>
        <pt x="126" y="364" on="1"/>
        <pt x="126" y="359" on="0"/>
        <pt x="121" y="355" on="0"/>
      </contour>
      <contour>
        <pt x="104" y="285" on="1"/>
        <pt x="105" y="287" on="0"/>
        <pt x="113" y="283" on="0"/>
        <pt x="115" y="286" on="1"/>
        <pt x="121" y="280" on="0"/>
        <pt x="124" y="280" on="0"/>
        <pt x="126" y="279" on="1"/>
        <pt x="128" y="272" on="0"/>
        <pt x="124" y="263" on="0"/>
        <pt x="122" y="259" on="1"/>
        <pt x="116" y="257" on="0"/>
        <pt x="102" y="258" on="0"/>
        <pt x="98" y="262" on="1"/>
        <pt x="96" y="269" on="0"/>
        <pt x="98" y="282" on="0"/>
      </contour>
      <contour>
        <pt x="116" y="196" on="1"/>
        <pt x="119" y="188" on="0"/>
        <pt x="126" y="187" on="1"/>
        <pt x="127" y="177" on="0"/>
        <pt x="130" y="177" on="0"/>
        <pt x="131" y="175" on="1"/>
        <pt x="125" y="172" on="0"/>
        <pt x="123" y="169" on="0"/>
        <pt x="121" y="170" on="1"/>
        <pt x="116" y="168" on="0"/>
        <pt x="108" y="167" on="0"/>
        <pt x="103" y="168" on="1"/>
        <pt x="96" y="173" on="0"/>
        <pt x="92" y="179" on="0"/>
        <pt x="92" y="180" on="1"/>
        <pt x="97" y="189" on="0"/>
        <pt x="102" y="192" on="0"/>
        <pt x="104" y="196" on="1"/>
        <pt x="107" y="194" on="0"/>
        <pt x="113" y="197" on="0"/>
      </contour>
      <contour>
        <pt x="108" y="106" on="1"/>
        <pt x="115" y="102" on="0"/>
        <pt x="119" y="102" on="1"/>
        <pt x="124" y="93" on="0"/>
        <pt x="126" y="85" on="0"/>
        <pt x="124" y="83" on="1"/>
        <pt x="119" y="79" on="0"/>
        <pt x="107" y="79" on="0"/>
        <pt x="99" y="80" on="1"/>
        <pt x="98" y="84" on="0"/>
        <pt x="95" y="87" on="0"/>
        <pt x="95" y="92" on="1"/>
        <pt x="101" y="103" on="0"/>
        <pt x="106" y="104" on="0"/>
      </contour>
      <contour>
        <pt x="95" y="15" on="1"/>
        <pt x="104" y="19" on="0"/>
        <pt x="105" y="20" on="0"/>
        <pt x="108" y="20" on="1"/>
        <pt x="111" y="22" on="0"/>
        <pt x="116" y="17" on="0"/>
        <pt x="120" y="16" on="1"/>
        <pt x="124" y="8" on="0"/>
        <pt x="123" y="3" on="0"/>
        <pt x="125" y="2" on="1"/>
        <pt x="123" y="-1" on="0"/>
        <pt x="118" y="-3" on="0"/>
        <pt x="118" y="-7" on="1"/>
        <pt x="108" y="-10" on="0"/>
        <pt x="97" y="-2" on="0"/>
        <pt x="94" y="3" on="1"/>
        <pt x="95" y="5" on="0"/>
        <pt x="95" y="12" on="0"/>
      </contour>
    </TTGlyph>
    <TTGlyph name="Iacute" xMin="92" yMin="-10" xMax="218" yMax="940">
      <component glyphName="I" x="0" y="0" flags="0x204"/>
      <component glyphName="acute" x="-255" y="195" flags="0x4"/>
    </TTGlyph>
    <TTGlyph name="Icircumflex" xMin="6" yMin="-10" xMax="223" yMax="942">
      <component glyphName="I" x="0" y="0" flags="0x204"/>
      <component glyphName="circumflex" x="-296" y="197" flags="0x4"/>
    </TTGlyph>
    <TTGlyph name="Idieresis" xMin="-16" yMin="-10" xMax="245" yMax="944">
      <component glyphName="I" x="0" y="0" flags="0x204"/>
      <component glyphName="dieresis" x="-297" y="196" flags="0x4"/>
    </TTGlyph>
    <TTGlyph name="Igrave" xMin="21" yMin="-10" xMax="146" yMax="950">
      <component glyphName="I" x="0" y="0" flags="0x204"/>
      <component glyphName="grave" x="-327" y="205" flags="0x4"/>
    </TTGlyph>
    <TTGlyph name="J" xMin="46" yMin="-19" xMax="452" yMax="749">
      <contour>
        <pt x="439" y="742" on="1"/>
        <pt x="446" y="734" on="0"/>
        <pt x="443" y="731" on="0"/>
        <pt x="446" y="729" on="1"/>
        <pt x="441" y="724" on="0"/>
        <pt x="439" y="720" on="0"/>
        <pt x="436" y="719" on="1"/>
        <pt x="432" y="718" on="0"/>
        <pt x="426" y="721" on="0"/>
        <pt x="421" y="721" on="1"/>
        <pt x="415" y="731" on="0"/>
        <pt x="417" y="735" on="0"/>
        <pt x="415" y="737" on="1"/>
        <pt x="425" y="746" on="1"/>
        <pt x="435" y="749" on="0"/>
        <pt x="437" y="744" on="0"/>
      </contour>
      <contour>
        <pt x="449" y="644" on="1"/>
        <pt x="444" y="625" on="0"/>
        <pt x="437" y="624" on="1"/>
        <pt x="434" y="624" on="0"/>
        <pt x="424" y="625" on="0"/>
        <pt x="421" y="627" on="1"/>
        <pt x="415" y="637" on="0"/>
        <pt x="417" y="644" on="0"/>
        <pt x="419" y="646" on="1"/>
        <pt x="422" y="651" on="0"/>
        <pt x="434" y="649" on="0"/>
        <pt x="441" y="647" on="1"/>
      </contour>
      <contour>
        <pt x="452" y="541" on="1"/>
        <pt x="447" y="536" on="0"/>
        <pt x="436" y="528" on="0"/>
        <pt x="426" y="530" on="1"/>
        <pt x="423" y="534" on="0"/>
        <pt x="419" y="541" on="0"/>
        <pt x="417" y="544" on="1"/>
        <pt x="422" y="554" on="0"/>
        <pt x="422" y="555" on="0"/>
        <pt x="424" y="556" on="1"/>
        <pt x="437" y="561" on="0"/>
        <pt x="444" y="554" on="1"/>
        <pt x="451" y="547" on="0"/>
        <pt x="448" y="542" on="0"/>
      </contour>
      <contour>
        <pt x="449" y="459" on="1"/>
        <pt x="449" y="449" on="0"/>
        <pt x="448" y="444" on="0"/>
        <pt x="444" y="442" on="1"/>
        <pt x="440" y="439" on="0"/>
        <pt x="433" y="441" on="0"/>
        <pt x="431" y="438" on="1"/>
        <pt x="422" y="441" on="0"/>
        <pt x="419" y="454" on="1"/>
        <pt x="420" y="457" on="0"/>
        <pt x="424" y="461" on="0"/>
        <pt x="424" y="465" on="1"/>
        <pt x="428" y="466" on="0"/>
        <pt x="431" y="469" on="0"/>
        <pt x="436" y="468" on="1"/>
        <pt x="445" y="463" on="0"/>
      </contour>
      <contour>
        <pt x="420" y="340" on="1"/>
        <pt x="417" y="346" on="0"/>
        <pt x="417" y="354" on="1"/>
        <pt x="423" y="362" on="0"/>
        <pt x="425" y="366" on="1"/>
        <pt x="431" y="367" on="0"/>
        <pt x="439" y="366" on="0"/>
        <pt x="444" y="364" on="1"/>
        <pt x="443" y="361" on="0"/>
        <pt x="448" y="356" on="0"/>
        <pt x="450" y="353" on="1"/>
        <pt x="448" y="350" on="0"/>
        <pt x="450" y="344" on="0"/>
        <pt x="449" y="342" on="1"/>
        <pt x="447" y="341" on="0"/>
        <pt x="439" y="335" on="0"/>
        <pt x="437" y="335" on="1"/>
        <pt x="432" y="334" on="0"/>
        <pt x="425" y="339" on="0"/>
      </contour>
      <contour>
        <pt x="434" y="236" on="1"/>
        <pt x="429" y="234" on="0"/>
        <pt x="425" y="239" on="0"/>
        <pt x="423" y="241" on="1"/>
        <pt x="417" y="246" on="0"/>
        <pt x="416" y="251" on="0"/>
        <pt x="415" y="254" on="1"/>
        <pt x="418" y="259" on="0"/>
        <pt x="425" y="267" on="0"/>
        <pt x="433" y="268" on="1"/>
        <pt x="437" y="264" on="0"/>
        <pt x="444" y="260" on="0"/>
        <pt x="446" y="255" on="1"/>
        <pt x="450" y="248" on="0"/>
        <pt x="439" y="241" on="0"/>
      </contour>
      <contour>
        <pt x="434" y="136" on="1"/>
        <pt x="429" y="135" on="0"/>
        <pt x="420" y="132" on="0"/>
        <pt x="415" y="133" on="1"/>
        <pt x="408" y="135" on="0"/>
        <pt x="403" y="147" on="0"/>
        <pt x="403" y="153" on="1"/>
        <pt x="405" y="155" on="0"/>
        <pt x="410" y="159" on="0"/>
        <pt x="411" y="162" on="1"/>
        <pt x="415" y="162" on="0"/>
        <pt x="419" y="163" on="0"/>
        <pt x="422" y="164" on="1"/>
        <pt x="424" y="161" on="0"/>
        <pt x="430" y="159" on="0"/>
        <pt x="432" y="156" on="1"/>
        <pt x="434" y="148" on="0"/>
        <pt x="435" y="138" on="0"/>
      </contour>
      <contour>
        <pt x="81" y="121" on="1"/>
        <pt x="76" y="122" on="0"/>
        <pt x="75" y="117" on="0"/>
        <pt x="70" y="119" on="1"/>
        <pt x="59" y="115" on="0"/>
        <pt x="52" y="116" on="1"/>
        <pt x="50" y="120" on="0"/>
        <pt x="46" y="127" on="0"/>
        <pt x="46" y="131" on="1"/>
        <pt x="46" y="136" on="0"/>
        <pt x="51" y="140" on="0"/>
        <pt x="53" y="144" on="1"/>
        <pt x="58" y="143" on="0"/>
        <pt x="62" y="145" on="0"/>
        <pt x="67" y="145" on="1"/>
        <pt x="71" y="143" on="0"/>
        <pt x="76" y="137" on="0"/>
        <pt x="79" y="134" on="1"/>
        <pt x="81" y="129" on="0"/>
        <pt x="80" y="126" on="0"/>
      </contour>
      <contour>
        <pt x="99" y="56" on="1"/>
        <pt x="96" y="58" on="0"/>
        <pt x="91" y="66" on="0"/>
        <pt x="87" y="68" on="1"/>
        <pt x="89" y="71" on="0"/>
        <pt x="89" y="77" on="0"/>
        <pt x="90" y="80" on="1"/>
        <pt x="96" y="86" on="0"/>
        <pt x="103" y="85" on="0"/>
        <pt x="108" y="88" on="1"/>
        <pt x="112" y="86" on="0"/>
        <pt x="114" y="79" on="0"/>
        <pt x="118" y="78" on="1"/>
        <pt x="118" y="74" on="0"/>
        <pt x="120" y="68" on="0"/>
        <pt x="118" y="66" on="1"/>
        <pt x="112" y="58" on="0"/>
        <pt x="110" y="57" on="1"/>
        <pt x="101" y="56" on="0"/>
      </contour>
      <contour>
        <pt x="388" y="42" on="1"/>
        <pt x="380" y="44" on="0"/>
        <pt x="375" y="44" on="1"/>
        <pt x="369" y="53" on="0"/>
        <pt x="370" y="56" on="0"/>
        <pt x="368" y="57" on="1"/>
        <pt x="369" y="63" on="0"/>
        <pt x="374" y="70" on="0"/>
        <pt x="377" y="73" on="1"/>
        <pt x="384" y="74" on="0"/>
        <pt x="396" y="69" on="0"/>
        <pt x="398" y="63" on="1"/>
        <pt x="398" y="51" on="0"/>
        <pt x="395" y="49" on="0"/>
        <pt x="393" y="47" on="1"/>
      </contour>
      <contour>
        <pt x="174" y="35" on="1"/>
        <pt x="172" y="30" on="0"/>
        <pt x="173" y="24" on="0"/>
        <pt x="171" y="19" on="1"/>
        <pt x="169" y="18" on="0"/>
        <pt x="162" y="15" on="0"/>
        <pt x="157" y="16" on="1"/>
        <pt x="152" y="17" on="0"/>
        <pt x="140" y="28" on="0"/>
        <pt x="143" y="37" on="1"/>
        <pt x="152" y="44" on="0"/>
        <pt x="160" y="43" on="1"/>
        <pt x="165" y="42" on="0"/>
        <pt x="171" y="36" on="0"/>
      </contour>
      <contour>
        <pt x="330" y="17" on="1"/>
        <pt x="331" y="14" on="0"/>
        <pt x="332" y="9" on="0"/>
        <pt x="332" y="6" on="1"/>
        <pt x="328" y="1" on="0"/>
        <pt x="328" y="-4" on="0"/>
        <pt x="327" y="-5" on="1"/>
        <pt x="317" y="-9" on="0"/>
        <pt x="310" y="-6" on="1"/>
        <pt x="303" y="0" on="0"/>
        <pt x="296" y="12" on="0"/>
        <pt x="302" y="15" on="1"/>
        <pt x="305" y="19" on="0"/>
        <pt x="313" y="22" on="0"/>
        <pt x="317" y="24" on="1"/>
        <pt x="326" y="19" on="0"/>
        <pt x="328" y="16" on="0"/>
      </contour>
      <contour>
        <pt x="240" y="2" on="1"/>
        <pt x="241" y="-3" on="0"/>
        <pt x="242" y="-6" on="0"/>
        <pt x="240" y="-11" on="1"/>
        <pt x="225" y="-19" on="0"/>
        <pt x="221" y="-17" on="1"/>
        <pt x="218" y="-16" on="0"/>
        <pt x="211" y="-7" on="0"/>
        <pt x="212" y="-1" on="1"/>
        <pt x="212" y="3" on="0"/>
        <pt x="221" y="8" on="0"/>
        <pt x="226" y="8" on="1"/>
        <pt x="231" y="8" on="0"/>
        <pt x="237" y="3" on="0"/>
      </contour>
    </TTGlyph>
</ttFont>
